<svg xmlns="http://www.w3.org/2000/svg" xmlns:xlink="http://www.w3.org/1999/xlink" id="Half_Circle_Lines" data-name="Half Circle Lines" width="240" height="483.732" viewBox="0 0 240 483.732"><defs><clipPath id="clip-path"><rect id="Rectangle_8" data-name="Rectangle 8" width="240" height="242" transform="translate(0 240) rotate(-90)" fill="none" stroke="#6a6a6a" stroke-width="1"></rect></clipPath><clipPath id="clip-path-2"><rect id="Rectangle_8-2" data-name="Rectangle 8" width="240" height="242" transform="translate(242) rotate(90)" fill="none" stroke="#6a6a6a" stroke-width="1"></rect></clipPath></defs><g id="Group_26" data-name="Group 26" transform="translate(0 242) rotate(-90)" opacity="0.6"><g id="Group_3" data-name="Group 3" clip-path="url(#clip-path)"><g id="Group_2" data-name="Group 2" transform="translate(-234.328 4.201)"><ellipse id="Ellipse_2" data-name="Ellipse 2" cx="235.325" cy="235.805" rx="235.325" ry="235.805" transform="translate(0)" fill="none" stroke="#6a6a6a" stroke-miterlimit="10" stroke-width="0.704"></ellipse><ellipse id="Ellipse_3" data-name="Ellipse 3" cx="218.321" cy="218.767" rx="218.321" ry="218.767" transform="translate(17.004 17.038)" fill="none" stroke="#6a6a6a" stroke-miterlimit="10" stroke-width="0.688"></ellipse><ellipse id="Ellipse_4" data-name="Ellipse 4" cx="201.317" cy="201.728" rx="201.317" ry="201.728" transform="translate(34.008 34.077)" fill="none" stroke="#6a6a6a" stroke-miterlimit="10" stroke-width="0.672"></ellipse><ellipse id="Ellipse_5" data-name="Ellipse 5" cx="184.314" cy="184.69" rx="184.314" ry="184.69" transform="translate(51.011 51.115)" fill="none" stroke="#6a6a6a" stroke-miterlimit="10" stroke-width="0.657"></ellipse><ellipse id="Ellipse_6" data-name="Ellipse 6" cx="167.31" cy="167.652" rx="167.31" ry="167.652" transform="translate(68.015 68.154)" fill="none" stroke="#6a6a6a" stroke-miterlimit="10" stroke-width="0.641"></ellipse><ellipse id="Ellipse_7" data-name="Ellipse 7" cx="150.306" cy="150.613" rx="150.306" ry="150.613" transform="translate(85.019 85.192)" fill="none" stroke="#6a6a6a" stroke-miterlimit="10" stroke-width="0.625"></ellipse><ellipse id="Ellipse_8" data-name="Ellipse 8" cx="133.302" cy="133.575" rx="133.302" ry="133.575" transform="translate(102.023 102.231)" fill="none" stroke="#6a6a6a" stroke-miterlimit="10" stroke-width="0.609"></ellipse><ellipse id="Ellipse_9" data-name="Ellipse 9" cx="116.538" cy="116.3" rx="116.538" ry="116.3" transform="translate(350.883 118.532) rotate(89.636)" fill="none" stroke="#6a6a6a" stroke-miterlimit="10" stroke-width="0.593"></ellipse><ellipse id="Ellipse_10" data-name="Ellipse 10" cx="99.498" cy="99.295" rx="99.498" ry="99.295" transform="translate(334.374 136.062) rotate(89.858)" fill="none" stroke="#6a6a6a" stroke-miterlimit="10" stroke-width="0.578"></ellipse><ellipse id="Ellipse_11" data-name="Ellipse 11" cx="82.291" cy="82.459" rx="82.291" ry="82.459" transform="translate(153.165 153.215) rotate(0.091)" fill="none" stroke="#6a6a6a" stroke-miterlimit="10" stroke-width="0.562"></ellipse><ellipse id="Ellipse_12" data-name="Ellipse 12" cx="65.288" cy="65.421" rx="65.288" ry="65.421" transform="translate(170.421 170.003) rotate(0.335)" fill="none" stroke="#6a6a6a" stroke-miterlimit="10" stroke-width="0.546"></ellipse><ellipse id="Ellipse_13" data-name="Ellipse 13" cx="48.285" cy="48.383" rx="48.285" ry="48.383" transform="translate(187.543 186.926) rotate(0.592)" fill="none" stroke="#6a6a6a" stroke-miterlimit="10" stroke-width="0.53"></ellipse><ellipse id="Ellipse_14" data-name="Ellipse 14" cx="31.281" cy="31.345" rx="31.281" ry="31.345" transform="translate(204.519 203.994) rotate(0.862)" fill="none" stroke="#6a6a6a" stroke-miterlimit="10" stroke-width="0.514"></ellipse><ellipse id="Ellipse_15" data-name="Ellipse 15" cx="14.277" cy="14.306" rx="14.277" ry="14.306" transform="translate(221.337 221.217) rotate(1.146)" fill="none" stroke="#6a6a6a" stroke-miterlimit="10" stroke-width="0.498"></ellipse></g></g></g><g id="Group_27" data-name="Group 27" transform="translate(240 241.732) rotate(90)" opacity="0.6"><g id="Group_3-2" data-name="Group 3" clip-path="url(#clip-path-2)"><g id="Group_2-2" data-name="Group 2" transform="translate(-234.328 -235.812)"><ellipse id="Ellipse_2-2" data-name="Ellipse 2" cx="235.325" cy="235.805" rx="235.325" ry="235.805" transform="translate(0)" fill="none" stroke="#6a6a6a" stroke-miterlimit="10" stroke-width="0.704"></ellipse><ellipse id="Ellipse_3-2" data-name="Ellipse 3" cx="218.321" cy="218.767" rx="218.321" ry="218.767" transform="translate(17.004 17.038)" fill="none" stroke="#6a6a6a" stroke-miterlimit="10" stroke-width="0.688"></ellipse><ellipse id="Ellipse_4-2" data-name="Ellipse 4" cx="201.317" cy="201.728" rx="201.317" ry="201.728" transform="translate(34.008 34.077)" fill="none" stroke="#6a6a6a" stroke-miterlimit="10" stroke-width="0.672"></ellipse><ellipse id="Ellipse_5-2" data-name="Ellipse 5" cx="184.314" cy="184.69" rx="184.314" ry="184.69" transform="translate(51.011 51.115)" fill="none" stroke="#6a6a6a" stroke-miterlimit="10" stroke-width="0.657"></ellipse><ellipse id="Ellipse_6-2" data-name="Ellipse 6" cx="167.31" cy="167.652" rx="167.31" ry="167.652" transform="translate(68.015 68.154)" fill="none" stroke="#6a6a6a" stroke-miterlimit="10" stroke-width="0.641"></ellipse><ellipse id="Ellipse_7-2" data-name="Ellipse 7" cx="150.306" cy="150.613" rx="150.306" ry="150.613" transform="translate(85.019 85.192)" fill="none" stroke="#6a6a6a" stroke-miterlimit="10" stroke-width="0.625"></ellipse><ellipse id="Ellipse_8-2" data-name="Ellipse 8" cx="133.302" cy="133.575" rx="133.302" ry="133.575" transform="translate(102.023 102.231)" fill="none" stroke="#6a6a6a" stroke-miterlimit="10" stroke-width="0.609"></ellipse><ellipse id="Ellipse_9-2" data-name="Ellipse 9" cx="116.535" cy="116.297" rx="116.535" ry="116.297" transform="translate(118.29 351.599) rotate(-89.636)" fill="none" stroke="#6a6a6a" stroke-miterlimit="10" stroke-width="0.593"></ellipse><ellipse id="Ellipse_10-2" data-name="Ellipse 10" cx="99.497" cy="99.294" rx="99.497" ry="99.294" transform="translate(135.785 335.057) rotate(-89.858)" fill="none" stroke="#6a6a6a" stroke-miterlimit="10" stroke-width="0.578"></ellipse><ellipse id="Ellipse_11-2" data-name="Ellipse 11" cx="82.291" cy="82.459" rx="82.291" ry="82.459" transform="translate(152.903 153.477) rotate(-0.091)" fill="none" stroke="#6a6a6a" stroke-miterlimit="10" stroke-width="0.562"></ellipse><ellipse id="Ellipse_12-2" data-name="Ellipse 12" cx="65.287" cy="65.42" rx="65.287" ry="65.42" transform="translate(169.657 170.769) rotate(-0.335)" fill="none" stroke="#6a6a6a" stroke-miterlimit="10" stroke-width="0.546"></ellipse><ellipse id="Ellipse_13-2" data-name="Ellipse 13" cx="48.283" cy="48.381" rx="48.283" ry="48.381" transform="translate(186.545 187.926) rotate(-0.592)" fill="none" stroke="#6a6a6a" stroke-miterlimit="10" stroke-width="0.53"></ellipse><ellipse id="Ellipse_14-2" data-name="Ellipse 14" cx="31.279" cy="31.343" rx="31.279" ry="31.343" transform="translate(203.578 204.937) rotate(-0.862)" fill="none" stroke="#6a6a6a" stroke-miterlimit="10" stroke-width="0.514"></ellipse><ellipse id="Ellipse_15-2" data-name="Ellipse 15" cx="14.276" cy="14.305" rx="14.276" ry="14.305" transform="translate(220.766 221.789) rotate(-1.146)" fill="none" stroke="#6a6a6a" stroke-miterlimit="10" stroke-width="0.498"></ellipse></g></g></g></svg>