<svg width="17" height="13" viewBox="0 0 17 13" fill="none" xmlns="http://www.w3.org/2000/svg">
<path d="M5 6.75C5.01823 5.76562 5.35547 4.9362 6.01172 4.26172C6.6862 3.60547 7.51562 3.26823 8.5 3.25C9.48438 3.26823 10.3138 3.60547 10.9883 4.26172C11.6445 4.9362 11.9818 5.76562 12 6.75C11.9818 7.73438 11.6445 8.5638 10.9883 9.23828C10.3138 9.89453 9.48438 10.2318 8.5 10.25C7.51562 10.2318 6.6862 9.89453 6.01172 9.23828C5.35547 8.5638 5.01823 7.73438 5 6.75ZM8.5 8.9375C9.11979 8.91927 9.63932 8.70964 10.0586 8.30859C10.4596 7.88932 10.6693 7.36979 10.6875 6.75C10.6693 6.13021 10.4596 5.61068 10.0586 5.19141C9.63932 4.79036 9.11979 4.58073 8.5 4.5625C8.5 4.5625 8.49089 4.5625 8.47266 4.5625C8.45443 4.5625 8.4362 4.5625 8.41797 4.5625C8.47266 4.70833 8.5 4.85417 8.5 5C8.48177 5.49219 8.30859 5.90234 7.98047 6.23047C7.65234 6.55859 7.24219 6.73177 6.75 6.75C6.60417 6.75 6.45833 6.72266 6.3125 6.66797C6.3125 6.6862 6.3125 6.70443 6.3125 6.72266C6.33073 7.36068 6.54036 7.88021 6.94141 8.28125C7.36068 8.70052 7.88021 8.91927 8.5 8.9375ZM3.22266 2.83984C3.87891 2.22005 4.64453 1.70052 5.51953 1.28125C6.39453 0.861979 7.38802 0.643229 8.5 0.625C9.61198 0.643229 10.6055 0.861979 11.4805 1.28125C12.3555 1.70052 13.1211 2.22005 13.7773 2.83984C14.4154 3.44141 14.944 4.0612 15.3633 4.69922C15.7826 5.33724 16.1016 5.91146 16.3203 6.42188C16.3932 6.64062 16.3932 6.85938 16.3203 7.07812C16.1016 7.58854 15.7826 8.16276 15.3633 8.80078C14.944 9.42057 14.4154 10.0404 13.7773 10.6602C13.1211 11.2799 12.3555 11.7995 11.4805 12.2188C10.6055 12.638 9.61198 12.8568 8.5 12.875C7.38802 12.8568 6.39453 12.638 5.51953 12.2188C4.64453 11.7995 3.87891 11.2799 3.22266 10.6602C2.58464 10.0404 2.05599 9.42057 1.63672 8.80078C1.21745 8.16276 0.898438 7.58854 0.679688 7.07812C0.606771 6.85938 0.606771 6.64062 0.679688 6.42188C0.898438 5.91146 1.21745 5.33724 1.63672 4.69922C2.05599 4.0612 2.58464 3.44141 3.22266 2.83984ZM8.5 1.9375C7.60677 1.95573 6.79557 2.13802 6.06641 2.48438C5.33724 2.8125 4.6901 3.25 4.125 3.79688C3.59635 4.28906 3.14974 4.79948 2.78516 5.32812C2.4388 5.83854 2.16536 6.3125 1.96484 6.75C2.16536 7.16927 2.4388 7.64323 2.78516 8.17188C3.14974 8.70052 3.59635 9.21094 4.125 9.70312C4.6901 10.25 5.33724 10.6875 6.06641 11.0156C6.79557 11.362 7.60677 11.5443 8.5 11.5625C9.39323 11.5443 10.2044 11.362 10.9336 11.0156C11.6628 10.6875 12.3099 10.25 12.875 9.70312C13.4036 9.21094 13.8411 8.70052 14.1875 8.17188C14.5521 7.64323 14.8346 7.16927 15.0352 6.75C14.8346 6.3125 14.5521 5.83854 14.1875 5.32812C13.8411 4.79948 13.4036 4.28906 12.875 3.79688C12.3099 3.25 11.6628 2.8125 10.9336 2.48438C10.2044 2.13802 9.39323 1.95573 8.5 1.9375Z" fill="white"/>
</svg>
