<svg width="14" height="13" viewBox="0 0 14 13" fill="none" xmlns="http://www.w3.org/2000/svg">
<path d="M6.67188 2.04688L6.97266 2.375L7.30078 2.04688C7.77474 1.59115 8.30339 1.27214 8.88672 1.08984C9.48828 0.907552 10.1081 0.861979 10.7461 0.953125C11.694 1.13542 12.4688 1.58203 13.0703 2.29297C13.6719 2.98568 13.9818 3.82422 14 4.80859V4.97266C13.9818 6.15755 13.5443 7.15104 12.6875 7.95312L7.76562 12.5742C7.54688 12.7747 7.29167 12.875 7 12.875C6.70833 12.875 6.45312 12.7747 6.23438 12.5742L1.3125 7.95312C0.455729 7.15104 0.0182292 6.15755 0 4.97266V4.80859C0.0182292 3.82422 0.328125 2.98568 0.929688 2.29297C1.53125 1.58203 2.30599 1.13542 3.25391 0.953125C3.8737 0.861979 4.48438 0.907552 5.08594 1.08984C5.6875 1.27214 6.21615 1.59115 6.67188 2.04688C6.65365 2.04688 6.65365 2.04688 6.67188 2.04688ZM6.97266 4.23438L5.74219 2.94922C5.10417 2.36589 4.34766 2.12891 3.47266 2.23828C2.83464 2.36589 2.3151 2.66667 1.91406 3.14062C1.53125 3.61458 1.33073 4.17057 1.3125 4.80859V4.97266C1.33073 5.77474 1.6224 6.44922 2.1875 6.99609L7 11.4805L11.8125 6.99609C12.3776 6.44922 12.6693 5.77474 12.6875 4.97266V4.80859C12.6693 4.17057 12.4596 3.61458 12.0586 3.14062C11.6758 2.66667 11.1654 2.36589 10.5273 2.23828C9.65234 2.12891 8.89583 2.36589 8.25781 2.94922L6.97266 4.23438Z" fill="white"/>
</svg>
