<svg width="15" height="14" viewBox="0 0 15 14" fill="none" xmlns="http://www.w3.org/2000/svg">
<path d="M14.0938 5.25C14.3672 5.26823 14.5677 5.39583 14.6953 5.63281C14.8047 5.90625 14.7682 6.14323 14.5859 6.34375L12.6172 8.53125C12.4896 8.67708 12.3255 8.75 12.125 8.75C11.9245 8.75 11.7604 8.67708 11.6328 8.53125L9.66406 6.34375C9.48177 6.14323 9.44531 5.90625 9.55469 5.63281C9.68229 5.39583 9.88281 5.26823 10.1562 5.25H11.4688V4.8125C11.4505 4.2474 11.2591 3.78255 10.8945 3.41797C10.5299 3.05339 10.0651 2.86198 9.5 2.84375H5.01563C4.86979 3.29948 4.61458 3.66406 4.25 3.9375C3.86719 4.22917 3.42969 4.375 2.9375 4.375C2.31771 4.35677 1.79818 4.14714 1.37891 3.74609C0.977865 3.32682 0.768229 2.80729 0.75 2.1875C0.768229 1.56771 0.977865 1.04818 1.37891 0.628906C1.79818 0.227865 2.31771 0.0182292 2.9375 0C3.42969 0 3.86719 0.145833 4.25 0.4375C4.61458 0.710938 4.86979 1.07552 5.01563 1.53125H9.5C10.4297 1.54948 11.2044 1.86849 11.8242 2.48828C12.444 3.10807 12.763 3.88281 12.7812 4.8125V5.25H14.0938ZM2.91016 1.3125C2.67318 1.3125 2.47266 1.39453 2.30859 1.55859C2.14453 1.72266 2.05339 1.93229 2.03516 2.1875C2.05339 2.44271 2.14453 2.65234 2.30859 2.81641C2.47266 2.98047 2.67318 3.0625 2.91016 3.0625C3.16536 3.0625 3.375 2.98047 3.53906 2.81641C3.70313 2.65234 3.78516 2.44271 3.78516 2.1875C3.78516 1.93229 3.70313 1.72266 3.53906 1.55859C3.375 1.39453 3.16536 1.3125 2.91016 1.3125ZM1.40625 8.75C1.13281 8.73177 0.932292 8.60417 0.804688 8.36719C0.695313 8.11198 0.731771 7.875 0.914063 7.65625L2.88281 5.46875C3.01042 5.32292 3.17448 5.25 3.375 5.25C3.57552 5.25 3.73958 5.32292 3.86719 5.46875L5.83594 7.65625C6.01823 7.875 6.05469 8.11198 5.94531 8.36719C5.81771 8.60417 5.61719 8.73177 5.34375 8.75H4.03125V9.1875C4.04948 9.7526 4.24089 10.2174 4.60547 10.582C4.97005 10.9466 5.4349 11.138 6 11.1562H10.4844C10.6302 10.7005 10.8854 10.3359 11.25 10.0625C11.6328 9.77083 12.0703 9.625 12.5625 9.625C13.1823 9.64323 13.7018 9.85286 14.1211 10.2539C14.5221 10.6732 14.7318 11.1927 14.75 11.8125C14.7318 12.4323 14.5221 12.9518 14.1211 13.3711C13.7018 13.7721 13.1823 13.9818 12.5625 14C12.0703 14 11.6328 13.8542 11.25 13.5625C10.8854 13.2891 10.6302 12.9245 10.4844 12.4688H6C5.07031 12.4505 4.29557 12.1315 3.67578 11.5117C3.05599 10.8919 2.73698 10.1172 2.71875 9.1875V8.75H1.40625ZM12.5625 12.6875C12.8177 12.6875 13.0273 12.6055 13.1914 12.4414C13.3555 12.2773 13.4375 12.0677 13.4375 11.8125C13.4375 11.5573 13.3555 11.3477 13.1914 11.1836C13.0273 11.0195 12.8177 10.9375 12.5625 10.9375C12.3073 10.9375 12.0977 11.0195 11.9336 11.1836C11.7695 11.3477 11.6875 11.5573 11.6875 11.8125C11.6875 12.0677 11.7695 12.2773 11.9336 12.4414C12.0977 12.6055 12.3073 12.6875 12.5625 12.6875Z" fill="white"/>
</svg>
