<svg width="512" height="512" viewBox="0 0 512 512" fill="none" xmlns="http://www.w3.org/2000/svg">
<path d="M234.002 320.327C261.761 339.765 295.523 351.19 331.908 351.19C348.028 351.19 363.963 348.946 379.312 344.53C387.132 350.01 396.64 353.239 406.893 353.239C433.463 353.239 455.08 331.623 455.08 305.052C455.08 303.073 454.946 301.126 454.713 299.209C485.863 267.114 503.005 224.886 503.005 180.091C503.005 85.7481 426.251 8.99414 331.907 8.99414C287.1 8.99414 244.617 26.3881 212.824 57.2391V27.1111C212.824 17.1211 204.697 8.99414 194.707 8.99414H27.1234C17.1334 8.99414 9.00639 17.1211 9.00639 27.1111V133.226C9.00639 143.216 17.1334 151.343 27.1234 151.343H86.8474C87.8064 156.277 89.8394 163.318 94.1434 170.602C101.284 182.691 116.224 197.905 146.841 201.732C147.13 201.768 147.417 201.786 147.703 201.786C150.262 201.786 152.639 200.367 153.867 198.067C155.233 195.51 154.867 192.359 152.969 190.168C152.422 189.537 140.479 175.4 143.863 151.343H163.226C161.627 160.803 160.811 170.438 160.811 180.093C160.811 216.478 172.236 250.24 191.674 277.999L159.903 309.77C157.043 308.808 154.013 308.301 150.9 308.301C143.392 308.301 136.349 311.209 131.068 316.489L17.1954 430.361C6.26039 441.296 6.26039 459.09 17.1954 470.024L41.9754 494.805C47.4434 500.272 54.6244 503.005 61.8064 503.005C68.9884 503.005 76.1714 500.271 81.6394 494.804L195.512 380.931C203.298 373.145 205.535 361.884 202.233 352.095L234.002 320.327ZM406.894 339.239C388.043 339.239 372.707 323.903 372.707 305.052C372.707 286.204 388.043 270.871 406.894 270.871C425.745 270.871 441.081 286.204 441.081 305.052C441.081 323.903 425.744 339.239 406.894 339.239ZM361.327 289.413C351.78 291.975 341.896 293.289 331.908 293.289C269.491 293.289 218.711 242.509 218.711 180.092C218.711 117.675 269.491 66.8951 331.908 66.8951C394.325 66.8951 445.105 117.675 445.105 180.092C445.105 209.042 434.258 236.428 414.514 257.481C412.031 257.085 409.487 256.873 406.893 256.873C385.798 256.872 367.838 270.502 361.327 289.413ZM331.908 22.9951C418.532 22.9951 489.006 93.4691 489.006 180.092C489.006 218.566 475.232 254.976 450.044 283.641C445.478 274.48 438.082 266.974 429.004 262.266C448.477 239.317 459.106 210.47 459.106 180.093C459.106 109.956 402.045 52.8961 331.909 52.8961C277.258 52.8961 230.551 87.5421 212.587 136.023C212.73 135.109 212.826 134.18 212.826 133.226V77.6461C242.748 42.8881 285.998 22.9951 331.908 22.9951ZM138.039 137.342C134.769 137.342 131.935 139.606 131.212 142.795C127.168 160.643 130.071 174.899 133.945 184.649C101.341 173.987 100.031 145.527 99.9894 144.197C99.9104 140.388 96.8004 137.342 92.9904 137.342H27.1234C24.8534 137.342 23.0064 135.495 23.0064 133.225V27.1111C23.0064 24.8411 24.8534 22.9941 27.1234 22.9941H194.709C196.979 22.9941 198.826 24.8411 198.826 27.1111V75.0141V75.0191V133.226C198.826 135.496 196.979 137.343 194.709 137.343H171.834C171.827 137.343 171.82 137.343 171.812 137.343H138.039V137.342ZM177.447 151.342H194.708C201.505 151.342 207.432 147.576 210.531 142.025C206.752 154.049 204.71 166.836 204.71 180.092C204.71 250.229 261.771 307.289 331.907 307.289C340.961 307.289 349.947 306.332 358.721 304.45C358.718 304.651 358.706 304.85 358.706 305.052C358.706 315.496 362.057 325.167 367.725 333.068C356.037 335.793 344.033 337.19 331.908 337.19C245.284 337.19 174.81 266.715 174.81 180.091C174.811 170.422 175.704 160.778 177.447 151.342ZM222.77 311.76L194.387 340.143L171.857 317.614L200.241 289.23C207.038 297.418 214.583 304.962 222.77 311.76ZM185.612 371.032L71.7404 484.905C66.2634 490.38 57.3524 490.381 51.8754 484.906L27.0954 460.126C21.6184 454.648 21.6184 445.737 27.0954 440.261L140.968 326.389C143.605 323.751 147.132 322.3 150.901 322.3C154.669 322.3 158.196 323.751 160.833 326.389L185.613 351.168V351.167C191.089 356.645 191.089 365.556 185.612 371.032ZM385.634 244.658L396.474 233.818C401.165 229.126 401.165 221.491 396.474 216.798C392.115 212.44 393.728 207.389 394.327 205.945C394.925 204.501 397.355 199.79 403.519 199.79C410.155 199.79 415.554 194.392 415.554 187.756V172.427C415.554 165.791 410.155 160.392 403.519 160.392C397.355 160.392 394.925 155.681 394.327 154.237C393.729 152.793 392.116 147.742 396.474 143.383C401.165 138.692 401.165 131.057 396.474 126.363L385.635 115.524C383.363 113.251 380.34 111.999 377.125 111.999C373.91 111.999 370.888 113.25 368.615 115.523C364.256 119.882 359.205 118.269 357.761 117.67C356.317 117.071 351.606 114.641 351.606 108.478C351.606 101.842 346.208 96.4431 339.572 96.4431H324.243C317.607 96.4431 312.208 101.842 312.208 108.478C312.208 114.642 307.497 117.072 306.053 117.67C304.608 118.268 299.558 119.879 295.2 115.523C290.508 110.831 282.872 110.832 278.18 115.523L267.34 126.363C265.068 128.636 263.816 131.658 263.816 134.873C263.816 138.088 265.068 141.11 267.34 143.382C271.699 147.741 270.086 152.791 269.487 154.235C268.889 155.679 266.458 160.39 260.295 160.39C253.659 160.39 248.26 165.789 248.26 172.425V187.754C248.26 194.39 253.659 199.788 260.295 199.788C266.459 199.788 268.889 204.499 269.487 205.943C270.085 207.387 271.698 212.438 267.34 216.796C262.648 221.488 262.648 229.124 267.34 233.816L278.179 244.655C282.872 249.348 290.508 249.347 295.199 244.655C298.147 241.708 302.207 240.901 306.056 242.495C309.907 244.09 312.206 247.531 312.206 251.699C312.206 258.335 317.605 263.734 324.241 263.734H339.57C346.206 263.734 351.604 258.335 351.604 251.699C351.604 245.536 356.315 243.105 357.759 242.507C359.203 241.909 364.254 240.296 368.613 244.654C370.886 246.927 373.908 248.178 377.123 248.178C380.34 248.183 383.362 246.931 385.634 244.658ZM352.404 229.577C343.889 233.104 338.383 240.721 337.683 249.738H326.134C325.434 240.712 319.93 233.091 311.417 229.565C302.903 226.038 293.623 227.535 286.746 233.423L278.579 225.256C284.461 218.384 285.953 209.106 282.425 200.589C278.898 192.073 271.281 186.567 262.264 185.867V174.317C271.282 173.617 278.898 168.111 282.425 159.596C285.952 151.08 284.461 141.802 278.579 134.929L286.746 126.761C293.618 132.644 302.898 134.135 311.413 130.607C319.928 127.08 325.434 119.464 326.134 110.446H337.684C338.384 119.464 343.89 127.08 352.405 130.607C360.921 134.136 370.2 132.644 377.072 126.761L385.24 134.928C379.358 141.8 377.866 151.079 381.394 159.595C384.921 168.11 392.538 173.616 401.555 174.316V185.866C392.537 186.566 384.921 192.073 381.393 200.588C377.866 209.105 379.358 218.384 385.24 225.255L377.072 233.422C370.198 227.541 360.919 226.049 352.404 229.577ZM331.908 136.265C307.742 136.265 288.081 155.926 288.081 180.092C288.081 204.258 307.742 223.919 331.908 223.919C356.074 223.919 375.735 204.258 375.735 180.092C375.735 155.926 356.074 136.265 331.908 136.265ZM331.908 209.918C315.461 209.918 302.081 196.538 302.081 180.091C302.081 163.644 315.461 150.264 331.908 150.264C348.355 150.264 361.735 163.644 361.735 180.091C361.735 196.538 348.355 209.918 331.908 209.918ZM351.393 163.569C354.215 166.211 354.362 170.641 351.72 173.463L330.355 196.288C329.03 197.704 327.179 198.504 325.245 198.504C325.193 198.504 325.14 198.504 325.088 198.502C323.097 198.458 321.219 197.566 319.925 196.053L308.243 182.391C305.731 179.453 306.076 175.034 309.014 172.521C311.952 170.008 316.37 170.354 318.883 173.292L325.48 181.008L341.499 163.895C344.14 161.073 348.57 160.926 351.393 163.569ZM455.882 376.387C452.664 374.476 448.511 375.437 446.458 378.564L427.087 408.062L425.181 393.841C425.925 392.768 426.531 391.579 426.95 390.287L430.056 380.728C431.396 376.604 430.68 372.054 428.139 368.558C425.599 365.062 421.493 362.974 417.157 362.974H396.63C392.294 362.974 388.188 365.061 385.648 368.557C383.108 372.054 382.391 376.603 383.731 380.728L386.837 390.287C387.257 391.579 387.862 392.767 388.607 393.84L386.7 408.061L367.33 378.564C365.276 375.437 361.125 374.477 357.906 376.387C328.838 393.641 310.781 425.328 310.781 459.083C310.781 469.262 316.407 483.466 343.21 493.334C360.127 499.563 382.743 502.992 406.893 502.992C454.733 502.992 503.005 489.415 503.005 459.083C503.006 425.327 484.949 393.64 455.882 376.387ZM416.556 376.975L413.734 385.66H400.053L397.231 376.975H416.556ZM401.951 399.659H411.835L415.356 425.924L406.893 438.812L398.43 425.924L401.951 399.659ZM406.894 488.993C360.85 488.993 324.782 475.855 324.782 459.084C324.782 432.479 337.913 407.377 359.451 392.071L401.043 455.408C402.337 457.379 404.536 458.565 406.894 458.565C409.252 458.565 411.451 457.378 412.745 455.408L454.338 392.07C475.875 407.375 489.006 432.477 489.006 459.084C489.006 475.855 452.938 488.993 406.894 488.993ZM170.117 119.786H51.7154C47.8494 119.786 44.7154 116.652 44.7154 112.786C44.7154 108.92 47.8494 105.786 51.7154 105.786H170.117C173.983 105.786 177.117 108.92 177.117 112.786C177.117 116.652 173.983 119.786 170.117 119.786ZM44.7154 80.1681C44.7154 76.3021 47.8494 73.1681 51.7154 73.1681H170.117C173.983 73.1681 177.117 76.3021 177.117 80.1681C177.117 84.0341 173.983 87.1681 170.117 87.1681H51.7154C47.8494 87.1681 44.7154 84.0351 44.7154 80.1681ZM44.7154 47.5501C44.7154 43.6841 47.8494 40.5501 51.7154 40.5501H170.117C173.983 40.5501 177.117 43.6841 177.117 47.5501C177.117 51.4161 173.983 54.5501 170.117 54.5501H51.7154C47.8494 54.5501 44.7154 51.4171 44.7154 47.5501Z" fill="white"/>
</svg>
