<svg width="512" height="512" viewBox="0 0 512 512" fill="none" xmlns="http://www.w3.org/2000/svg">
<path d="M283.754 251.246C279.755 248.828 274.037 246.483 266.713 244.251V281.682C287.119 278.984 289.6 268.761 289.6 261.075C289.6 256.787 287.745 253.663 283.754 251.246Z" fill="white"/>
<path d="M224.15 190.71C224.15 195.818 226.005 199.624 229.828 202.363C233.426 204.949 238.533 207.269 245.046 209.309V171.107C239.136 172.4 234.261 174.537 230.527 177.5C226.238 180.897 224.15 185.217 224.15 190.71Z" fill="white"/>
<path d="M255.999 510.926C282.155 510.926 303.91 491.7 307.869 466.637H204.121C208.08 491.7 229.835 510.926 255.999 510.926Z" fill="white"/>
<path d="M326.943 411.764H304.119H207.872H185.049C174.464 411.764 165.855 420.373 165.855 430.957C165.855 441.541 174.464 450.15 185.049 450.15H326.943C337.527 450.15 346.136 441.541 346.136 430.957C346.136 420.373 337.527 411.764 326.943 411.764Z" fill="white"/>
<path d="M262.263 75.7193C226.262 74.0891 191.875 86.8177 165.759 111.737C139.635 136.672 125.244 170.264 125.244 206.322C125.244 249.463 146.558 289.801 182.246 314.23C195.352 323.2 204.475 337.398 207.269 353.195L214.762 395.316H297.229L304.673 353.436C307.508 337.479 316.663 323.176 329.777 314.206C369.063 287.295 390.657 241.047 386.136 193.521C380.025 129.38 326.774 78.7388 262.263 75.7193ZM310.712 285.842L310.704 285.85C306.103 292.78 299.542 298.337 291.19 302.385C284.026 305.862 275.803 308.078 266.712 308.986V320.847C266.712 323.851 265.652 326.493 263.645 328.5C261.597 330.516 258.89 331.576 255.783 331.576C252.843 331.576 250.233 330.588 248.218 328.717C246.748 327.312 245.046 324.846 245.046 320.847V308.994C230.181 307.653 216.047 304.159 202.989 298.602C200.516 297.582 198.42 295.872 196.805 293.527C195.151 291.15 194.316 288.54 194.316 285.777C194.316 282.244 195.528 279.12 197.922 276.502C201.728 272.342 208.08 271.29 213.34 273.651C223.427 278.116 234.076 280.871 245.046 281.834V238.629C236.196 236.164 228.526 233.482 222.214 230.639C214.778 227.282 208.522 222.464 203.599 216.328C198.468 209.96 195.858 201.857 195.858 192.252C195.858 183.908 197.938 176.086 202.033 169.011C206.137 161.936 212.288 156.01 220.311 151.408C227.314 147.393 235.618 144.759 245.046 143.554V131.813C245.046 128.874 246.073 126.224 248.025 124.152C252.088 119.872 259.324 119.848 263.532 124.056C265.604 126.104 266.712 128.794 266.712 131.813V143.137C279.947 144.004 291.953 146.461 302.457 150.469C308.126 152.5 311.282 157.006 311.282 163.133C311.282 166.482 310.142 169.525 307.893 172.184C305.46 175.026 302.168 176.512 298.345 176.512C296.891 176.512 295.229 176.127 293.27 175.324C285.102 172.457 276.14 170.626 266.712 169.919V214.826C276.132 217.171 284.147 219.725 290.571 222.431C298.168 225.644 304.601 230.462 309.708 236.758C314.993 243.303 317.675 251.928 317.675 262.392C317.675 270.969 315.33 278.855 310.712 285.842Z" fill="white"/>
<path d="M256.001 33.8955C260.546 33.8955 264.224 30.2175 264.224 25.6721V9.29762C264.224 4.75226 260.546 1.07422 256.001 1.07422C251.455 1.07422 247.777 4.75226 247.777 9.29762V25.6721C247.777 30.2175 251.455 33.8955 256.001 33.8955Z" fill="white"/>
<path d="M337.856 53.8443C339.149 54.5911 340.562 54.9445 341.959 54.9445C344.802 54.9445 347.565 53.4668 349.091 50.8328L357.475 36.3053C359.747 32.3703 358.398 27.3431 354.463 25.0704C350.528 22.7897 345.501 24.1469 343.228 28.0819L334.844 42.6094C332.571 46.5444 333.921 51.5716 337.856 53.8443Z" fill="white"/>
<path d="M421.253 90.721L405.697 99.6993C401.762 101.972 400.413 106.999 402.686 110.934C404.212 113.568 406.974 115.046 409.817 115.046C411.215 115.046 412.628 114.693 413.921 113.946L429.476 104.967C433.411 102.695 434.76 97.6675 432.488 93.7325C430.207 89.8055 425.172 88.4403 421.253 90.721Z" fill="white"/>
<path d="M461.777 187.401H441.989C437.444 187.401 433.766 191.079 433.766 195.625C433.766 200.17 437.444 203.848 441.989 203.848H461.777C466.322 203.848 470 200.17 470 195.625C470 191.079 466.322 187.401 461.777 187.401Z" fill="white"/>
<path d="M162.9 50.8328C164.426 53.4668 167.188 54.9445 170.031 54.9445C171.429 54.9445 172.842 54.5911 174.135 53.8443C178.07 51.5716 179.419 46.5444 177.146 42.6094L168.762 28.0819C166.482 24.1469 161.438 22.7897 157.528 25.0704C153.593 27.3431 152.243 32.3703 154.516 36.3053L162.9 50.8328Z" fill="white"/>
<path d="M106.293 99.6993L90.7373 90.721C86.8103 88.4403 81.775 89.8055 79.5024 93.7325C77.2297 97.6675 78.5788 102.695 82.5139 104.967L98.0693 113.946C99.3622 114.693 100.776 115.046 102.173 115.046C105.016 115.046 107.778 113.568 109.304 110.934C111.577 106.999 110.228 101.972 106.293 99.6993Z" fill="white"/>
<path d="M70.001 187.401H50.2214C45.6761 187.401 41.998 191.079 41.998 195.625C41.998 200.17 45.6761 203.848 50.2214 203.848H70.001C74.5463 203.848 78.2244 200.17 78.2244 195.625C78.2244 191.079 74.5463 187.401 70.001 187.401Z" fill="white"/>
</svg>
