<svg width="512" height="512" viewBox="0 0 512 512" fill="none" xmlns="http://www.w3.org/2000/svg">
<path d="M433.28 54.7119C429.854 51.1719 425.181 49.1102 420.257 48.9662H373.334V27.1464C373.337 24.8351 372.885 22.5458 372.002 20.4097C371.119 18.2736 369.823 16.3328 368.189 14.6985C366.555 13.0641 364.614 11.7684 362.478 10.8855C360.342 10.0027 358.052 9.55013 355.741 9.55373H156.312C154.001 9.55013 151.711 10.0027 149.575 10.8855C147.439 11.7684 145.498 13.0641 143.864 14.6985C142.23 16.3328 140.934 18.2736 140.051 20.4097C139.168 22.5458 138.716 24.8351 138.719 27.1464V48.9662H91.7965C89.3476 48.9665 86.9257 49.4776 84.6856 50.467C82.4455 51.4563 80.4364 52.9021 78.7867 54.7119C77.0936 56.5906 75.8115 58.8022 75.0223 61.205C74.2331 63.6078 73.9544 66.1489 74.2038 68.6656C74.2156 92.2927 80.9509 115.428 93.6227 135.37C106.294 155.311 124.379 171.235 145.765 181.281C151.487 197.059 160.644 211.37 172.572 223.178C184.501 234.986 198.904 243.996 214.74 249.558C215.749 249.848 216.663 250.403 217.385 251.166C218.106 251.928 218.61 252.871 218.844 253.895C224.001 280.516 232.921 345.743 205.697 385.744H168.05C165.738 385.74 163.449 386.193 161.313 387.076C159.177 387.959 157.236 389.254 155.602 390.889C153.967 392.523 152.672 394.464 151.789 396.6C150.906 398.736 150.453 401.025 150.457 403.337V461.997C150.453 464.308 150.906 466.598 151.789 468.734C152.672 470.87 153.967 472.811 155.602 474.445C157.236 476.079 159.177 477.375 161.313 478.258C163.449 479.141 165.738 479.593 168.05 479.59H344.004C346.315 479.593 348.604 479.141 350.74 478.258C352.876 477.375 354.817 476.079 356.452 474.445C358.086 472.811 359.382 470.87 360.264 468.734C361.147 466.598 361.6 464.308 361.596 461.997V403.337C361.6 401.025 361.147 398.736 360.264 396.6C359.382 394.464 358.086 392.523 356.452 390.889C354.817 389.254 352.876 387.959 350.74 387.076C348.604 386.193 346.315 385.74 344.004 385.744H305.699C277.491 346.195 287.34 280.53 292.895 253.895C293.165 252.888 293.682 251.965 294.398 251.207C295.115 250.45 296.008 249.884 296.999 249.558C312.89 244.025 327.353 235.029 339.341 223.22C351.329 211.412 360.543 197.087 366.316 181.281C387.609 171.31 405.637 155.502 418.304 135.693C430.971 115.885 437.758 92.889 437.877 69.377C438.177 66.7471 437.924 64.0833 437.132 61.5575C436.34 59.0316 435.028 56.6996 433.28 54.7119ZM85.9414 67.9679C85.772 67.0949 85.7951 66.1955 86.009 65.3324C86.2229 64.4692 86.6225 63.6631 87.18 62.9702C87.7374 62.2773 88.4392 61.7144 89.2365 61.3206C90.0339 60.9268 90.9075 60.7116 91.7965 60.6901H138.719C139.513 78.4743 136.503 149.611 141.305 165.685C124.38 155.613 110.373 141.304 100.665 124.168C90.9563 107.033 85.8817 87.6626 85.9414 67.9679ZM344.004 397.468C344.776 397.461 345.543 397.607 346.258 397.9C346.973 398.192 347.623 398.624 348.17 399.17C348.716 399.717 349.148 400.367 349.44 401.082C349.733 401.797 349.88 402.564 349.872 403.337V461.997C349.88 462.769 349.733 463.535 349.44 464.25C349.148 464.964 348.716 465.613 348.169 466.158C347.622 466.704 346.972 467.135 346.257 467.425C345.542 467.716 344.776 467.861 344.004 467.852H168.05C167.277 467.861 166.511 467.716 165.796 467.425C165.081 467.135 164.431 466.704 163.884 466.158C163.338 465.613 162.905 464.964 162.613 464.25C162.32 463.535 162.173 462.769 162.181 461.997V403.337C162.173 402.564 162.32 401.797 162.613 401.082C162.905 400.367 163.337 399.717 163.883 399.17C164.43 398.624 165.08 398.192 165.795 397.9C166.51 397.607 167.277 397.461 168.05 397.468H344.004ZM361.596 142.361C361.553 163.516 354.939 184.135 342.668 201.368C330.398 218.602 313.077 231.597 293.1 238.559C290.205 239.507 287.61 241.197 285.572 243.461C283.534 245.724 282.125 248.482 281.485 251.46C274.44 284.771 267.285 344.238 291.691 385.771H219.542C244.166 341.899 235.493 278.314 230.335 251.569C229.679 248.555 228.254 245.762 226.2 243.461C224.146 241.16 221.532 239.429 218.611 238.436C198.723 231.417 181.494 218.414 169.291 201.212C157.088 184.009 150.509 163.452 150.457 142.361V27.1738C150.448 26.4017 150.593 25.6355 150.884 24.9203C151.175 24.205 151.605 23.555 152.151 23.0084C152.696 22.4618 153.345 22.0295 154.06 21.737C154.774 21.4445 155.54 21.2976 156.312 21.305H355.741C356.513 21.2976 357.279 21.4445 357.994 21.737C358.708 22.0295 359.357 22.4618 359.903 23.0084C360.448 23.555 360.879 24.205 361.169 24.9203C361.46 25.6355 361.605 26.4017 361.596 27.1738V142.361ZM370.871 165.617C375.413 149.994 372.609 77.9818 373.334 60.7448H420.257C425.25 61.1826 426.166 64.1922 426.112 68.7203C426.09 88.2736 420.987 107.486 411.303 124.472C401.619 141.459 387.686 155.637 370.871 165.617Z" fill="white"/>
<path d="M286.122 182.429C283.031 183.701 256.272 166.012 253.03 166.012L224.165 180.965C222.629 181.735 220.907 182.057 219.196 181.894C217.485 181.73 215.855 181.089 214.492 180.043C213.129 178.997 212.088 177.588 211.488 175.977C210.888 174.367 210.754 172.62 211.1 170.937L218.036 139.172C218.07 139.006 218.062 138.835 218.015 138.673C217.967 138.511 217.88 138.363 217.763 138.242L195.874 115.423C194.734 114.21 193.947 112.709 193.597 111.081C193.247 109.453 193.348 107.761 193.888 106.186C194.428 104.612 195.388 103.214 196.664 102.144C197.94 101.074 199.483 100.373 201.128 100.115L233.673 95.3955C233.83 95.3751 233.981 95.3172 234.112 95.2268C234.243 95.1364 234.35 95.016 234.425 94.8757L250.212 65.4497C251.009 63.9231 252.223 62.6544 253.713 61.7914C255.203 60.9285 256.908 60.5068 258.628 60.5756C260.349 60.6444 262.014 61.2009 263.431 62.1801C264.847 63.1593 265.956 64.521 266.628 66.1063L279.214 94.9167C279.286 95.0747 279.397 95.2123 279.535 95.3174C279.673 95.4224 279.836 95.4916 280.007 95.5187L311.089 100.184C312.766 100.456 314.334 101.19 315.617 102.303C316.901 103.416 317.849 104.865 318.356 106.486C318.863 108.108 318.908 109.839 318.487 111.485C318.066 113.131 317.196 114.627 315.972 115.806L291.526 138.734C291.408 138.845 291.318 138.982 291.264 139.134C291.209 139.286 291.191 139.449 291.211 139.61L295.124 172.251C295.265 173.523 295.139 174.81 294.752 176.031C294.366 177.251 293.728 178.377 292.88 179.336C292.032 180.295 290.993 181.065 289.829 181.598C288.665 182.13 287.402 182.413 286.122 182.429ZM253.523 157.804C256.929 156.518 283.263 174.453 286.697 174.125C286.857 174.027 286.984 173.883 287.062 173.713C287.14 173.542 287.165 173.352 287.135 173.167L283.222 140.513C283.052 139.105 283.211 137.677 283.686 136.34C284.16 135.004 284.938 133.796 285.958 132.811L310.281 109.924C310.43 109.797 310.537 109.629 310.591 109.441C310.645 109.254 310.642 109.054 310.584 108.868C310.526 108.682 310.414 108.517 310.263 108.393C310.112 108.27 309.928 108.193 309.734 108.173L278.639 103.508C277.116 103.283 275.675 102.674 274.452 101.738C273.229 100.802 272.264 99.5706 271.649 98.1589L259.063 69.3348C258.986 69.156 258.858 69.0037 258.695 68.8967C258.532 68.7897 258.341 68.7327 258.146 68.7327C257.952 68.7327 257.761 68.7897 257.598 68.8967C257.435 69.0037 257.307 69.156 257.23 69.3348L241.443 98.7608C240.77 100.016 239.812 101.096 238.645 101.914C237.478 102.731 236.136 103.263 234.726 103.467L202.195 108.186C202.006 108.204 201.826 108.275 201.677 108.392C201.527 108.508 201.415 108.666 201.353 108.845C201.291 109.024 201.282 109.217 201.327 109.401C201.372 109.585 201.469 109.752 201.606 109.883L223.495 132.715C224.521 133.791 225.269 135.101 225.674 136.531C226.079 137.961 226.13 139.469 225.82 140.923L219.021 172.702C218.974 172.892 218.983 173.093 219.047 173.278C219.111 173.464 219.228 173.627 219.383 173.747C219.538 173.867 219.725 173.94 219.921 173.956C220.116 173.972 220.312 173.931 220.485 173.837C231.113 167.747 242.152 162.403 253.523 157.845V157.804Z" fill="white"/>
</svg>
