<svg width="288" height="73" viewBox="0 0 288 73" fill="none" xmlns="http://www.w3.org/2000/svg">
<path d="M15.5 7.79163H46.5C54.0708 7.79163 60.2088 13.9289 60.209 21.4996V52.4996C60.209 60.0705 54.0709 66.2086 46.5 66.2086H15.5C7.92925 66.2084 1.79199 60.0704 1.79199 52.4996V21.4996L1.79688 21.1461C1.98158 13.8563 7.85671 7.98121 15.1465 7.79651L15.5 7.79163Z" fill="#FF5E14" stroke="url(#paint0_linear_979_27)"/>
<mask id="mask0_979_27" style="mask-type:luminance" maskUnits="userSpaceOnUse" x="0" y="6" width="62" height="62">
<path d="M46.5 6H15.5C6.93959 6 0 12.9396 0 21.5V52.5C0 61.0604 6.93959 68 15.5 68H46.5C55.0604 68 62 61.0604 62 52.5V21.5C62 12.9396 55.0604 6 46.5 6Z" fill="white"/>
</mask>
<g mask="url(#mask0_979_27)">
<path fill-rule="evenodd" clip-rule="evenodd" d="M19.3185 55.54C17.4495 55.5437 15.9387 54.5257 15.9441 53.2663L16.0834 20.8565C16.0888 19.5971 17.6083 18.5732 19.4774 18.5695C21.3464 18.5659 22.8572 19.5839 22.8517 20.8433L22.7125 53.2531C22.7071 54.5125 21.1875 55.5364 19.3185 55.54Z" fill="#F5F5FF"/>
<path fill-rule="evenodd" clip-rule="evenodd" d="M31.2507 57.4355C29.3817 57.4391 27.8709 56.4212 27.8763 55.1618L27.9564 36.5221C27.9618 35.2627 29.4814 34.2388 31.3504 34.2352C33.2194 34.2315 34.7302 35.2495 34.7248 36.5089L34.6447 55.1486C34.6393 56.408 33.1197 57.4319 31.2507 57.4355Z" fill="#F5F5FF"/>
<path fill-rule="evenodd" clip-rule="evenodd" d="M43.2502 55.6546C41.3811 55.6591 39.8693 54.6418 39.8735 53.3824L39.9526 29.4056C39.9567 28.1463 41.4752 27.1217 43.3443 27.1172C45.2133 27.1127 46.7251 28.13 46.721 29.3894L46.6419 53.3662C46.6377 54.6255 45.1192 55.6501 43.2502 55.6546Z" fill="#F5F5FF"/>
</g>
<path d="M115.294 29.6406H105.962C105.791 28.4332 105.443 27.3608 104.918 26.4233C104.392 25.4716 103.717 24.6619 102.893 23.9943C102.07 23.3267 101.118 22.8153 100.038 22.4602C98.973 22.1051 97.8153 21.9276 96.5653 21.9276C94.3068 21.9276 92.3395 22.4886 90.6634 23.6108C88.9872 24.7187 87.6875 26.3381 86.7642 28.4688C85.8409 30.5852 85.3793 33.1562 85.3793 36.1818C85.3793 39.2926 85.8409 41.9062 86.7642 44.0227C87.7017 46.1392 89.0085 47.7372 90.6847 48.8168C92.3608 49.8963 94.2997 50.4361 96.5014 50.4361C97.7372 50.4361 98.8807 50.2727 99.9318 49.946C100.997 49.6193 101.942 49.1435 102.766 48.5185C103.589 47.8793 104.271 47.1051 104.811 46.196C105.365 45.2869 105.749 44.25 105.962 43.0852L115.294 43.1278C115.053 45.1307 114.449 47.0625 113.483 48.9233C112.531 50.7699 111.246 52.4247 109.626 53.8878C108.021 55.3366 106.104 56.4872 103.874 57.3395C101.658 58.1776 99.1506 58.5966 96.3523 58.5966C92.4602 58.5966 88.9801 57.7159 85.9119 55.9545C82.858 54.1932 80.4432 51.6435 78.6676 48.3054C76.9062 44.9673 76.0256 40.9261 76.0256 36.1818C76.0256 31.4233 76.9205 27.375 78.7102 24.0369C80.5 20.6989 82.929 18.1562 85.9972 16.4091C89.0653 14.6477 92.517 13.767 96.3523 13.767C98.8807 13.767 101.224 14.1222 103.384 14.8324C105.557 15.5426 107.482 16.5795 109.158 17.9432C110.834 19.2926 112.197 20.9474 113.249 22.9077C114.314 24.8679 114.996 27.1122 115.294 29.6406ZM136.526 58.6392C133.217 58.6392 130.354 57.9361 127.94 56.5298C125.539 55.1094 123.685 53.1349 122.379 50.6065C121.072 48.0639 120.418 45.1165 120.418 41.7642C120.418 38.3835 121.072 35.429 122.379 32.9006C123.685 30.358 125.539 28.3835 127.94 26.9773C130.354 25.5568 133.217 24.8466 136.526 24.8466C139.836 24.8466 142.691 25.5568 145.092 26.9773C147.506 28.3835 149.367 30.358 150.674 32.9006C151.981 35.429 152.634 38.3835 152.634 41.7642C152.634 45.1165 151.981 48.0639 150.674 50.6065C149.367 53.1349 147.506 55.1094 145.092 56.5298C142.691 57.9361 139.836 58.6392 136.526 58.6392ZM136.569 51.608C138.075 51.608 139.332 51.1818 140.34 50.3295C141.349 49.4631 142.109 48.2841 142.62 46.7926C143.146 45.3011 143.408 43.6037 143.408 41.7003C143.408 39.7969 143.146 38.0994 142.62 36.608C142.109 35.1165 141.349 33.9375 140.34 33.071C139.332 32.2045 138.075 31.7713 136.569 31.7713C135.049 31.7713 133.771 32.2045 132.734 33.071C131.711 33.9375 130.937 35.1165 130.411 36.608C129.9 38.0994 129.644 39.7969 129.644 41.7003C129.644 43.6037 129.9 45.3011 130.411 46.7926C130.937 48.2841 131.711 49.4631 132.734 50.3295C133.771 51.1818 135.049 51.608 136.569 51.608ZM158.536 58V25.2727H167.336V30.983H167.677C168.273 28.9517 169.275 27.4176 170.681 26.3807C172.087 25.3295 173.707 24.804 175.539 24.804C175.994 24.804 176.484 24.8324 177.009 24.8892C177.535 24.946 177.996 25.0241 178.394 25.1236V33.1776C177.968 33.0497 177.379 32.9361 176.626 32.8366C175.873 32.7372 175.184 32.6875 174.559 32.6875C173.224 32.6875 172.031 32.9787 170.979 33.5611C169.942 34.1293 169.119 34.9247 168.508 35.9474C167.911 36.9702 167.613 38.1491 167.613 39.4844V58H158.536ZM183.087 70.2727V25.2727H192.036V30.7699H192.441C192.838 29.8892 193.414 28.9943 194.167 28.0852C194.934 27.1619 195.928 26.3949 197.15 25.7841C198.385 25.1591 199.919 24.8466 201.752 24.8466C204.138 24.8466 206.34 25.4716 208.357 26.7216C210.374 27.9574 211.986 29.8253 213.194 32.3253C214.401 34.8111 215.005 37.929 215.005 41.679C215.005 45.3295 214.415 48.4119 213.236 50.9261C212.071 53.4261 210.48 55.3224 208.463 56.6151C206.461 57.8935 204.216 58.5327 201.73 58.5327C199.969 58.5327 198.471 58.2415 197.235 57.6591C196.013 57.0767 195.012 56.3452 194.23 55.4645C193.449 54.5696 192.853 53.6676 192.441 52.7585H192.164V70.2727H183.087ZM191.972 41.6364C191.972 43.5824 192.242 45.2798 192.782 46.7287C193.321 48.1776 194.103 49.3068 195.125 50.1165C196.148 50.9119 197.391 51.3097 198.854 51.3097C200.331 51.3097 201.581 50.9048 202.604 50.0952C203.627 49.2713 204.401 48.1349 204.926 46.6861C205.466 45.223 205.736 43.5398 205.736 41.6364C205.736 39.7472 205.473 38.0852 204.948 36.6506C204.422 35.2159 203.648 34.0937 202.625 33.2841C201.603 32.4744 200.346 32.0696 198.854 32.0696C197.377 32.0696 196.127 32.4602 195.104 33.2415C194.096 34.0227 193.321 35.1307 192.782 36.5653C192.242 38 191.972 39.6903 191.972 41.6364ZM235.843 58.6392C232.533 58.6392 229.671 57.9361 227.256 56.5298C224.855 55.1094 223.002 53.1349 221.695 50.6065C220.388 48.0639 219.735 45.1165 219.735 41.7642C219.735 38.3835 220.388 35.429 221.695 32.9006C223.002 30.358 224.855 28.3835 227.256 26.9773C229.671 25.5568 232.533 24.8466 235.843 24.8466C239.152 24.8466 242.007 25.5568 244.408 26.9773C246.823 28.3835 248.684 30.358 249.99 32.9006C251.297 35.429 251.951 38.3835 251.951 41.7642C251.951 45.1165 251.297 48.0639 249.99 50.6065C248.684 53.1349 246.823 55.1094 244.408 56.5298C242.007 57.9361 239.152 58.6392 235.843 58.6392ZM235.885 51.608C237.391 51.608 238.648 51.1818 239.657 50.3295C240.665 49.4631 241.425 48.2841 241.936 46.7926C242.462 45.3011 242.725 43.6037 242.725 41.7003C242.725 39.7969 242.462 38.0994 241.936 36.608C241.425 35.1165 240.665 33.9375 239.657 33.071C238.648 32.2045 237.391 31.7713 235.885 31.7713C234.365 31.7713 233.087 32.2045 232.05 33.071C231.027 33.9375 230.253 35.1165 229.728 36.608C229.216 38.0994 228.961 39.7969 228.961 41.7003C228.961 43.6037 229.216 45.3011 229.728 46.7926C230.253 48.2841 231.027 49.4631 232.05 50.3295C233.087 51.1818 234.365 51.608 235.885 51.608ZM264.266 25.2727L270.275 36.7145L276.432 25.2727H285.743L276.262 41.6364L285.999 58H276.73L270.275 46.6861L263.925 58H254.55L264.266 41.6364L254.891 25.2727H264.266Z" fill="white"/>
<defs>
<linearGradient id="paint0_linear_979_27" x1="31.0003" y1="5.99996" x2="31.0003" y2="68" gradientUnits="userSpaceOnUse">
<stop stop-color="#3E57FF" stop-opacity="0.1"/>
<stop offset="1" stop-color="white" stop-opacity="0"/>
</linearGradient>
</defs>
</svg>
