<svg width="20" height="20" viewBox="0 0 20 20" fill="none" xmlns="http://www.w3.org/2000/svg">
<path d="M10 0.78125C12.1269 0.782391 14.1881 1.51877 15.8342 2.86562C17.4804 4.21247 18.6103 6.08698 19.0326 8.17156C19.4549 10.2561 19.1435 12.4226 18.1513 14.3039C17.1591 16.1852 15.5471 17.6657 13.5883 18.4945C11.3385 19.4293 8.81016 19.4358 6.55559 18.5126C4.30101 17.5894 2.50339 15.8115 1.55536 13.5672C0.607333 11.3229 0.585946 8.79472 1.49587 6.53474C2.40579 4.27476 4.17308 2.4667 6.41172 1.50547C7.54692 1.02515 8.76737 0.778832 10 0.78125ZM10 0C4.47734 0 0 4.47734 0 10C0 15.5227 4.47734 20 10 20C15.5227 20 20 15.5227 20 10C20 4.47734 15.5227 0 10 0Z" fill="#EF6464"/>
<path d="M10 4.63984C6.65625 4.63984 3.94531 6.97578 3.94531 9.85703C3.94531 10.8668 4.27852 11.8102 4.85508 12.6078L4.39531 14.8797C4.37956 14.957 4.38704 15.0372 4.4168 15.1103C4.44657 15.1833 4.49729 15.2459 4.56258 15.2902C4.62787 15.3345 4.7048 15.3585 4.78368 15.3591C4.86257 15.3597 4.93987 15.337 5.00586 15.2937L6.66328 14.2102C7.61992 14.757 8.7668 15.0738 10 15.0738C13.3437 15.0738 16.0547 12.7379 16.0547 9.85703C16.0547 6.97617 13.3437 4.63984 10 4.63984ZM12.6254 9.72656C12.6253 9.91039 12.5522 10.0866 12.4222 10.2166C12.2922 10.3465 12.1159 10.4195 11.932 10.4195H10.6934V11.6602C10.6934 11.844 10.6203 12.0204 10.4903 12.1504C10.3602 12.2805 10.1839 12.3535 10 12.3535C9.81611 12.3535 9.63975 12.2805 9.50972 12.1504C9.37969 12.0204 9.30664 11.844 9.30664 11.6602V10.4211H8.06797C7.97682 10.4211 7.88656 10.4031 7.80236 10.3682C7.71816 10.3333 7.64167 10.2821 7.57728 10.2176C7.51288 10.1531 7.46183 10.0765 7.42705 9.99226C7.39228 9.908 7.37446 9.81771 7.37461 9.72656C7.37461 9.54267 7.44766 9.36631 7.57769 9.23628C7.70772 9.10625 7.88408 9.0332 8.06797 9.0332H9.30664V7.79609C9.30664 7.6122 9.37969 7.43584 9.50972 7.30581C9.63975 7.17578 9.81611 7.10273 10 7.10273C10.1839 7.10273 10.3602 7.17578 10.4903 7.30581C10.6203 7.43584 10.6934 7.6122 10.6934 7.79609V9.03477H11.932C12.1157 9.03476 12.2918 9.1076 12.4218 9.23729C12.5517 9.36699 12.625 9.54294 12.6254 9.72656Z" fill="#EF6464"/>
</svg>
