<svg width="92" height="87" viewBox="0 0 92 87" fill="none" xmlns="http://www.w3.org/2000/svg">
<path d="M45.0489 0.927048C45.3483 0.00573702 46.6517 0.00574011 46.9511 0.927051L57.0012 31.8582C57.1351 32.2702 57.519 32.5491 57.9522 32.5491H90.4751C91.4439 32.5491 91.8466 33.7888 91.0629 34.3582L64.7514 53.4746C64.4009 53.7293 64.2542 54.1807 64.3881 54.5927L74.4382 85.5238C74.7376 86.4451 73.6831 87.2112 72.8994 86.6418L46.5878 67.5253C46.2373 67.2707 45.7627 67.2707 45.4122 67.5253L19.1006 86.6418C18.3169 87.2112 17.2624 86.4451 17.5618 85.5238L27.6119 54.5927C27.7458 54.1807 27.5991 53.7293 27.2487 53.4746L0.93707 34.3582C0.153356 33.7888 0.556134 32.5491 1.52486 32.5491H34.0478C34.481 32.5491 34.8649 32.2702 34.9988 31.8582L45.0489 0.927048Z" fill="#FBB002"/>
</svg>
