<svg width="46" height="46" viewBox="0 0 46 46" fill="none" xmlns="http://www.w3.org/2000/svg">
<path d="M35.1263 39.5335C34.6694 39.7825 34.2061 40.0394 33.7369 40.2995C29.7668 42.5007 25.267 44.9956 20.9421 44.6094L5.62629 43.2422C5.60634 43.2404 5.58631 43.2395 5.56627 43.2395H1.35026V35.66H5.56618C5.72583 35.66 5.88037 35.6034 6.00219 35.5003C6.01414 35.4903 7.22066 34.4766 9.05742 33.5224C9.38832 33.3506 9.51715 32.9429 9.34537 32.6121C9.17341 32.2812 8.76597 32.1522 8.43499 32.3242C6.88626 33.1287 5.76276 33.9665 5.32738 34.3097H0.675176C0.302324 34.3097 0 34.6121 0 34.9849V43.9146C0 44.2875 0.302235 44.5898 0.675176 44.5898H5.53608L20.822 45.9545C21.1673 45.9853 21.5117 46 21.8563 46C26.24 46 30.5534 43.6085 34.3916 41.4806C34.8579 41.2221 35.3183 40.9668 35.7724 40.7193C36.0998 40.5408 36.2206 40.1308 36.0422 39.8034C35.8638 39.4758 35.4539 39.3551 35.1263 39.5335Z" fill="white"/>
<path d="M45.4788 32.055C44.761 31.1035 43.5103 30.7748 42.4308 31.2268C42.4032 30.795 42.257 30.3743 42.001 30.0158C41.3259 29.0708 40.0425 28.7663 39.0157 29.3075L37.41 30.1538C37.3894 29.7767 37.2782 29.4056 37.0799 29.078C36.4393 28.019 35.0856 27.6512 33.9981 28.2407L32.7979 28.8914C32.7763 28.4248 32.6182 27.97 32.3362 27.5861C31.6325 26.6285 30.3583 26.3339 29.3065 26.8856L20.6422 31.4299C19.6678 31.0558 16.5617 30.0441 12.9327 30.7197C12.3066 30.8363 11.6616 31.0048 11.0155 31.2209C10.6619 31.3391 10.471 31.7216 10.5892 32.0752C10.7075 32.4289 11.0901 32.6196 11.4436 32.5015C12.0308 32.3052 12.6149 32.1524 13.1797 32.0472C17.0538 31.3259 20.3691 32.775 20.4012 32.7893C20.4882 32.8284 20.5825 32.8486 20.6779 32.8486H29.6964C30.3372 32.8486 30.8585 33.3714 30.8585 34.014C30.8585 34.5997 30.4215 35.0967 29.8421 35.1701L18.4117 36.6178C18.0735 36.6607 17.8203 36.9488 17.8214 37.2896C17.8224 37.6304 18.0774 37.917 18.4157 37.9578L23.2703 38.543C27.9728 39.1096 32.6472 38.1924 36.7884 35.8903L42.8548 32.518C43.3884 32.2399 44.0377 32.3867 44.4008 32.8682C44.8545 33.4409 44.6573 34.3592 44.0076 34.6937L37.4986 38.2407C36.7204 38.6497 37.3874 39.8576 38.1448 39.4264L44.6537 35.8794C45.3133 35.52 45.7827 34.8924 45.9415 34.1574C46.1005 33.4218 45.9318 32.6555 45.4788 32.055ZM29.9337 28.0813C30.3899 27.8421 30.9427 27.97 31.2482 28.3857C31.6236 28.8698 31.4531 29.6377 30.9074 29.9163L27.9893 31.4984H23.4189L29.9337 28.0813ZM30.5478 31.6472L34.6416 29.4277C35.0943 29.1824 35.6577 29.3358 35.9246 29.7769C36.2154 30.2337 36.0334 30.8933 35.5487 31.1348L31.9979 33.0062C31.722 32.3772 31.1968 31.882 30.5478 31.6472ZM36.1324 34.7101C32.4189 36.7745 28.2489 37.6538 24.0357 37.2665L30.0118 36.5096C31.1205 36.3692 31.9873 35.5123 32.1719 34.4407L39.6452 30.502C40.0773 30.2742 40.6178 30.4025 40.9022 30.8006C41.2466 31.2582 41.0866 31.9723 40.5792 32.238L36.1324 34.7101Z" fill="white"/>
<path d="M15.7219 18.3446C16.4844 18.3446 17.2179 18.1797 17.902 17.8543C18.2387 17.6942 18.382 17.2914 18.2218 16.9547C18.0617 16.618 17.6591 16.4747 17.3221 16.6349C16.8206 16.8733 16.2822 16.9943 15.7219 16.9943C13.6643 16.9943 11.9904 15.3203 11.9904 13.2628C11.9904 11.2053 13.6643 9.53141 15.7219 9.53141C17.7794 9.53141 19.4533 11.2053 19.4533 13.2628C19.4533 13.8928 19.2936 14.5151 18.9915 15.0626C18.8113 15.3891 18.9298 15.7998 19.2563 15.9799C19.5829 16.1601 19.9936 16.0415 20.1736 15.7151C20.5857 14.9683 20.8036 14.1204 20.8036 13.2627C20.8036 10.4606 18.5239 8.18098 15.7219 8.18098C12.9198 8.18098 10.6401 10.4606 10.6401 13.2627C10.6401 16.0648 12.9198 18.3446 15.7219 18.3446Z" fill="white"/>
<path d="M5.17922 15.2702L6.57854 15.4805C6.80701 16.4284 7.17906 17.3263 7.68883 18.1595L6.84762 19.2983C6.45016 19.8365 6.50505 20.5703 6.97817 21.0433L7.94147 22.0066C8.4145 22.4797 9.14843 22.5346 9.68651 22.1371L10.8252 21.296C11.6584 21.8058 12.5562 22.1779 13.5042 22.4064L13.7147 23.8057C13.8141 24.4672 14.3719 24.9473 15.0407 24.9473H16.4031C17.072 24.9473 17.6298 24.4672 17.7291 23.8056L17.9395 22.4064C18.8875 22.1779 19.7853 21.8058 20.6185 21.296L21.7573 22.1372C22.2954 22.5346 23.0293 22.4798 23.5022 22.0067L24.4655 21.0434C24.9387 20.5705 24.9936 19.8366 24.5961 19.2984L23.755 18.1597C24.2647 17.3265 24.6369 16.4287 24.8653 15.4807L26.2645 15.2704C26.926 15.1709 27.4062 14.6132 27.4062 13.9442V13.9381H31.4129V22.5435C31.4129 23.4116 32.1192 24.118 32.9874 24.118H35.8718C36.1805 25.4942 37.4114 26.5259 38.8795 26.5259C40.5795 26.5259 41.9626 25.1428 41.9626 23.4427C41.9626 21.7427 40.5796 20.3595 38.8795 20.3595C37.4113 20.3595 36.1805 21.3913 35.8717 22.7676H32.9873C32.8637 22.7676 32.7632 22.6671 32.7632 22.5435V13.9381H35.8717C36.1805 15.3144 37.4113 16.3461 38.8795 16.3461C40.5795 16.3461 41.9626 14.9631 41.9626 13.263C41.9626 11.5629 40.5796 10.1798 38.8795 10.1798C37.4114 10.1798 36.1805 11.2115 35.8717 12.5877H32.7633V3.9825C32.7633 3.85887 32.8639 3.75834 32.9875 3.75834H35.8718C36.1806 5.13465 37.4115 6.16632 38.8796 6.16632C40.5797 6.16632 41.9628 4.78327 41.9628 3.08316C41.9628 1.38305 40.5796 0 38.8795 0C37.4115 0 36.1806 1.03167 35.8718 2.40799H32.9874C32.1192 2.40799 31.4129 3.11425 31.4129 3.98241V12.5876H27.4062V12.5817C27.4062 11.9128 26.9261 11.3551 26.2646 11.2556L24.8653 11.0453C24.6368 10.0973 24.2647 9.19944 23.755 8.36623L24.5961 7.22756C24.9936 6.68939 24.9387 5.95546 24.4656 5.48252L23.5023 4.51913C23.0294 4.04611 22.2955 3.9913 21.7573 4.38868L20.6186 5.22979C19.7853 4.72002 18.8875 4.34789 17.9396 4.11951L17.7292 2.72019C17.6299 2.05868 17.0721 1.57846 16.4031 1.57846H15.0407C14.3719 1.57846 13.8141 2.05859 13.7147 2.72019L13.5042 4.11951C12.5563 4.34798 11.6585 4.72002 10.8252 5.22979L9.68651 4.38868C9.14852 3.99121 8.4145 4.04602 7.94147 4.51913L6.97817 5.48235C6.50505 5.95537 6.45016 6.6893 6.84762 7.22738L7.68874 8.36605C7.17897 9.19926 6.80684 10.0972 6.57845 11.0451L5.17914 11.2554C4.51762 11.3549 4.03749 11.9126 4.03749 12.5815V13.9438C4.03749 14.6131 4.51771 15.1707 5.17922 15.2702ZM38.8795 21.7097C39.835 21.7097 40.6124 22.487 40.6124 23.4425C40.6124 24.398 39.835 25.1753 38.8795 25.1753C37.9241 25.1753 37.1467 24.398 37.1467 23.4425C37.1467 22.487 37.9241 21.7097 38.8795 21.7097ZM38.8795 11.53C39.835 11.53 40.6124 12.3073 40.6124 13.2628C40.6124 14.2183 39.835 14.9956 38.8795 14.9956C37.9241 14.9956 37.1467 14.2183 37.1467 13.2628C37.1467 12.3073 37.9241 11.53 38.8795 11.53ZM38.8795 1.35026C39.835 1.35026 40.6124 2.12759 40.6124 3.08307C40.6124 4.03856 39.835 4.81589 38.8795 4.81589C37.9241 4.81589 37.1467 4.03856 37.1467 3.08307C37.1467 2.12768 37.9241 1.35026 38.8795 1.35026ZM5.38775 12.5896L7.24096 12.311C7.52523 12.2683 7.75127 12.0503 7.80419 11.7678C8.00993 10.6705 8.43472 9.6457 9.0665 8.72165C9.22867 8.48447 9.223 8.17056 9.05221 7.93939L7.93851 6.43154L8.89058 5.47956L10.3984 6.59335C10.6295 6.76405 10.9433 6.7698 11.1806 6.60764C12.1047 5.97577 13.1296 5.55108 14.2268 5.34524C14.5092 5.29233 14.7272 5.06628 14.77 4.78201L15.0486 2.92881H16.395L16.6736 4.78201C16.7163 5.06628 16.9343 5.29233 17.2168 5.34524C18.3139 5.55099 19.3389 5.97577 20.2629 6.60764C20.5002 6.76989 20.814 6.76405 21.0452 6.59335L22.553 5.47956L23.5051 6.43154L22.3914 7.93948C22.2207 8.17056 22.215 8.48447 22.3771 8.72175C23.009 9.64579 23.4337 10.6706 23.6395 11.768C23.6925 12.0504 23.9186 12.2684 24.2027 12.3112L26.056 12.5898V13.9362L24.2027 14.2148C23.9186 14.2575 23.6925 14.4755 23.6395 14.758C23.4337 15.8553 23.009 16.8802 22.3771 17.8042C22.215 18.0414 22.2206 18.3553 22.3914 18.5864L23.5052 20.0942L22.5531 21.0463L21.0453 19.9325C20.8142 19.7618 20.5003 19.7561 20.263 19.9183C19.339 20.5502 18.3141 20.9749 17.2168 21.1807C16.9343 21.2337 16.7163 21.4598 16.6736 21.7439L16.395 23.5971H15.0486L14.77 21.7439C14.7272 21.4598 14.5092 21.2337 14.2268 21.1807C13.1294 20.9749 12.1046 20.5502 11.1805 19.9183C10.9433 19.7562 10.6295 19.7618 10.3983 19.9325L8.89049 21.0463L7.93842 20.0942L9.05221 18.5864C9.22291 18.3553 9.22867 18.0413 9.0665 17.8042C8.43463 16.8802 8.00993 15.8553 7.80419 14.7581C7.75118 14.4756 7.52523 14.2575 7.24096 14.2149L5.38775 13.9363V12.5896Z" fill="white"/>
</svg>
