<svg width="45" height="50" viewBox="0 0 45 50" fill="none" xmlns="http://www.w3.org/2000/svg">
<path d="M19.0554 42.3746C18.6508 42.3746 18.3229 42.7026 18.3229 43.107V49.2675C18.3229 49.672 18.6508 49.9999 19.0554 49.9999C19.46 49.9999 19.7878 49.672 19.7878 49.2675V43.107C19.7878 42.7025 19.4599 42.3746 19.0554 42.3746Z" fill="white"/>
<path d="M8.36935 43.0813C7.96574 43.0476 7.61203 43.3466 7.57804 43.7497L7.11925 49.2061C7.08537 49.6091 7.38468 49.9634 7.78771 49.9973C7.80861 49.999 7.82941 49.9999 7.85002 49.9999C8.22668 49.9999 8.54689 49.7111 8.57902 49.3288L9.03781 43.8725C9.0716 43.4695 8.77238 43.1152 8.36935 43.0813Z" fill="white"/>
<path d="M19.0554 25.6618C19.7771 25.6618 20.4732 25.3584 20.9652 24.8292C21.2407 24.533 21.2238 24.0695 20.9276 23.794C20.6314 23.5186 20.168 23.5354 19.8925 23.8317C19.6734 24.0672 19.3762 24.1969 19.0554 24.1969C18.7346 24.1969 18.4372 24.0671 18.2182 23.8316C17.9428 23.5354 17.4794 23.5185 17.1829 23.7941C16.8868 24.0696 16.87 24.533 17.1454 24.8293C17.6375 25.3583 18.3337 25.6618 19.0554 25.6618Z" fill="white"/>
<path d="M43.7052 29.8975C43.508 29.5444 43.062 29.418 42.7086 29.6151C42.3555 29.8122 42.2291 30.2584 42.4261 30.6117C43.0402 31.7114 43.3647 32.9629 43.3647 34.2311C43.3647 36.7359 42.1146 39.0568 40.0209 40.4394C38.9205 41.1659 38.1936 42.3091 37.9914 43.5877H33.8672C33.6675 42.3057 32.9485 41.1677 31.8596 40.4546C29.8057 39.1092 28.5476 36.8444 28.4944 34.3961C28.4054 30.3027 31.6594 26.8938 35.7481 26.7972C37.4274 26.7574 39.0181 27.2624 40.3575 28.2572C40.6822 28.4984 41.141 28.4306 41.3822 28.1059C41.6234 27.7812 41.5555 27.3224 41.2308 27.0812C39.6269 25.89 37.7203 25.2853 35.7134 25.3328C31.4291 25.434 27.9103 28.5728 27.1709 32.6397H23.7362V28.7446C26.4516 27.7249 28.4331 25.1965 28.6573 22.1856H30.3118C32.3947 22.1856 34.0893 20.491 34.0893 18.4081V16.2218C34.0893 14.1388 32.3947 12.4443 30.3118 12.4443H30.0257C30.1662 12.1312 30.2441 11.784 30.2441 11.4189V6.64159C30.2441 4.04238 28.13 1.92773 25.5311 1.92773H24.8296C24.5427 1.41924 24.1427 0.984373 23.6537 0.653221C23.0227 0.225878 22.2867 0 21.5255 0H9.76466C8.69474 0 7.82434 0.870018 7.82434 1.93945V11.4189C7.82434 11.7827 7.90412 12.1302 8.04728 12.4443H7.79875C5.71574 12.4443 4.02112 14.1389 4.02112 16.2218V18.4081C4.02112 20.4911 5.71574 22.1856 7.79875 22.1856H9.45324C9.67755 25.1968 11.6594 27.7253 14.3751 28.7449V32.6397H8.78625C5.40139 32.6397 2.51478 35.0586 1.92259 38.3913L0.0114595 49.1393C-0.0594388 49.5375 0.20599 49.9178 0.604329 49.9886C0.647591 49.9963 0.690853 50 0.733333 50C1.08157 50 1.39046 49.7506 1.45355 49.3957L3.36468 38.6476C3.83245 36.0151 6.11252 34.1044 8.78615 34.1044H14.374V49.2675C14.374 49.672 14.7019 49.9999 15.1065 49.9999C15.511 49.9999 15.8389 49.672 15.8389 49.2675V40.2852L18.3229 37.5917V39.6724C18.3229 40.0769 18.6508 40.4048 19.0554 40.4048C19.46 40.4048 19.7878 40.0769 19.7878 39.6724V37.5913L22.2716 40.2852V49.2676C22.2716 49.6721 22.5994 50 23.004 50C23.4086 50 23.7364 49.6721 23.7364 49.2676V34.1044H27.0295C26.9632 37.0645 28.5277 40.0505 31.0571 41.68C31.9344 42.2547 32.4584 43.2411 32.4588 44.3191V47.6102C32.4588 48.9279 33.5309 50 34.8487 50H37.009C38.3268 50 39.3989 48.9279 39.3989 47.6102V44.3201C39.3989 43.2467 39.9333 42.2529 40.8283 41.6618C43.3338 40.0073 44.8298 37.2294 44.8298 34.2312C44.8296 32.7135 44.4408 31.215 43.7052 29.8975ZM32.6246 16.2218V18.4081C32.6246 19.6834 31.5871 20.7208 30.3119 20.7208H28.681V13.9092H30.3119C31.5871 13.9092 32.6246 14.9466 32.6246 16.2218ZM9.28918 1.93945C9.28918 1.67773 9.50255 1.46484 9.76466 1.46484H21.5255C21.9928 1.46484 22.4448 1.60361 22.8326 1.86621C23.2199 2.12851 23.5164 2.49697 23.69 2.93183C23.8012 3.21015 24.0705 3.39267 24.3702 3.39267H25.5313C27.3223 3.39267 28.7795 4.85019 28.7795 6.64169V11.419C28.7795 11.6984 28.6683 11.9519 28.4869 12.1373C27.8677 9.91942 25.8304 8.28709 23.4177 8.28709C23.0131 8.28709 22.6852 8.61502 22.6852 9.01951C22.6852 9.42401 23.0131 9.75194 23.4177 9.75194C25.5122 9.75194 27.2163 11.456 27.2163 13.5506V14.5372C26.414 13.802 25.346 13.3526 24.1747 13.3526C22.1267 13.3526 20.3946 14.7263 19.8485 16.6004C19.4623 16.4486 18.8837 16.355 18.2618 16.5991C17.7152 14.7258 15.9835 13.3526 13.9359 13.3526C12.7647 13.3526 11.6967 13.802 10.8944 14.5372V13.5506C10.8944 11.4559 12.5985 9.75194 14.6931 9.75194H19.9727C20.3773 9.75194 20.7052 9.42401 20.7052 9.01951C20.7052 8.61502 20.3773 8.28709 19.9727 8.28709H14.6931C12.2696 8.28709 10.2247 9.93387 9.61545 12.1668C9.41476 11.9787 9.28908 11.7118 9.28908 11.419L9.28918 1.93945ZM27.2162 17.8589C27.2162 19.5359 25.8517 20.9004 24.1746 20.9004C22.4975 20.9004 21.1331 19.5359 21.1331 17.8589C21.1331 16.1818 22.4975 14.8174 24.1746 14.8174C25.8518 14.8175 27.2162 16.1818 27.2162 17.8589ZM13.9359 20.9004C12.2589 20.9004 10.8944 19.536 10.8944 17.859C10.8944 16.1819 12.2589 14.8175 13.9359 14.8175C15.6131 14.8175 16.9775 16.1818 16.9775 17.859C16.9775 19.5361 15.6131 20.9004 13.9359 20.9004ZM18.4424 18.5156C18.4424 18.18 18.7153 17.9071 19.06 17.9071C19.3955 17.9071 19.6684 18.18 19.6684 18.5156V20.601C19.6684 20.9366 19.3954 21.2095 19.06 21.2095H19.0508C18.7152 21.2095 18.4424 20.9366 18.4424 20.601V18.5156ZM5.48606 18.4081V16.2218C5.48606 14.9466 6.52356 13.9092 7.79885 13.9092H9.4297V20.7208H7.79885C6.52356 20.7208 5.48606 19.6833 5.48606 18.4081ZM10.8944 21.6153C10.8944 21.5405 10.8944 21.3613 10.8944 21.1806C11.6966 21.9158 12.7647 22.3652 13.9359 22.3652C15.1406 22.3652 16.2355 21.8891 17.0449 21.1163C17.2749 22.0106 18.0857 22.6744 19.0508 22.6744H19.06C20.025 22.6744 20.8357 22.0106 21.0658 21.1164C21.8751 21.8891 22.97 22.3652 24.1747 22.3652C25.346 22.3652 26.414 21.9158 27.2163 21.1806C27.4401 24.6915 24.6224 27.7747 21.0682 27.7634H17.0427C13.6525 27.7634 10.8944 25.0054 10.8944 21.6153ZM17.0427 29.2283H21.0682C21.4776 29.2283 21.8794 29.1948 22.2716 29.1322V32.955L19.0558 34.8649L15.8399 32.955V29.1323C16.2319 29.1949 16.6334 29.2283 17.0427 29.2283ZM15.8389 34.6582L17.9043 35.8849L15.8389 38.1244V34.6582ZM20.207 35.8849L22.2716 34.6588V38.1241L20.207 35.8849ZM37.9338 47.6101C37.9338 48.1201 37.5189 48.5351 37.0089 48.5351H34.8485C34.3383 48.5351 33.9234 48.1201 33.9234 47.6101V45.0526H37.9338L37.9338 47.6101Z" fill="white"/>
<path d="M40.1435 31.2074C39.7791 31.0324 39.3414 31.186 39.1663 31.5506L37.4046 35.2198L35.1256 33.4332C34.9532 33.2981 34.7296 33.2473 34.5158 33.2945C34.302 33.3416 34.1205 33.4821 34.0212 33.6771L32.245 37.1627C32.0613 37.5232 32.2047 37.9642 32.565 38.1479C32.6716 38.2022 32.7851 38.2279 32.8969 38.2279C33.1635 38.2279 33.4207 38.0817 33.5501 37.8279L34.9221 35.1351L37.2182 36.9351C37.3929 37.072 37.6204 37.1222 37.8364 37.072C38.0526 37.0215 38.2342 36.8758 38.3303 36.6757L40.4867 32.1848C40.6619 31.8201 40.5083 31.3825 40.1435 31.2074Z" fill="white"/>
</svg>
