<svg width="47" height="50" viewBox="0 0 47 50" fill="none" xmlns="http://www.w3.org/2000/svg">
<path d="M18.4845 10.4317L17.4593 15.4101C17.3974 15.7105 17.5171 16.0195 17.7653 16.1998C18.0135 16.3801 18.3442 16.3985 18.6109 16.2468L23.0289 13.7334L27.4468 16.2468C27.567 16.3151 27.7003 16.3489 27.8331 16.3489C27.995 16.3489 28.1562 16.2987 28.2925 16.1997C28.5408 16.0194 28.6604 15.7104 28.5985 15.41L27.5734 10.4316L31.3289 7.00653C31.5556 6.79975 31.6403 6.47948 31.5456 6.18773C31.4508 5.89598 31.194 5.68666 30.889 5.65258L25.8375 5.0891L23.7408 0.459067C23.6142 0.179524 23.3357 0 23.0289 0C22.7221 0 22.4437 0.179524 22.3171 0.459067L20.2202 5.08929L15.1687 5.65277C14.8638 5.68676 14.607 5.89608 14.5122 6.18793C14.4173 6.47977 14.5021 6.80005 14.7288 7.00672L18.4845 10.4317ZM20.8353 6.59308C21.1092 6.5625 21.3468 6.38991 21.4605 6.13889L23.0289 2.67548L24.5974 6.1388C24.7111 6.38982 24.9486 6.56241 25.2226 6.59298L29.0012 7.01444L26.192 9.57633C25.9883 9.762 25.8976 10.0414 25.9532 10.3112L26.72 14.0351L23.4154 12.1551C23.2956 12.087 23.1623 12.0529 23.029 12.0529C22.8957 12.0529 22.7625 12.087 22.6426 12.1551L19.338 14.0351L20.1049 10.3113C20.1604 10.0414 20.0697 9.7621 19.8661 9.57642L17.0569 7.01454L20.8353 6.59308ZM2.34348 17.3014C2.28155 17.602 2.4013 17.9108 2.64949 18.0911C2.89768 18.2714 3.2284 18.2899 3.49515 18.1381L6.87447 16.2156L10.2538 18.1381C10.374 18.2065 10.5072 18.2403 10.6401 18.2403C10.8019 18.2403 10.9632 18.1901 11.0994 18.091C11.3477 17.9107 11.4674 17.6018 11.4055 17.3013L10.6213 13.4933L13.4939 10.8735C13.7206 10.6668 13.8053 10.3465 13.7106 10.0547C13.6158 9.76298 13.3589 9.55367 13.054 9.51958L9.19012 9.08854L7.58631 5.54709C7.45973 5.26764 7.18136 5.08802 6.87447 5.08802C6.56758 5.08802 6.28921 5.26755 6.16262 5.54709L4.55872 9.08874L0.694845 9.51968C0.389907 9.55367 0.133123 9.76298 0.0382817 10.0548C-0.0565595 10.3467 0.0282213 10.667 0.254922 10.8736L3.12751 13.4934L2.34348 17.3014ZM2.58288 10.8816L5.17377 10.5926C5.44775 10.562 5.68529 10.3895 5.79898 10.1384L6.87447 7.7636L7.94995 10.1383C8.06365 10.3894 8.30119 10.562 8.57516 10.5925L11.1661 10.8815L9.23983 12.6382C9.03618 12.824 8.94544 13.1032 9.00102 13.3731L9.5268 15.9266L7.26087 14.6375C7.14102 14.5693 7.00779 14.5353 6.87447 14.5353C6.74114 14.5353 6.60792 14.5694 6.48807 14.6375L4.22214 15.9267L4.74791 13.3732C4.80349 13.1032 4.71275 12.824 4.5091 12.6383L2.58288 10.8816ZM46.0195 10.0548C45.9246 9.76308 45.6678 9.55376 45.3629 9.51968L41.499 9.08864L39.8952 5.54709C39.7686 5.26764 39.4903 5.08802 39.1834 5.08802C38.8765 5.08802 38.5981 5.26755 38.4715 5.54709L36.8676 9.08874L33.0038 9.51977C32.6988 9.55376 32.442 9.76308 32.3472 10.0549C32.2524 10.3468 32.3371 10.667 32.5638 10.8737L35.4364 13.4935L34.6523 17.3015C34.5904 17.6021 34.7101 17.9109 34.9583 18.0912C35.2065 18.2715 35.5372 18.29 35.804 18.1382L39.1833 16.2157L42.5626 18.1382C42.6828 18.2066 42.8161 18.2404 42.9489 18.2404C43.1107 18.2404 43.272 18.1902 43.4083 18.0911C43.6565 17.9108 43.7762 17.6019 43.7143 17.3014L42.9301 13.4934L45.8027 10.8736C46.0295 10.6669 46.1143 10.3466 46.0195 10.0548ZM41.5487 12.6383C41.3451 12.8241 41.2544 13.1033 41.3099 13.3732L41.8357 15.9267L39.5698 14.6376C39.4499 14.5694 39.3167 14.5354 39.1834 14.5354C39.0501 14.5354 38.9168 14.5695 38.797 14.6376L36.5311 15.9267L37.0568 13.3732C37.1124 13.1032 37.0217 12.824 36.818 12.6383L34.8918 10.8816L37.4827 10.5927C37.7567 10.5621 37.9942 10.3896 38.1079 10.1385L39.1834 7.7637L40.2589 10.1385C40.3726 10.3896 40.6101 10.5621 40.8841 10.5927L43.475 10.8817L41.5487 12.6383ZM39.7052 20.7703C39.5407 20.3459 39.0074 20.1498 38.608 20.3638L34.6707 22.4712C33.7688 22.9405 32.8372 22.6022 31.3922 22.0115C29.4128 21.2023 26.7325 20.1096 23.2425 22.2739C20.7048 20.7724 18.5369 21.2831 16.7761 21.699C15.421 22.0192 14.3507 22.272 13.3158 21.6895C13.2975 21.6793 13.2789 21.6697 13.2599 21.661L8.11639 19.2881C7.72667 19.1083 7.26458 19.2767 7.08193 19.6652C7.08193 19.6652 1.72003 31.0735 1.70977 31.0955C1.52175 31.4955 1.71563 31.9873 2.1241 32.1523C2.19336 32.1822 6.92203 34.3107 7.3729 34.4859C7.7508 34.6325 7.8683 35.0664 8.03014 35.9533C8.11668 36.4279 8.20576 36.9144 8.4057 37.3569L7.63544 38.797C6.84995 40.2657 7.40571 42.0996 8.87444 42.8851C9.32676 43.1271 9.81376 43.2417 10.294 43.2417C10.3596 43.2417 10.425 43.2394 10.4902 43.2352C10.2414 44.5035 10.8316 45.8412 12.0293 46.4818C12.9088 46.9522 14.1337 46.9204 14.9914 46.4168C15.2508 47.0322 15.7138 47.5661 16.3473 47.905C17.1833 48.3522 18.204 48.3723 19.061 47.9709C19.3002 48.6675 19.7919 49.2792 20.4911 49.6532C21.8003 50.3535 23.5092 49.9659 24.3789 48.7372L25.4419 49.3218C25.9024 49.5751 26.4006 49.6952 26.8925 49.6952C27.9592 49.6952 28.9949 49.1297 29.5443 48.1309C29.8947 47.4939 29.9895 46.7832 29.8633 46.1178C30.8683 46.0607 31.8237 45.5043 32.3435 44.5592C32.6383 44.0232 32.7503 43.4332 32.7012 42.8612C32.842 42.8812 32.9833 42.8923 33.1242 42.8923C34.1909 42.8923 35.2265 42.3267 35.7759 41.3279C36.1097 40.7212 36.2088 40.0452 36.1053 39.4046C36.3631 39.3998 36.6228 39.3627 36.8787 39.2901C37.6657 39.0664 38.3153 38.5503 38.7076 37.837C39.043 37.2272 39.1408 36.5453 39.0322 35.8995L43.9479 33.8036C44.3356 33.6384 44.5223 33.1954 44.37 32.8025C44.3696 32.8026 39.7202 20.8088 39.7052 20.7703ZM9.61129 41.5072C8.90247 41.1282 8.63426 40.2431 9.01333 39.5341C9.01333 39.5341 10.4344 36.8772 10.4353 36.8756C10.8084 36.1781 11.7134 35.906 12.4095 36.2783C13.1066 36.651 13.3789 37.5541 13.0064 38.2507L11.5819 40.9136C11.2014 41.6191 10.3187 41.8856 9.61129 41.5072ZM13.8759 45.211C13.5015 45.3246 13.1075 45.2864 12.7662 45.104C12.0574 44.7248 11.7892 43.8398 12.1683 43.1309C12.1683 43.1309 14.0978 39.5237 14.0987 39.522C14.4596 38.8473 15.3952 38.5708 16.0693 38.9312C16.7658 39.3036 17.0384 40.2072 16.6661 40.9036L14.7394 44.5059C14.5568 44.8472 14.2502 45.0976 13.8759 45.211ZM18.1938 46.6341C17.8193 46.7474 17.4253 46.7095 17.0842 46.5271C16.3754 46.148 16.1072 45.2628 16.4862 44.5539L18.0441 41.6407V41.6406C18.2266 41.2994 18.5332 41.0491 18.9075 40.9357C19.2819 40.8222 19.6761 40.8603 20.0184 41.0434C20.3579 41.2242 20.6075 41.5297 20.7212 41.9037C20.8354 42.2795 20.7978 42.6744 20.6152 43.0158L19.0572 45.9291C18.8748 46.2703 18.5681 46.5207 18.1938 46.6341ZM22.3375 48.3824C21.9631 48.4959 21.5691 48.4578 21.2278 48.2754C20.519 47.8963 20.2508 47.0112 20.6299 46.3022C20.6299 46.3022 21.9923 43.7546 21.9932 43.7529C22.3668 43.0542 23.269 42.7819 23.9674 43.1557C24.652 43.5222 24.9392 44.4267 24.5642 45.1281L23.2008 47.6775C23.0186 48.0187 22.7119 48.269 22.3375 48.3824ZM28.1748 47.3778C27.7874 48.0821 26.8992 48.3399 26.1947 47.9525L25.1371 47.3709L25.9424 45.865C26.1421 45.4916 26.2578 45.0882 26.2892 44.6769L27.5911 45.3928L27.5981 45.3967C28.3024 45.7867 28.5611 46.6754 28.1748 47.3778ZM37.3379 37.0839C36.9645 37.7628 36.0439 38.046 35.3658 37.6629L29.8139 34.527C29.4383 34.3146 28.9615 34.4473 28.7493 34.823C28.537 35.1988 28.6696 35.6754 29.0453 35.8877C29.0453 35.8877 33.8058 38.5804 33.8249 38.5911C34.5291 38.9876 34.7899 39.8774 34.4064 40.5749C34.019 41.2792 33.1307 41.537 32.4264 41.1496L26.3787 37.7699C26.0027 37.5582 25.5261 37.6914 25.3145 38.0676C25.1028 38.4437 25.2362 38.9202 25.6122 39.1318L30.3925 41.8222C31.0968 42.2187 31.3576 43.1085 30.974 43.806C30.5866 44.5102 29.6985 44.7682 28.9941 44.3807L25.596 42.5019C25.3509 42.2078 25.05 41.9612 24.7036 41.7768C23.9943 41.3975 23.1775 41.3178 22.4037 41.5522C22.3547 41.567 22.3063 41.583 22.2585 41.6001C22.2459 41.5496 22.232 41.4992 22.2168 41.4489C21.9815 40.6752 21.4618 40.0413 20.7546 39.6645C20.0454 39.2852 19.2284 39.2053 18.4547 39.4399C18.4056 39.4547 18.3572 39.4707 18.3093 39.4878C18.2967 39.4373 18.2829 39.3869 18.2676 39.3367C18.0323 38.563 17.5127 37.929 16.8053 37.5522C16.1431 37.1981 15.4069 37.1174 14.7257 37.2693C14.7059 37.073 14.6667 36.877 14.6079 36.6836C14.3726 35.9099 13.8529 35.2759 13.1456 34.8992C12.4363 34.5199 11.6196 34.44 10.8457 34.6746C10.3365 34.8289 9.888 35.1074 9.53227 35.4814C9.36505 34.5919 9.08854 33.475 7.93853 33.0286C7.48864 32.8538 5.03791 31.7495 3.72136 31.1563C3.62633 31.1135 3.54037 31.0747 3.46263 31.0397L8.1663 21.0318L12.5781 23.0671C14.1349 23.9284 15.6601 23.5681 17.1355 23.2196C18.6613 22.8592 20.1156 22.5157 21.8329 23.2956C21.4333 23.6272 21.0353 23.9917 20.6427 24.3886C19.1304 25.9168 17.1974 27.3597 14.8976 28.6771C14.7051 28.7874 14.5685 28.9742 14.522 29.1912C14.4755 29.4081 14.5233 29.6345 14.6536 29.814C17.6733 33.975 21.2454 32.5288 24.1157 31.3669C26.0269 30.5931 27.6775 29.9249 29.0084 30.6834L36.7532 35.0977C37.457 35.4995 37.7194 36.3902 37.3379 37.0839ZM38.3904 34.4742C38.157 34.1853 37.8674 33.9346 37.5268 33.7404L29.7821 29.3262C29.1043 28.9399 28.4062 28.7871 27.6968 28.7871C26.3244 28.7871 24.9111 29.3592 23.5291 29.9186C20.9038 30.9814 18.6085 31.9108 16.4633 29.5684C18.5431 28.3067 20.3198 26.9367 21.7533 25.4882C22.3845 24.8503 23.0256 24.3049 23.6587 23.8674C26.6844 21.7756 28.777 22.6309 30.8009 23.4582C32.2762 24.0612 33.8018 24.6849 35.3999 23.8534L38.5671 22.1583L42.6391 32.6627L38.3904 34.4742Z" fill="white"/>
</svg>
