<svg width="34" height="43" viewBox="0 0 34 43" fill="none" xmlns="http://www.w3.org/2000/svg">
<path d="M30.4502 25.4692C30.4312 25.3963 30.3982 25.3279 30.353 25.268C30.3078 25.2081 30.2514 25.1579 30.187 25.1202L29.2432 24.5675C29.8448 23.3987 30.4063 22.1996 30.9136 20.9896C32.8377 16.3982 35.6381 7.65613 32.7756 0.692261C32.729 0.579316 32.6481 0.484446 32.5446 0.421505C32.4411 0.358565 32.3206 0.33085 32.2005 0.342408C26.5872 0.890916 20.7062 5.03581 15.6391 12.0165C14.8691 13.0765 14.1351 14.1832 13.4461 15.3122L12.523 14.7725C12.4588 14.7348 12.388 14.7104 12.3145 14.7006C12.241 14.6908 12.1663 14.6958 12.0948 14.7153L6.19599 16.3197C6.05131 16.3591 5.92795 16.4552 5.85297 16.5868L0.0758496 26.7447C0.0386916 26.8099 0.0145659 26.8819 0.0048541 26.9566C-0.00485773 27.0313 3.47901e-05 27.1072 0.0192513 27.1799C0.0384678 27.2527 0.0716311 27.3209 0.116843 27.3806C0.162055 27.4403 0.218429 27.4904 0.282737 27.528L3.6281 29.4881C3.70718 29.5342 3.79606 29.5603 3.88718 29.5641C3.9783 29.5679 4.06898 29.5493 4.15153 29.51L8.25369 27.5427C8.13039 28.1235 8.03635 28.7103 7.97191 29.3008C7.96034 29.4111 7.98057 29.5225 8.03015 29.6213C8.07973 29.7202 8.15652 29.8023 8.2512 29.8577L8.41671 29.9547L7.79895 31.0396C7.54828 31.4816 7.48039 32.0065 7.61013 32.4992C7.73987 32.992 8.05668 33.4125 8.49119 33.6687L16.0798 38.1143C16.3667 38.2836 16.6926 38.3727 17.0245 38.3726C17.3576 38.3729 17.6849 38.2843 17.9736 38.1157C18.2623 37.947 18.5022 37.7042 18.6692 37.4117L19.2862 36.3256L19.565 36.4894C19.6597 36.5449 19.7682 36.5713 19.8773 36.5654C19.9865 36.5595 20.0916 36.5216 20.1799 36.4562C20.6167 36.131 21.0366 35.7832 21.4382 35.4142L21.799 39.8514C21.8065 39.9437 21.836 40.0327 21.8849 40.1109C21.9337 40.1891 22.0005 40.2541 22.0795 40.3004L25.4266 42.263C25.5123 42.3133 25.6097 42.3398 25.7088 42.3398C25.7581 42.34 25.8072 42.3333 25.8548 42.3201C25.9265 42.3007 25.9936 42.2672 26.0525 42.2215C26.1114 42.1757 26.1608 42.1186 26.1978 42.0534L31.9745 31.8942C32.0494 31.7625 32.0698 31.6061 32.0312 31.4591L30.4502 25.4692ZM3.93678 28.3449L1.33496 26.8216L6.71403 17.3642L12.1618 15.8829L12.8652 16.2933C11.0448 19.3705 9.61291 22.668 8.60332 26.108L3.93678 28.3449ZM17.6919 36.838C17.5901 37.0163 17.4228 37.1463 17.2267 37.1995C17.0306 37.2528 16.8217 37.2248 16.6459 37.1219L9.05723 32.6767C8.88152 32.5729 8.75343 32.4028 8.70094 32.2034C8.64845 32.0041 8.67583 31.7918 8.77711 31.6128L9.39487 30.528L18.3084 35.7523L17.6919 36.838ZM19.8071 35.3071L9.13751 29.0538C9.72796 24.5469 12.6687 18.0375 16.5474 12.6952C19.3164 8.88335 24.9437 2.44068 31.8881 1.53224C35.9741 12.4491 26.4602 30.0828 19.8071 35.3071ZM25.5015 40.9837L22.8996 39.4579L22.4888 34.3869C24.9276 31.7352 27.0184 28.7745 28.709 25.5784L29.4199 25.9955L30.8797 31.5263L25.5015 40.9837ZM24.3061 21.0799C25.1472 20.8512 25.9027 20.3745 26.477 19.7101C27.0512 19.0456 27.4185 18.2232 27.5324 17.3469C27.6463 16.4706 27.5016 15.5797 27.1167 14.7869C26.7317 13.994 26.1239 13.3348 25.3699 12.8926C24.7853 12.5508 24.1311 12.35 23.4579 12.3056C22.7847 12.2612 22.1104 12.3744 21.4872 12.6366C20.8639 12.8987 20.3083 13.3026 19.8633 13.8173C19.4183 14.3319 19.0957 14.9435 18.9205 15.6048C18.7453 16.2661 18.7222 16.9594 18.8529 17.6312C18.9836 18.303 19.2646 18.9353 19.6743 19.4793C20.084 20.0234 20.6114 20.4646 21.2158 20.7689C21.8201 21.0732 22.4853 21.2325 23.1599 21.2344C23.547 21.2341 23.9323 21.1821 24.3061 21.0799ZM20.0028 17.6238C19.8061 16.881 19.8693 16.0919 20.1816 15.391C20.4939 14.6902 21.0359 14.121 21.7154 13.7804C22.3949 13.4398 23.1697 13.3489 23.9078 13.5232C24.6458 13.6975 25.3015 14.1262 25.7631 14.7363C26.2246 15.3464 26.4635 16.1 26.4389 16.8688C26.4143 17.6376 26.1278 18.3739 25.6282 18.9523C25.1287 19.5307 24.447 19.9154 23.6993 20.0407C22.9516 20.1661 22.1842 20.0244 21.528 19.6397C21.1555 19.4224 20.8291 19.1324 20.5676 18.7864C20.3061 18.4404 20.1147 18.0453 20.0045 17.6238H20.0028ZM9.90671 36.6032L9.14578 37.9379C9.10974 38.0052 9.06078 38.0644 9.00182 38.1121C8.94285 38.1599 8.87506 38.1951 8.80245 38.2158C8.72984 38.2365 8.65388 38.2423 8.57905 38.2327C8.50422 38.2231 8.43203 38.1984 8.36675 38.1601C8.30148 38.1217 8.24442 38.0705 8.19897 38.0094C8.15351 37.9483 8.12057 37.8786 8.10209 37.8044C8.0836 37.7302 8.07995 37.653 8.09135 37.5773C8.10275 37.5016 8.12896 37.429 8.16845 37.3638L8.93062 36.0295C8.96688 35.9627 9.01591 35.9039 9.07485 35.8565C9.13378 35.8092 9.20142 35.7743 9.27382 35.7538C9.34622 35.7333 9.42191 35.7278 9.49647 35.7374C9.57102 35.747 9.64293 35.7716 9.708 35.8098C9.77306 35.8479 9.82996 35.8989 9.87537 35.9597C9.92078 36.0205 9.95378 36.0898 9.97244 36.1637C9.9911 36.2376 9.99505 36.3146 9.98405 36.39C9.97304 36.4655 9.94732 36.5379 9.90837 36.6032H9.90671ZM11.8788 37.7619L11.1182 39.0967C11.0822 39.1639 11.0332 39.2232 10.9743 39.2709C10.9153 39.3186 10.8475 39.3539 10.7749 39.3746C10.7023 39.3953 10.6263 39.401 10.5515 39.3915C10.4767 39.3819 10.4045 39.3572 10.3392 39.3189C10.2739 39.2805 10.2169 39.2293 10.1714 39.1682C10.126 39.1071 10.093 39.0374 10.0745 38.9632C10.0561 38.8889 10.0524 38.8117 10.0638 38.736C10.0752 38.6604 10.1014 38.5878 10.1409 38.5225L10.9014 37.1882C10.9385 37.1231 10.9879 37.066 11.0468 37.0202C11.1056 36.9745 11.1728 36.9409 11.2444 36.9215C11.316 36.9021 11.3907 36.8972 11.4642 36.9071C11.5377 36.9169 11.6085 36.9414 11.6727 36.9791C11.7369 37.0167 11.7931 37.0669 11.8382 37.1266C11.8833 37.1863 11.9163 37.2545 11.9355 37.3272C11.9546 37.3999 11.9594 37.4757 11.9497 37.5503C11.94 37.6249 11.9159 37.6968 11.8788 37.7619ZM13.8545 38.9169L13.0932 40.2516C13.0148 40.376 12.8921 40.4649 12.7508 40.4997C12.6094 40.5346 12.4603 40.5127 12.3344 40.4387C12.2085 40.3647 12.1156 40.2442 12.0751 40.1024C12.0345 39.9606 12.0494 39.8084 12.1167 39.6775L12.8772 38.3428C12.9543 38.2155 13.0773 38.1237 13.22 38.0871C13.3627 38.0505 13.5139 38.0719 13.6413 38.1467C13.7688 38.2216 13.8623 38.344 13.9022 38.4878C13.942 38.6317 13.9249 38.7857 13.8545 38.9169Z" fill="#87AB42"/>
</svg>
