<svg width="44" height="44" viewBox="0 0 44 44" fill="none" xmlns="http://www.w3.org/2000/svg">
<path d="M14.8923 33.93C14.8923 33.1328 14.6541 32.3534 14.2078 31.6905C13.7615 31.0276 13.1272 30.511 12.3851 30.2059C11.6429 29.9008 10.8263 29.821 10.0384 29.9765C9.25054 30.132 8.52684 30.5159 7.95883 31.0797C7.39081 31.6434 7.00399 32.3617 6.84727 33.1436C6.69056 33.9255 6.77099 34.736 7.0784 35.4726C7.38581 36.2092 7.90638 36.8387 8.5743 37.2816C9.24222 37.7246 10.0275 37.961 10.8308 37.961C11.908 37.961 12.941 37.5363 13.7027 36.7803C14.4644 36.0244 14.8923 34.9991 14.8923 33.93ZM8.12308 33.93C8.12308 33.3985 8.28188 32.8789 8.57941 32.437C8.87693 31.9951 9.29981 31.6507 9.79458 31.4473C10.2893 31.2439 10.8338 31.1906 11.359 31.2943C11.8843 31.398 12.3667 31.654 12.7454 32.0298C13.1241 32.4056 13.382 32.8845 13.4864 33.4057C13.5909 33.927 13.5373 34.4674 13.3323 34.9584C13.1274 35.4494 12.7804 35.8691 12.3351 36.1644C11.8898 36.4597 11.3663 36.6173 10.8308 36.6173C10.1126 36.6173 9.42393 36.3342 8.91614 35.8302C8.40835 35.3263 8.12308 34.6427 8.12308 33.93Z" fill="#87AB42"/>
<path d="M25.7231 33.93C25.7231 33.1328 25.4849 32.3534 25.0386 31.6905C24.5923 31.0276 23.958 30.511 23.2158 30.2059C22.4737 29.9008 21.657 29.821 20.8692 29.9765C20.0813 30.132 19.3576 30.5159 18.7896 31.0797C18.2216 31.6434 17.8348 32.3617 17.678 33.1436C17.5213 33.9255 17.6018 34.736 17.9092 35.4726C18.2166 36.2092 18.7372 36.8387 19.4051 37.2816C20.073 37.7246 20.8582 37.961 21.6615 37.961C22.7387 37.961 23.7718 37.5363 24.5335 36.7803C25.2952 36.0244 25.7231 34.9991 25.7231 33.93ZM18.9538 33.93C18.9538 33.3985 19.1126 32.8789 19.4102 32.437C19.7077 31.9951 20.1306 31.6507 20.6253 31.4473C21.1201 31.2439 21.6645 31.1906 22.1898 31.2943C22.715 31.398 23.1975 31.654 23.5762 32.0298C23.9548 32.4056 24.2127 32.8845 24.3172 33.4057C24.4217 33.927 24.3681 34.4674 24.1631 34.9584C23.9582 35.4494 23.6111 35.8691 23.1659 36.1644C22.7206 36.4597 22.1971 36.6173 21.6615 36.6173C20.9434 36.6173 20.2547 36.3342 19.7469 35.8302C19.2391 35.3263 18.9538 34.6427 18.9538 33.93Z" fill="#87AB42"/>
<path d="M36.5538 33.93C36.5538 33.1328 36.3156 32.3534 35.8694 31.6905C35.4231 31.0276 34.7887 30.511 34.0466 30.2059C33.3044 29.9008 32.4878 29.821 31.6999 29.9765C30.9121 30.132 30.1884 30.5159 29.6204 31.0797C29.0523 31.6434 28.6655 32.3617 28.5088 33.1436C28.3521 33.9255 28.4325 34.736 28.7399 35.4726C29.0473 36.2092 29.5679 36.8387 30.2358 37.2816C30.9038 37.7246 31.689 37.961 32.4923 37.961C33.5695 37.961 34.6026 37.5363 35.3642 36.7803C36.1259 36.0244 36.5538 34.9991 36.5538 33.93ZM29.7846 33.93C29.7846 33.3985 29.9434 32.8789 30.2409 32.437C30.5385 31.9951 30.9613 31.6507 31.4561 31.4473C31.9509 31.2439 32.4953 31.1906 33.0205 31.2943C33.5458 31.398 34.0283 31.654 34.4069 32.0298C34.7856 32.4056 35.0435 32.8845 35.148 33.4057C35.2524 33.927 35.1988 34.4674 34.9939 34.9584C34.7889 35.4494 34.4419 35.8691 33.9966 36.1644C33.5513 36.4597 33.0278 36.6173 32.4923 36.6173C31.7742 36.6173 31.0855 36.3342 30.5777 35.8302C30.0699 35.3263 29.7846 34.6427 29.7846 33.93Z" fill="#87AB42"/>
<path d="M35.2003 39.3089H29.7849C29.2595 39.3089 28.7412 39.4303 28.2713 39.6635C27.8013 39.8967 27.3925 40.2353 27.0772 40.6525C26.762 40.2353 26.3532 39.8967 25.8832 39.6635C25.4132 39.4303 24.895 39.3089 24.3695 39.3089H18.9541C18.4287 39.3089 17.9105 39.4303 17.4405 39.6635C16.9705 39.8967 16.5617 40.2353 16.2465 40.6525C15.9312 40.2353 15.5224 39.8967 15.0524 39.6635C14.5824 39.4303 14.0642 39.3089 13.5388 39.3089H8.12338C7.22573 39.3089 6.36484 39.6628 5.7301 40.2927C5.09536 40.9227 4.73877 41.7771 4.73877 42.668C4.73877 42.8462 4.81008 43.0171 4.93703 43.1431C5.06398 43.2691 5.23616 43.3398 5.41569 43.3398C5.59522 43.3398 5.7674 43.2691 5.89435 43.1431C6.02129 43.0171 6.09261 42.8462 6.09261 42.668C6.09261 42.1335 6.30657 41.6208 6.68741 41.2429C7.06825 40.8649 7.58479 40.6525 8.12338 40.6525H13.5388C14.0774 40.6525 14.5939 40.8649 14.9747 41.2429C15.3556 41.6208 15.5695 42.1335 15.5695 42.668C15.5695 42.8462 15.6409 43.0171 15.7678 43.1431C15.8947 43.2691 16.0669 43.3398 16.2465 43.3398C16.426 43.3398 16.5982 43.2691 16.7251 43.1431C16.8521 43.0171 16.9234 42.8462 16.9234 42.668C16.9234 42.1335 17.1373 41.6208 17.5182 41.2429C17.899 40.8649 18.4156 40.6525 18.9541 40.6525H24.3695C24.9081 40.6525 25.4247 40.8649 25.8055 41.2429C26.1863 41.6208 26.4003 42.1335 26.4003 42.668C26.4003 42.8462 26.4716 43.0171 26.5986 43.1431C26.7255 43.2691 26.8977 43.3398 27.0772 43.3398C27.2568 43.3398 27.4289 43.2691 27.5559 43.1431C27.6828 43.0171 27.7541 42.8462 27.7541 42.668C27.7541 42.1335 27.9681 41.6208 28.3489 41.2429C28.7298 40.8649 29.2463 40.6525 29.7849 40.6525H35.2003C35.7389 40.6525 36.2554 40.8649 36.6363 41.2429C37.0171 41.6208 37.2311 42.1335 37.2311 42.668C37.2311 42.8462 37.3024 43.0171 37.4293 43.1431C37.5563 43.2691 37.7285 43.3398 37.908 43.3398C38.0875 43.3398 38.2597 43.2691 38.3867 43.1431C38.5136 43.0171 38.5849 42.8462 38.5849 42.668C38.5849 41.7771 38.2283 40.9227 37.5936 40.2927C36.9588 39.6628 36.098 39.3089 35.2003 39.3089Z" fill="#87AB42"/>
<path d="M43.3231 0.339844H0.676923C0.497392 0.339844 0.325214 0.410626 0.198266 0.536618C0.0713186 0.66261 0 0.833492 0 1.01167V25.1975C0 25.3756 0.0713186 25.5465 0.198266 25.6725C0.325214 25.7985 0.497392 25.8693 0.676923 25.8693H7.84215L10.3518 28.3601C10.4147 28.4226 10.4894 28.4721 10.5715 28.5059C10.6537 28.5397 10.7418 28.5571 10.8308 28.5571C10.9197 28.5571 11.0078 28.5397 11.09 28.5059C11.1722 28.4721 11.2468 28.4226 11.3097 28.3601L13.8194 25.8693H18.6746L21.1843 28.3601C21.2472 28.4226 21.3218 28.4721 21.404 28.5059C21.4862 28.5397 21.5743 28.5571 21.6632 28.5571C21.7522 28.5571 21.8403 28.5397 21.9225 28.5059C22.0046 28.4721 22.0793 28.4226 22.1422 28.3601L24.6502 25.8693H29.5054L32.0151 28.3601C32.0779 28.4226 32.1526 28.4721 32.2348 28.5059C32.317 28.5397 32.405 28.5571 32.494 28.5571C32.583 28.5571 32.671 28.5397 32.7532 28.5059C32.8354 28.4721 32.9101 28.4226 32.9729 28.3601L35.4809 25.8693H43.3231C43.5026 25.8693 43.6748 25.7985 43.8017 25.6725C43.9287 25.5465 44 25.3756 44 25.1975V1.01167C44 0.833492 43.9287 0.66261 43.8017 0.536618C43.6748 0.410626 43.5026 0.339844 43.3231 0.339844ZM42.6462 24.5256H35.2C35.1111 24.5256 35.023 24.5429 34.9408 24.5766C34.8587 24.6103 34.784 24.6598 34.7211 24.7221L32.4923 26.9341L30.2635 24.7221C30.2006 24.6598 30.1259 24.6103 30.0438 24.5766C29.9616 24.5429 29.8735 24.5256 29.7846 24.5256H24.3692C24.2803 24.5256 24.1922 24.5429 24.1101 24.5766C24.0279 24.6103 23.9532 24.6598 23.8903 24.7221L21.6615 26.9341L19.4328 24.7221C19.3699 24.6598 19.2952 24.6103 19.213 24.5766C19.1308 24.5429 19.0428 24.5256 18.9538 24.5256H13.5385C13.4495 24.5256 13.3615 24.5429 13.2793 24.5766C13.1971 24.6103 13.1224 24.6598 13.0595 24.7221L10.8308 26.9341L8.602 24.7221C8.53909 24.6598 8.46441 24.6103 8.38224 24.5766C8.30006 24.5429 8.212 24.5256 8.12308 24.5256H1.35385V1.6835H42.6462V24.5256Z" fill="#87AB42"/>
<path d="M21.6615 16.4613C22.7326 16.4613 23.7796 16.1461 24.6702 15.5555C25.5607 14.9649 26.2548 14.1255 26.6647 13.1434C27.0746 12.1614 27.1818 11.0807 26.9729 10.0381C26.7639 8.99555 26.2481 8.03788 25.4908 7.28623C24.7334 6.53458 23.7685 6.02269 22.718 5.81531C21.6675 5.60793 20.5787 5.71437 19.5892 6.12116C18.5996 6.52795 17.7539 7.21683 17.1588 8.10068C16.5638 8.98453 16.2462 10.0237 16.2462 11.0867C16.2462 12.5121 16.8167 13.8792 17.8323 14.8871C18.8479 15.895 20.2253 16.4613 21.6615 16.4613ZM21.6615 7.0557C22.4648 7.0557 23.2501 7.29211 23.918 7.73504C24.5859 8.17796 25.1065 8.80751 25.4139 9.54408C25.7213 10.2806 25.8017 11.0911 25.645 11.8731C25.4883 12.655 25.1015 13.3732 24.5335 13.937C23.9655 14.5007 23.2418 14.8846 22.4539 15.0402C21.666 15.1957 20.8494 15.1159 20.1073 14.8108C19.3651 14.5057 18.7308 13.989 18.2845 13.3261C17.8382 12.6633 17.6 11.8839 17.6 11.0867C17.6 10.0176 18.0279 8.99229 18.7896 8.23634C19.5513 7.48038 20.5843 7.0557 21.6615 7.0557Z" fill="#87AB42"/>
<path d="M23.0151 17.1358H20.3074C20.1279 17.1358 19.9557 17.2066 19.8287 17.3326C19.7018 17.4586 19.6305 17.6295 19.6305 17.8077C19.6305 17.9858 19.7018 18.1567 19.8287 18.2827C19.9557 18.4087 20.1279 18.4795 20.3074 18.4795H23.0151C23.1946 18.4795 23.3668 18.4087 23.4937 18.2827C23.6207 18.1567 23.692 17.9858 23.692 17.8077C23.692 17.6295 23.6207 17.4586 23.4937 17.3326C23.3668 17.2066 23.1946 17.1358 23.0151 17.1358Z" fill="#87AB42"/>
<path d="M23.0151 19.1498H20.3074C20.1279 19.1498 19.9557 19.2206 19.8287 19.3466C19.7018 19.4726 19.6305 19.6434 19.6305 19.8216C19.6305 19.9998 19.7018 20.1707 19.8287 20.2967C19.9557 20.4227 20.1279 20.4935 20.3074 20.4935H23.0151C23.1946 20.4935 23.3668 20.4227 23.4937 20.2967C23.6207 20.1707 23.692 19.9998 23.692 19.8216C23.692 19.6434 23.6207 19.4726 23.4937 19.3466C23.3668 19.2206 23.1946 19.1498 23.0151 19.1498Z" fill="#87AB42"/>
<path d="M20.9843 21.8404C20.9843 22.0186 21.0556 22.1895 21.1826 22.3155C21.3095 22.4415 21.4817 22.5123 21.6612 22.5123C21.8408 22.5123 22.0129 22.4415 22.1399 22.3155C22.2668 22.1895 22.3382 22.0186 22.3382 21.8404V21.1686H20.9843V21.8404Z" fill="#87AB42"/>
<path d="M19.6308 11.7646C19.8103 11.7646 19.9825 11.6938 20.1094 11.5678C20.2364 11.4418 20.3077 11.2709 20.3077 11.0927C20.3077 10.7364 20.4503 10.3946 20.7042 10.1426C20.9581 9.89063 21.3025 9.74907 21.6615 9.74907C21.8411 9.74907 22.0132 9.67829 22.1402 9.5523C22.2671 9.4263 22.3385 9.25542 22.3385 9.07724C22.3385 8.89906 22.2671 8.72818 22.1402 8.60219C22.0132 8.4762 21.8411 8.40541 21.6615 8.40541C20.9434 8.40541 20.2547 8.68854 19.7469 9.19251C19.2391 9.69648 18.9538 10.38 18.9538 11.0927C18.9538 11.2709 19.0252 11.4418 19.1521 11.5678C19.2791 11.6938 19.4512 11.7646 19.6308 11.7646Z" fill="#87AB42"/>
<path d="M21.6612 5.04385C21.8408 5.04385 22.0129 4.97307 22.1399 4.84708C22.2668 4.72108 22.3382 4.5502 22.3382 4.37202V3.70019C22.3382 3.52201 22.2668 3.35113 22.1399 3.22514C22.0129 3.09915 21.8408 3.02837 21.6612 3.02837C21.4817 3.02837 21.3095 3.09915 21.1826 3.22514C21.0556 3.35113 20.9843 3.52201 20.9843 3.70019V4.37202C20.9843 4.5502 21.0556 4.72108 21.1826 4.84708C21.3095 4.97307 21.4817 5.04385 21.6612 5.04385Z" fill="#87AB42"/>
<path d="M16.3966 6.81561C16.4595 6.87803 16.5341 6.92754 16.6163 6.96133C16.6985 6.99511 16.7866 7.01249 16.8755 7.01249C16.9644 7.01249 17.0525 6.99511 17.1347 6.96133C17.2169 6.92754 17.2915 6.87803 17.3544 6.81561C17.4173 6.75319 17.4672 6.67909 17.5012 6.59753C17.5353 6.51598 17.5528 6.42857 17.5528 6.34029C17.5528 6.25202 17.5353 6.16461 17.5012 6.08305C17.4672 6.0015 17.4173 5.92739 17.3544 5.86498L16.8755 5.38966C16.8126 5.32724 16.7379 5.27772 16.6558 5.24394C16.5736 5.21016 16.4855 5.19277 16.3966 5.19277C16.3076 5.19277 16.2196 5.21016 16.1374 5.24394C16.0552 5.27772 15.9805 5.32724 15.9177 5.38966C15.8548 5.45208 15.8049 5.52618 15.7708 5.60774C15.7368 5.68929 15.7193 5.7767 15.7193 5.86498C15.7193 5.95325 15.7368 6.04066 15.7708 6.12222C15.8049 6.20377 15.8548 6.27787 15.9177 6.34029L16.3966 6.81561Z" fill="#87AB42"/>
<path d="M14.2154 11.7582H14.8923C15.0718 11.7582 15.244 11.6874 15.371 11.5614C15.4979 11.4354 15.5692 11.2645 15.5692 11.0864C15.5692 10.9082 15.4979 10.7373 15.371 10.6113C15.244 10.4853 15.0718 10.4145 14.8923 10.4145H14.2154C14.0359 10.4145 13.8637 10.4853 13.7367 10.6113C13.6098 10.7373 13.5385 10.9082 13.5385 11.0864C13.5385 11.2645 13.6098 11.4354 13.7367 11.5614C13.8637 11.6874 14.0359 11.7582 14.2154 11.7582Z" fill="#87AB42"/>
<path d="M16.8755 16.7884L17.3544 16.3131C17.4814 16.187 17.5528 16.016 17.5528 15.8377C17.5528 15.6595 17.4814 15.4885 17.3544 15.3624C17.2274 15.2364 17.0551 15.1655 16.8755 15.1655C16.6959 15.1655 16.5236 15.2364 16.3966 15.3624L15.9177 15.8377C15.8548 15.9002 15.8049 15.9743 15.7708 16.0558C15.7368 16.1374 15.7193 16.2248 15.7193 16.3131C15.7193 16.4013 15.7368 16.4888 15.7708 16.5703C15.8049 16.6519 15.8548 16.726 15.9177 16.7884C15.9805 16.8508 16.0552 16.9003 16.1374 16.9341C16.2196 16.9679 16.3076 16.9853 16.3966 16.9853C16.4855 16.9853 16.5736 16.9679 16.6558 16.9341C16.7379 16.9003 16.8126 16.8508 16.8755 16.7884Z" fill="#87AB42"/>
<path d="M26.9264 15.3673C26.8635 15.3049 26.7888 15.2553 26.7066 15.2216C26.6245 15.1878 26.5364 15.1704 26.4474 15.1704C26.3585 15.1704 26.2704 15.1878 26.1882 15.2216C26.1061 15.2553 26.0314 15.3049 25.9685 15.3673C25.9056 15.4297 25.8557 15.5038 25.8217 15.5854C25.7877 15.6669 25.7701 15.7543 25.7701 15.8426C25.7701 15.9309 25.7877 16.0183 25.8217 16.0998C25.8557 16.1814 25.9056 16.2555 25.9685 16.3179L26.4474 16.7932C26.5103 16.8557 26.585 16.9052 26.6672 16.939C26.7493 16.9727 26.8374 16.9901 26.9264 16.9901C27.0153 16.9901 27.1034 16.9727 27.1856 16.939C27.2677 16.9052 27.3424 16.8557 27.4053 16.7932C27.4682 16.7308 27.5181 16.6567 27.5521 16.5752C27.5861 16.4936 27.6037 16.4062 27.6037 16.3179C27.6037 16.2296 27.5861 16.1422 27.5521 16.0607C27.5181 15.9791 27.4682 15.905 27.4053 15.8426L26.9264 15.3673Z" fill="#87AB42"/>
<path d="M28.4311 11.7582H29.108C29.2875 11.7582 29.4597 11.6874 29.5867 11.5614C29.7136 11.4354 29.7849 11.2645 29.7849 11.0864C29.7849 10.9082 29.7136 10.7373 29.5867 10.6113C29.4597 10.4853 29.2875 10.4145 29.108 10.4145H28.4311C28.2515 10.4145 28.0794 10.4853 27.9524 10.6113C27.8255 10.7373 27.7541 10.9082 27.7541 11.0864C27.7541 11.2645 27.8255 11.4354 27.9524 11.5614C28.0794 11.6874 28.2515 11.7582 28.4311 11.7582Z" fill="#87AB42"/>
<path d="M26.9264 6.81561L27.4053 6.34029C27.4682 6.27787 27.5181 6.20377 27.5521 6.12222C27.5861 6.04066 27.6037 5.95325 27.6037 5.86498C27.6037 5.7767 27.5861 5.68929 27.5521 5.60774C27.5181 5.52618 27.4682 5.45208 27.4053 5.38966C27.3424 5.32724 27.2677 5.27772 27.1856 5.24394C27.1034 5.21016 27.0153 5.19277 26.9264 5.19277C26.8374 5.19277 26.7493 5.21016 26.6672 5.24394C26.585 5.27772 26.5103 5.32724 26.4474 5.38966L25.9685 5.86498C25.9056 5.92739 25.8557 6.0015 25.8217 6.08305C25.7877 6.16461 25.7701 6.25202 25.7701 6.34029C25.7701 6.42857 25.7877 6.51598 25.8217 6.59753C25.8557 6.67909 25.9056 6.75319 25.9685 6.81561C26.0314 6.87803 26.1061 6.92754 26.1882 6.96133C26.2704 6.99511 26.3585 7.01249 26.4474 7.01249C26.5364 7.01249 26.6245 6.99511 26.7066 6.96133C26.7888 6.92754 26.8635 6.87803 26.9264 6.81561Z" fill="#87AB42"/>
<path d="M32.4925 14.4465H35.6876L34.5436 18.9813C34.5053 19.1328 34.5213 19.2928 34.5889 19.4338C34.6565 19.5748 34.7714 19.688 34.914 19.754C35.0566 19.82 35.218 19.8346 35.3703 19.7954C35.5225 19.7561 35.6563 19.6655 35.7485 19.539L41.1639 12.1488C41.2359 12.0486 41.2787 11.9306 41.2876 11.8078C41.2966 11.6851 41.2715 11.5622 41.2149 11.4527C41.1583 11.3432 41.0725 11.2512 40.9668 11.1867C40.8611 11.1223 40.7396 11.0879 40.6156 11.0874H37.4205L38.5645 6.55252C38.6029 6.40107 38.5869 6.24109 38.5193 6.10008C38.4517 5.95906 38.3367 5.84583 38.1941 5.77983C38.0515 5.71384 37.8902 5.69921 37.7379 5.73846C37.5856 5.77771 37.4519 5.86839 37.3596 5.9949L31.9442 13.385C31.8723 13.4853 31.8295 13.6032 31.8205 13.726C31.8115 13.8488 31.8367 13.9716 31.8933 14.0812C31.9499 14.1907 32.0357 14.2827 32.1414 14.3471C32.247 14.4116 32.3685 14.4459 32.4925 14.4465ZM36.4069 9.57575L35.8992 11.5912C35.8733 11.6905 35.8707 11.7942 35.8916 11.8946C35.9124 11.995 35.9561 12.0893 36.0193 12.1704C36.0825 12.2514 36.1635 12.3171 36.2562 12.3622C36.3489 12.4074 36.4508 12.4309 36.5541 12.431H39.2872L36.703 15.9581L37.2107 13.9426C37.2366 13.8433 37.2391 13.7393 37.2182 13.6388C37.1973 13.5383 37.1535 13.4439 37.0901 13.3628C37.0267 13.2817 36.9454 13.2161 36.8525 13.1711C36.7596 13.126 36.6575 13.1027 36.5541 13.1028H33.821L36.4069 9.57575Z" fill="#87AB42"/>
<path d="M3.38455 14.4465H6.57963L5.43563 18.9813C5.39726 19.1328 5.41326 19.2928 5.48086 19.4338C5.54846 19.5748 5.66345 19.688 5.80605 19.754C5.94865 19.82 6.10997 19.8346 6.26226 19.7954C6.41456 19.7561 6.54832 19.6655 6.64055 19.539L12.0559 12.1488C12.1279 12.0486 12.1707 11.9306 12.1797 11.8078C12.1886 11.6851 12.1635 11.5622 12.1069 11.4527C12.0503 11.3432 11.9645 11.2512 11.8588 11.1867C11.7531 11.1223 11.6317 11.0879 11.5076 11.0874H8.31255L9.45655 6.55252C9.49491 6.40107 9.47892 6.24109 9.41132 6.10008C9.34372 5.95906 9.22873 5.84583 9.08613 5.77983C8.94352 5.71384 8.78221 5.69921 8.62992 5.73846C8.47762 5.77771 8.34386 5.86839 8.25163 5.9949L2.83624 13.385C2.76431 13.4853 2.72151 13.6032 2.71253 13.726C2.70354 13.8488 2.72871 13.9716 2.78529 14.0812C2.84187 14.1907 2.92769 14.2827 3.03337 14.3471C3.13905 14.4116 3.26053 14.4459 3.38455 14.4465ZM7.29886 9.57575L6.79117 11.5912C6.76535 11.6905 6.76275 11.7942 6.78357 11.8946C6.80439 11.995 6.84808 12.0893 6.91128 12.1704C6.97449 12.2514 7.05555 12.3171 7.14824 12.3622C7.24094 12.4074 7.34282 12.4309 7.44609 12.431H10.1792L7.59332 15.9581L8.10101 13.9426C8.12683 13.8434 8.12943 13.7396 8.10861 13.6392C8.08779 13.5388 8.0441 13.4445 7.98089 13.3635C7.91769 13.2824 7.83663 13.2168 7.74394 13.1716C7.65124 13.1264 7.54936 13.1029 7.44609 13.1028H4.71301L7.29886 9.57575Z" fill="#87AB42"/>
</svg>
