<svg width="40" height="45" viewBox="0 0 40 45" fill="none" xmlns="http://www.w3.org/2000/svg">
<path d="M9.86471 18.1208V22.9622C9.86471 23.2512 10.0988 23.4854 10.3876 23.4854H29.6141C29.9029 23.4854 30.137 23.2512 30.137 22.9622V18.1208C30.137 14.8915 27.5941 12.4182 23.4277 11.5035C24.6531 10.176 25.3848 8.24199 25.3848 6.4394C25.3848 4.86327 24.7948 3.53569 23.6787 2.59988C22.703 1.78197 21.3969 1.33156 20.0009 1.33156C18.6048 1.33156 17.2987 1.78197 16.3231 2.59988C15.2069 3.53569 14.6169 4.86336 14.6169 6.4394C14.6169 8.24182 15.3486 10.1757 16.5738 11.5032C12.4077 12.4178 9.86471 14.8911 9.86471 18.1208ZM29.0912 18.1208V22.4389H10.9105V18.1208C10.9105 14.6792 14.3214 12.9054 17.5834 12.3749C18.2926 12.8505 19.1044 13.1387 19.9915 13.1545H20.0008C20.0008 13.1545 20.007 13.1545 20.01 13.1545C20.897 13.1387 21.7087 12.8506 22.4177 12.3753C25.6803 12.9061 29.0911 14.6798 29.0911 18.1208H29.0912ZM20.001 2.37794C22.0903 2.37794 24.3391 3.64888 24.3391 6.4394C24.3391 9.07561 22.4845 12.0566 20.001 12.1081C17.5174 12.0566 15.6629 9.07561 15.6629 6.4394C15.6629 3.64888 17.9116 2.37794 20.001 2.37794ZM16.5089 38.9847C16.607 35.4964 16.6384 31.98 15.2403 30.0769C14.358 28.8729 9.77399 24.3303 6.98643 24.3303C6.94081 24.3303 6.8951 24.3315 6.85044 24.334C6.55414 24.3504 6.28487 24.4205 6.04727 24.5416C5.59919 22.0147 5.63111 18.3792 5.65301 15.8808C5.65519 15.6262 5.65737 15.3814 5.65894 15.148C5.67132 13.0176 4.71917 12.0429 3.81917 11.8387C2.8869 11.5917 1.6114 11.864 0.802989 14.5432C0.0112396 17.1626 -0.107649 27.832 0.0744782 29.0154C0.406983 31.1986 2.6336 33.4938 4.69413 35.4734C4.92624 35.697 5.15826 35.9063 5.38261 36.1088C6.36625 36.9967 7.16559 37.7194 7.29451 38.9848C6.34523 38.9915 5.57485 39.7657 5.57485 40.717V42.607C5.57485 43.5625 6.35186 44.3398 7.30681 44.3398H16.4973C17.4523 44.3398 18.2292 43.5625 18.2292 42.607V40.717C18.2292 39.7653 17.4585 38.991 16.5088 38.9847H16.5089ZM6.0832 35.3319C5.86505 35.1349 5.63949 34.9313 5.41907 34.7191C3.48196 32.8581 1.39159 30.7171 1.10837 28.857C0.934438 27.7267 1.06772 17.2826 1.80425 14.8458C2.26123 13.3313 2.85131 12.6605 3.55784 12.852C3.56613 12.8542 3.5745 12.8563 3.58288 12.8581C4.10161 12.9715 4.6213 13.7217 4.6131 15.1413C4.61153 15.3736 4.60944 15.6178 4.60717 15.8716C4.58126 18.8278 4.54629 22.8484 5.17379 25.4821C4.61354 26.6966 5.56726 28.4191 8.14871 30.8697C8.2499 30.9657 8.37934 31.0134 8.50852 31.0134C8.64695 31.0134 8.78511 30.9587 8.88795 30.8503C9.08674 30.6407 9.07802 30.3095 8.8685 30.1105C5.81603 27.2129 5.96423 26.1552 6.16956 25.8349C6.17252 25.8303 6.17488 25.8254 6.17767 25.8207C6.17924 25.8181 6.18125 25.8159 6.18282 25.8132C6.34453 25.5317 6.56827 25.3978 6.90836 25.3788C8.96872 25.2635 13.3904 29.3225 14.3971 30.6961C15.5907 32.3208 15.5523 35.7951 15.4626 38.9842H8.34497C8.21064 37.2528 7.13079 36.2776 6.0832 35.3319ZM17.1835 42.607C17.1835 42.9855 16.8757 43.2935 16.4974 43.2935H7.3069C6.9286 43.2935 6.62078 42.9855 6.62078 42.607V40.717C6.62078 40.3385 6.9286 40.0305 7.3069 40.0305H16.4974C16.8757 40.0305 17.1835 40.3385 17.1835 40.717V42.607ZM39.1967 14.5441C38.392 11.8634 37.116 11.5912 36.1828 11.8386C35.2828 12.0429 34.3306 13.0176 34.3429 15.148C34.3444 15.3971 34.3466 15.6598 34.3487 15.9337C34.3692 18.417 34.3989 22.03 33.9527 24.5416C33.7158 24.4209 33.4473 24.3507 33.1519 24.3341C30.3854 24.1789 25.6584 28.8523 24.7591 30.0767C23.3655 31.9771 23.3949 35.4949 23.4908 38.9847C22.541 38.9908 21.7699 39.7652 21.7699 40.717V42.607C21.7699 43.5625 22.548 44.3398 23.5044 44.3398H32.6949C33.6499 44.3398 34.4268 43.5625 34.4268 42.607V40.717C34.4268 39.7657 33.6565 38.9915 32.7072 38.9848C32.8362 37.7194 33.6355 36.9968 34.6191 36.1089C34.8434 35.9063 35.0754 35.6969 35.3073 35.4736C37.9376 32.944 39.6279 30.9812 39.9273 29.0151C40.1077 27.8264 39.9841 17.1496 39.1965 14.5441L39.1967 14.5441ZM33.3811 40.7169V42.6069C33.3811 42.9854 33.0733 43.2934 32.695 43.2934H23.5046C23.1249 43.2934 22.8159 42.9854 22.8159 42.6069V40.7169C22.8159 40.3384 23.1237 40.0305 23.502 40.0305H32.6949C33.0732 40.0305 33.3811 40.3384 33.3811 40.7169H33.3811ZM38.8935 28.8576C38.611 30.7123 36.5202 32.8557 34.5823 34.7194C34.3624 34.9313 34.1368 35.1349 33.9186 35.3319C32.871 36.2775 31.7914 37.2528 31.657 38.9841H24.5372C24.4496 35.7934 24.4132 32.3176 25.6023 30.696C26.6115 29.322 31.0387 25.2653 33.0932 25.3788C33.4323 25.398 33.6553 25.5317 33.8165 25.8128C33.818 25.8154 33.82 25.8176 33.8215 25.8202C33.8244 25.8251 33.8269 25.83 33.8299 25.8348C34.0355 26.1556 34.1845 27.2143 31.1334 30.1105C30.9239 30.3093 30.9152 30.6405 31.114 30.8503C31.2168 30.9586 31.355 31.0133 31.4934 31.0133C31.6226 31.0133 31.7521 30.9656 31.8532 30.8696C34.4336 28.4201 35.3866 26.6977 34.8258 25.4823C35.4514 22.864 35.4188 18.8652 35.3946 15.925C35.3923 15.6521 35.3902 15.3902 35.3887 15.1417C35.3805 13.7216 35.9002 12.9715 36.419 12.8581C36.4274 12.8562 36.4358 12.8541 36.4441 12.8519C37.151 12.6599 37.7404 13.3307 38.1952 14.846C38.9281 17.2704 39.0657 27.723 38.8934 28.8577L38.8935 28.8576ZM26.6447 10.2613C27.1728 9.34938 27.452 8.30579 27.452 7.24326C27.452 6.18072 27.1728 5.13966 26.6447 4.22776C26.4999 3.97781 26.585 3.65761 26.8349 3.51274C27.0847 3.36787 27.4048 3.45304 27.5496 3.70316C28.1699 4.77416 28.4978 5.99832 28.4978 7.24326C28.4978 8.48819 28.1699 9.71479 27.5496 10.786C27.4526 10.9534 27.277 11.0469 27.0966 11.0469C27.0076 11.0469 26.9174 11.0241 26.8349 10.9763C26.585 10.8314 26.4999 10.5113 26.6446 10.2613H26.6447ZM29.3297 11.8103C30.1281 10.4292 30.5501 8.84993 30.5501 7.24326C30.5501 5.63658 30.1281 4.05731 29.3298 2.67633C29.1851 2.42621 29.2705 2.10609 29.5206 1.96148C29.7707 1.81679 30.0906 1.90223 30.2351 2.15243C31.1255 3.69252 31.5961 5.45288 31.5961 7.24334C31.5961 9.03381 31.1255 10.7942 30.2352 12.3343C30.1383 12.502 29.9626 12.5956 29.782 12.5956C29.6931 12.5956 29.6031 12.5729 29.5207 12.5252C29.2707 12.3806 29.1852 12.0605 29.3299 11.8104L29.3297 11.8103ZM32.0148 1.12516C31.8702 0.875037 31.9557 0.554925 32.2057 0.410316C32.4558 0.265445 32.7756 0.351145 32.9202 0.601266C34.0822 2.61148 34.6964 4.9083 34.6964 7.24326C34.6964 9.57821 34.0822 11.8778 32.92 13.8855C32.8231 14.053 32.6474 14.1465 32.4669 14.1465C32.378 14.1465 32.2879 14.1238 32.2053 14.0759C31.9554 13.9311 31.8702 13.611 32.0149 13.361C33.085 11.5125 33.6506 9.39703 33.6506 7.24317C33.6506 5.0893 33.0849 2.97628 32.0148 1.12507L32.0148 1.12516ZM7.08185 13.8856C5.91966 11.8778 5.30541 9.581 5.30541 7.24334C5.30541 4.90568 5.91966 2.61166 7.08168 0.601353C7.2263 0.351233 7.54616 0.265706 7.79615 0.410403C8.04613 0.555012 8.13162 0.875125 7.987 1.12525C6.91682 2.97654 6.35116 5.09209 6.35116 7.24334C6.35116 9.39459 6.91674 11.5126 7.98682 13.3612C8.13153 13.6112 8.04631 13.9313 7.79632 14.0762C7.71389 14.1239 7.6237 14.1467 7.53473 14.1467C7.35426 14.1467 7.17867 14.0532 7.08168 13.8857L7.08185 13.8856ZM12.4523 10.786C11.8319 9.71488 11.504 8.48976 11.504 7.24326C11.504 5.99675 11.8319 4.77416 12.4523 3.70316C12.597 3.45313 12.9169 3.36787 13.1669 3.51274C13.4168 3.65761 13.5019 3.97781 13.3571 4.22776C12.8291 5.13957 12.5499 6.18229 12.5499 7.24326C12.5499 8.30422 12.8291 9.34938 13.3571 10.2613C13.5019 10.5113 13.4167 10.8314 13.1668 10.9763C13.0843 11.0241 12.9941 11.0469 12.9051 11.0469C12.7248 11.0469 12.5492 10.9534 12.4522 10.786H12.4523ZM9.76684 12.3343C8.87487 10.7912 8.4035 9.03084 8.4035 7.24326C8.4035 5.45567 8.87496 3.69522 9.76693 2.15235C9.91155 1.90223 10.2314 1.8167 10.4814 1.9614C10.7314 2.106 10.8169 2.42612 10.6722 2.67624C9.8723 4.06002 9.44934 5.63929 9.44934 7.24317C9.44934 8.84705 9.87221 10.4263 10.6722 11.8102C10.8169 12.0603 10.7314 12.3804 10.4814 12.525C10.399 12.5728 10.3089 12.5955 10.2201 12.5955C10.0395 12.5955 9.86384 12.5018 9.76693 12.3342L9.76684 12.3343Z" fill="#87AB42"/>
</svg>
