<svg width="39" height="50" viewBox="0 0 39 50" fill="none" xmlns="http://www.w3.org/2000/svg">
<g clip-path="url(#clip0_522_68)">
<path fill-rule="evenodd" clip-rule="evenodd" d="M9.80273 44.1406V31.543C9.80273 31.1523 10.0996 30.957 10.3964 30.957H29.1959C29.4927 30.957 29.7895 31.1523 29.7895 31.543V44.1406H9.80273ZM26.6233 41.9922H12.969C12.6721 41.9922 12.3753 41.6992 12.3753 41.4062V33.6914C12.3753 33.3984 12.6721 33.1055 12.969 33.1055H26.6233C26.9201 33.1055 27.217 33.3984 27.217 33.6914V41.4062C27.217 41.6992 26.9201 41.9922 26.6233 41.9922ZM24.1497 38.0859H15.4426C15.1457 38.0859 14.8489 37.8906 14.8489 37.5C14.8489 37.207 15.1457 36.9141 15.4426 36.9141H24.1497C24.5455 36.9141 24.7434 37.207 24.7434 37.5C24.7434 37.8906 24.5455 38.0859 24.1497 38.0859ZM13.5626 40.8203H26.0296V34.2773H13.5626V40.8203Z" fill="#5237F9"/>
<path fill-rule="evenodd" clip-rule="evenodd" d="M32.1645 50H7.52726C7.13148 50 6.93359 49.707 6.93359 49.4141V47.6562C6.93359 46.3867 7.92303 45.3125 9.20931 45.3125H30.3835C31.6698 45.3125 32.7582 46.3867 32.7582 47.6562V49.4141C32.7582 49.707 32.4613 50 32.1645 50Z" fill="#5237F9"/>
<path fill-rule="evenodd" clip-rule="evenodd" d="M14.4538 25.0977C11.7823 25.0977 8.41821 24.9023 8.22032 24.9023C8.02243 24.9023 7.82454 24.707 7.72559 24.5117C7.62665 24.3164 7.62665 24.1211 7.82454 23.9258L9.90238 21.2891C5.44987 22.2656 3.76781 20.8008 3.66887 20.7031C3.56992 20.6055 3.47098 20.4102 3.47098 20.2148C3.56992 20.0195 3.66887 19.8242 3.86676 19.7266C4.95515 19.3359 5.7467 18.5547 6.24143 17.9688C6.04354 17.9688 5.94459 17.9688 5.84565 17.9688C2.08575 17.9688 0.502639 16.0156 0.403694 15.918C0.304749 15.8203 0.304749 15.5273 0.403694 15.332C0.502639 15.1367 0.700528 15.0391 0.898417 15.0391C3.56992 14.9414 4.16359 14.3555 4.26253 14.1602H4.36148C1.59103 13.0859 0.502639 11.3281 0.205805 10.1562C-0.189974 8.69141 0.10686 7.51953 0.10686 7.42188C0.205805 7.22656 0.403694 7.12891 0.601583 7.03125C0.799472 7.03125 0.997362 7.12891 1.19525 7.22656C2.67942 9.08203 3.76781 9.76562 4.36148 9.96094C3.17414 4.78516 4.95515 3.51562 5.15303 3.32031C5.35092 3.22266 5.54881 3.22266 5.64776 3.22266C5.84565 3.32031 6.04354 3.41797 6.04354 3.61328C9.60554 11.6211 13.8602 15.8203 16.7296 17.8711C15.1464 18.9453 14.058 20.7031 14.058 22.7539C14.058 23.5352 14.2559 24.4141 14.5528 25.0977H14.4538ZM22.5673 17.6758C25.3377 15.625 29.4934 11.4258 32.9565 3.61328C32.9565 3.41797 33.1544 3.32031 33.3522 3.22266C33.4512 3.22266 33.6491 3.22266 33.847 3.32031C34.0449 3.51562 35.8259 4.78516 34.6385 9.96094C35.2322 9.76562 36.3206 9.08203 37.8047 7.22656C38.0026 7.12891 38.2005 7.03125 38.3984 7.03125C38.5963 7.12891 38.7942 7.22656 38.8931 7.42188C38.8931 7.51953 39.19 8.69141 38.7942 10.1562C38.4974 11.3281 37.409 13.0859 34.6385 14.1602H34.7375C34.8364 14.3555 35.4301 14.9414 38.1016 15.0391C38.2995 15.0391 38.4974 15.1367 38.5963 15.332C38.6953 15.5273 38.6953 15.8203 38.5963 15.918C38.4974 16.0156 36.8153 18.0664 32.7586 17.9688C33.2533 18.5547 34.0449 19.3359 35.1332 19.7266C35.3311 19.8242 35.4301 20.0195 35.529 20.2148C35.529 20.4102 35.4301 20.6055 35.3311 20.7031C35.2322 20.8008 33.5501 22.2656 29.0976 21.2891L31.1755 23.9258C31.3734 24.1211 31.3734 24.3164 31.2744 24.5117C31.1755 24.707 30.9776 24.9023 30.7797 24.9023C30.5818 24.9023 27.6135 25.0977 25.0409 25.0977C25.4367 24.4141 25.6346 23.5352 25.6346 22.7539C25.6346 20.5078 24.3483 18.6523 22.5673 17.6758Z" fill="#5237F9"/>
<path fill-rule="evenodd" clip-rule="evenodd" d="M19.7975 27.2461C17.3239 27.2461 15.2461 25.1953 15.2461 22.7539C15.2461 20.2148 17.3239 18.1641 19.7975 18.1641C22.3701 18.1641 24.4479 20.2148 24.4479 22.7539C24.4479 25.1953 22.3701 27.2461 19.7975 27.2461Z" fill="#5237F9"/>
<path fill-rule="evenodd" clip-rule="evenodd" d="M23.5575 32.0312H16.1367C16.0377 32.1289 16.0377 32.0312 16.0377 32.0312C15.9388 32.0312 15.8399 32.0312 15.8399 32.0312C15.7409 31.9336 15.642 31.9336 15.642 31.8359C15.543 31.8359 15.543 31.7383 15.543 31.6406C15.543 31.543 15.543 31.543 15.543 31.4453C15.543 31.3477 15.543 31.25 15.543 31.25C15.642 31.1523 15.642 31.0547 15.7409 31.0547C15.7409 31.0547 15.7409 30.957 15.8399 30.957C17.1261 30.1758 17.5219 29.1992 17.5219 29.1992C17.7198 28.8086 17.8187 28.418 17.8187 28.125C18.5114 28.3203 19.105 28.418 19.7976 28.418C20.4902 28.418 21.1829 28.3203 21.7765 28.125C21.7765 28.418 21.8755 28.8086 22.0734 29.1992C22.2713 29.5898 22.4691 30.1758 23.8544 30.957V31.0547C23.9533 31.0547 24.0523 31.1523 24.0523 31.25C24.0523 31.25 24.1512 31.3477 24.1512 31.4453C24.1512 31.543 24.1512 31.543 24.0523 31.6406V31.8359C23.9533 31.9336 23.8544 31.9336 23.8544 32.0312C23.7554 32.0312 23.6565 32.0312 23.5575 32.0312Z" fill="#5237F9"/>
<path fill-rule="evenodd" clip-rule="evenodd" d="M24.0524 14.1602C23.9534 14.1602 23.9534 14.1602 23.8545 14.0625L19.7977 12.4023L15.741 14.0625C15.5431 14.1602 15.3452 14.1602 15.2463 14.0625C15.0484 13.8672 14.9495 13.6719 14.9495 13.4766L15.3452 9.17969L12.4758 5.95703C12.3769 5.76172 12.2779 5.56641 12.3769 5.37109C12.3769 5.17578 12.5748 5.07812 12.7727 4.98047L17.0273 4.00391L19.303 0.292969C19.402 0.0976562 19.5999 0 19.7977 0C19.9956 0 20.1935 0.0976562 20.2925 0.292969L22.5682 4.00391L26.8228 4.98047C27.0207 5.07812 27.2186 5.17578 27.3175 5.37109C27.3175 5.56641 27.3175 5.76172 27.1196 5.95703L24.3492 9.17969L24.646 13.4766C24.646 13.6719 24.5471 13.8672 24.4481 14.0625C24.3492 14.0625 24.1513 14.1602 24.0524 14.1602Z" fill="#5237F9"/>
</g>
<defs>
<clipPath id="clip0_522_68">
<rect width="39" height="50" fill="white"/>
</clipPath>
</defs>
</svg>
