<svg width="58" height="48" viewBox="0 0 58 48" fill="none" xmlns="http://www.w3.org/2000/svg">
<g clip-path="url(#clip0_522_56)">
<path d="M57.9483 25.1039C57.9117 25.0737 57.8585 25.0642 57.817 25.0781C57.7664 25.0936 57.7201 25.1071 57.6763 25.1198L57.6549 25.1261C57.5471 25.1575 57.4539 25.1845 57.3616 25.2215C55.9032 25.7995 54.755 26.7897 53.8514 28.2487C53.6282 28.6091 53.4554 28.9838 53.3177 29.3575C53.5434 28.1006 53.5958 27.6109 53.6358 26.2045C53.6377 26.1455 53.6377 26.0854 53.6377 26.0258C53.6377 25.8631 53.6377 25.7094 53.6733 25.5692C53.716 25.403 53.8019 25.2373 53.8851 25.0769C53.9085 25.0315 53.9319 24.9861 53.9512 24.9463C53.9579 24.9384 53.9796 24.9252 53.988 24.9239C54.4051 24.8604 54.7739 24.6838 55.1158 24.3841C55.4604 24.0806 55.7437 23.7091 55.9581 23.2796C56.7277 21.7402 57.1128 20.0386 57.1031 18.2229C57.1022 18.0477 57.0816 17.8772 57.0589 17.6917C57.0486 17.6086 57.0381 17.5236 57.0294 17.4356C57.0244 17.3873 56.9946 17.3444 56.9515 17.3235C56.9089 17.3029 56.8574 17.3044 56.8144 17.3304C56.7884 17.3466 56.7661 17.3598 56.7459 17.3715C56.7068 17.3947 56.677 17.4129 56.6488 17.4332C55.9923 17.9026 55.4133 18.4869 54.9276 19.1696C54.135 20.2855 53.674 21.5472 53.5498 22.9352C53.5375 22.7804 53.525 22.6257 53.5125 22.471L53.5081 22.4149C53.4594 21.8083 53.4091 21.181 53.3681 20.5642C53.3578 20.408 53.3277 20.256 53.2986 20.109C53.2425 19.8264 53.1895 19.5594 53.2744 19.2797C53.2937 19.2165 53.31 19.1528 53.3262 19.0893C53.3664 18.932 53.5602 18.6896 53.8577 18.4247L53.8689 18.4147C53.9787 18.3219 54.5425 17.8074 54.8623 16.7898C55.1869 15.7559 55.1623 14.6756 55.1445 13.8867L55.144 13.8657C55.1202 12.7813 55.0027 11.9642 54.7631 11.2158C54.7322 11.1201 54.6954 11.0257 54.6564 10.9265C54.6362 10.8749 54.6156 10.8216 54.5944 10.7657C54.5769 10.7185 54.5351 10.6841 54.4861 10.676L54.4621 10.6738C54.4196 10.6738 54.3799 10.6928 54.353 10.7256L54.1203 11.0085C53.0044 12.366 52.4562 13.9582 52.4905 15.7409C52.4965 16.0549 52.52 16.3769 52.5617 16.7094C52.2781 15.7331 51.9455 14.7827 51.5672 13.8685C51.5594 13.8484 51.5543 13.8236 51.5537 13.8026L51.5511 13.6776C51.5472 13.4972 51.5431 13.3106 51.5508 13.127C51.5519 13.0966 51.5717 13.0419 51.6129 12.9881C51.6713 12.9111 51.7361 12.8359 51.8033 12.7576C51.9177 12.6247 52.0359 12.4876 52.1295 12.3309C52.431 11.8272 52.5726 11.2321 52.575 10.4579C52.579 9.54652 52.4382 8.58744 52.1311 7.43942C51.9634 6.81313 51.7101 5.9995 51.2385 5.26185C51.2065 5.21226 51.1708 5.16556 51.1327 5.11612C51.1155 5.09422 51.0975 5.07087 51.0792 5.04579C51.0524 5.00997 51.0155 4.98909 50.9559 4.98909C50.9084 4.99257 50.8659 5.01954 50.8422 5.06145C50.2503 6.12711 49.9554 7.26556 49.9415 8.54191C49.9296 9.60612 50.0962 10.5218 50.3051 11.2456C49.7734 10.2768 49.1826 9.34075 48.5422 8.45287L48.5276 8.43272C48.513 8.41343 48.5069 8.40401 48.5079 8.41068C48.4677 8.12342 48.4398 7.89358 48.4204 7.69347C48.4209 7.69043 48.4246 7.67361 48.4546 7.62372C48.4969 7.5518 48.5433 7.48133 48.5925 7.40679C48.6914 7.25686 48.7935 7.1017 48.8589 6.92798C49.0563 6.40363 49.1006 5.80896 48.9941 5.11061C48.7602 3.56498 48.077 2.1732 46.9062 0.855524C46.7857 0.720232 46.6525 0.600601 46.5116 0.474155L46.4727 0.438919C46.4176 0.389182 46.361 0.338285 46.3039 0.284487C46.2676 0.249975 46.2155 0.237069 46.1651 0.25186C46.1174 0.26694 46.0806 0.306382 46.0693 0.355394L46.0437 0.46734C46.0262 0.541584 46.0127 0.600166 46.0027 0.659039C45.8451 1.59723 45.8566 2.60213 46.038 3.73144C46.218 4.85148 46.5766 5.81752 47.1269 6.65667C46.3017 5.68687 45.4991 4.87251 44.6603 4.15081C44.6565 4.14588 44.651 4.13094 44.6506 4.12717C44.7161 3.56382 44.5768 3.03309 44.2245 2.50469C43.7617 1.81025 43.1187 1.28097 42.3134 0.931799C41.8314 0.723279 41.3321 0.538685 40.8432 0.357861C40.609 0.271147 40.3748 0.184721 40.1336 0.0920623C39.8913 -0.00407737 39.7876 -0.0211883 39.7313 0.0307243C39.6589 0.0980075 39.6764 0.15543 39.7079 0.259835L39.7181 0.293911C40.0137 1.28692 40.4059 2.07227 40.9175 2.69479C41.8566 3.83875 42.9549 4.41994 44.2735 4.47127C44.3197 4.47403 44.3563 4.48679 44.3713 4.49839C44.5569 4.63701 44.6936 4.74794 44.8144 4.85786C45.1964 5.20617 45.5727 5.57724 45.9408 5.96803C45.3933 5.62872 44.7241 5.47559 43.9705 5.51358C43.5581 5.53432 43.1487 5.59464 42.7528 5.65293L42.7377 5.65525C42.6207 5.67236 42.5042 5.68933 42.3881 5.70572C42.1337 5.74008 41.8772 5.78503 41.6507 5.82448C41.559 5.84086 41.3399 5.8906 41.2895 5.9966C41.272 6.03285 41.2735 6.07258 41.2933 6.10869C41.3107 6.14016 41.3299 6.16974 41.3508 6.19671C42.0046 7.04283 42.7504 7.60009 43.6307 7.90011C44.7042 8.26785 45.6901 8.23754 46.576 7.80498C46.7115 7.73059 46.8749 7.69289 47.0616 7.69289C47.2025 7.69289 47.3082 7.71508 47.3432 7.72305C47.3957 7.73175 47.4669 7.76105 47.4814 7.7799C48.0324 8.50247 48.5553 9.27419 49.0436 10.0849C48.6311 9.68471 48.093 9.41485 47.3601 9.2391C46.7176 9.08641 46.0608 9.05364 45.4258 9.02174L45.2132 9.01101C45.014 9.00086 44.8148 8.98824 44.6097 8.97533L44.2657 8.95416C44.2213 8.95416 44.179 8.97563 44.1531 9.0113C44.1244 9.04972 44.1176 9.09961 44.1345 9.14441C44.1483 9.18182 44.1734 9.2478 44.1864 9.26984C44.8561 10.3873 45.6426 11.1602 46.5904 11.6329C47.5171 12.0946 48.3543 12.2167 49.1988 12.0153C49.2965 11.9918 49.4097 11.9793 49.5267 11.9793C49.8859 11.9793 50.1364 12.0886 50.1891 12.1899C50.6537 13.1459 51.0683 14.1393 51.4259 15.1526C51.0508 14.6368 50.5263 14.2179 49.8623 13.9046C49.2025 13.594 48.5156 13.31 47.8398 13.0306C47.5493 12.9108 47.2577 12.7906 46.9674 12.6676C46.9242 12.6488 46.8732 12.6527 46.8329 12.6793C46.7934 12.7055 46.7698 12.7493 46.7698 12.7964C46.7698 12.8869 47.7337 15.5552 49.1335 16.6066C49.7045 17.0356 50.4078 17.4768 51.2948 17.4975C51.5602 17.5029 51.8347 17.5403 52.042 17.7754C52.0737 17.8128 52.1157 17.8419 52.1615 17.8575C52.2323 17.8807 52.2518 17.9239 52.2867 18.0712C52.5739 19.2742 52.7831 20.5141 52.9119 21.7732C52.873 21.6455 52.8278 21.5164 52.7759 21.3858C52.4626 20.5933 51.9353 19.8999 51.1166 19.2034C50.6945 18.8429 50.2526 18.4939 49.8252 18.1562L49.8048 18.1402C49.6102 17.9864 49.416 17.8331 49.2223 17.6779C49.1823 17.6459 49.1434 17.6128 49.0982 17.5743L48.9774 17.471C48.9351 17.4353 48.8721 17.4279 48.8227 17.4526C48.7719 17.4783 48.7416 17.5313 48.7455 17.588C48.7514 17.6731 48.7562 17.7536 48.7607 17.8309L48.7631 17.867C48.7727 18.0261 48.7817 18.1762 48.7978 18.3244C48.9493 19.7673 49.3795 20.9721 50.1129 22.0073C50.5669 22.6472 51.2182 23.4293 52.2338 23.7993C52.4809 23.8897 52.6601 24.0268 52.8522 24.2727C53.0333 24.503 53.067 24.7134 53.063 24.9782C53.0457 26.0873 52.9665 27.1876 52.8267 28.2652C52.794 27.9653 52.7248 27.6566 52.6186 27.3358C52.3986 26.6717 52.0558 26.026 51.5704 25.3619C51.1514 24.7868 50.7155 24.2096 50.2939 23.6512L50.2658 23.6139C50.0986 23.3928 49.9316 23.1714 49.7689 22.9547C49.7384 22.9102 49.6943 22.8943 49.6689 22.8854C49.6329 22.8679 49.5898 22.8661 49.5516 22.8824C49.5141 22.8983 49.4853 22.9298 49.4726 22.9684L49.4677 22.9835C49.4607 23.0038 49.4552 23.0217 49.4523 23.0397C49.1615 24.7691 49.3399 26.3185 49.9975 27.7769C50.3186 28.4901 50.7493 29.2975 51.5088 29.8784C51.8555 30.1436 52.1292 30.5157 52.2796 30.9259C52.3114 31.0142 52.3102 31.0525 52.3066 31.0673C51.9852 32.3953 51.5653 33.6761 51.0549 34.8884C51.1863 34.2495 51.1773 33.5784 51.0273 32.8831C50.8143 31.8976 50.4483 30.9426 50.1217 30.1248L50.0239 29.8798C49.8708 29.4966 49.7167 29.1103 49.5575 28.7099C49.5373 28.6587 49.4886 28.6238 49.4237 28.6206C49.3725 28.6206 49.3254 28.6497 49.301 28.697L49.2496 28.7933C49.2271 28.8355 49.206 28.8748 49.188 28.9154C48.5312 30.3936 48.3094 31.9089 48.529 33.4193C48.686 34.4993 48.9521 35.2727 49.3917 35.9269C49.6192 36.2651 49.8354 36.6418 49.8746 37.1051C49.8839 37.2147 49.8795 37.2903 49.8306 37.3763C49.2761 38.3448 48.6545 39.2588 47.9737 40.1079C47.9763 40.1033 47.9788 40.0986 47.9814 40.094C48.4712 39.2012 48.486 38.2359 48.436 37.4092C48.3928 36.7005 48.3114 35.9929 48.233 35.3088L48.2285 35.2692C48.197 34.9951 48.1656 34.7212 48.1369 34.4467C48.1204 34.2911 48.1019 34.1355 48.0829 33.9776L48.0577 33.7639C48.0522 33.7166 48.0233 33.6757 47.9817 33.6551C47.9043 33.6148 47.7792 33.677 47.644 33.8365C46.7149 34.9326 46.1383 36.1713 45.9301 37.5182C45.7143 38.9148 45.8313 40.1099 46.2884 41.172C46.3006 41.2003 46.3003 41.258 46.3001 41.2773L46.2756 41.8883C46.2719 41.9322 46.2487 41.9818 46.2295 42.0003C45.3017 42.8915 44.2803 43.6662 43.1842 44.3111C43.703 43.8433 44.076 43.233 44.3178 42.4595C44.5857 41.6022 44.7232 40.71 44.8565 39.8449L44.8682 39.7679C44.9154 39.4639 44.9647 39.1606 45.015 38.8506L45.0718 38.5001C45.08 38.449 45.0598 38.398 45.0201 38.3674C44.9807 38.3361 44.9237 38.3285 44.8784 38.348L44.8288 38.3684C44.7759 38.39 44.7298 38.4093 44.6863 38.4315C42.6141 39.4638 41.2501 41.8715 41.4428 44.1562C41.4731 44.5141 41.4402 44.8502 41.3422 45.1832C41.3331 45.2135 41.3037 45.2464 41.2918 45.2519C40.3076 45.6659 39.3718 45.9679 38.4302 46.1753C38.3818 46.1865 38.3435 46.221 38.3278 46.2675C38.3119 46.3144 38.3215 46.3653 38.3538 46.4035C38.4561 46.5245 38.5452 46.6545 38.6185 46.7907C38.6486 46.8464 38.7203 46.875 38.7739 46.861C39.5411 46.6864 40.2881 46.4604 40.9951 46.1886C41.0522 46.1657 41.0958 46.1549 41.1367 46.1615C41.294 46.1824 41.4602 46.2146 41.6446 46.2603C41.6827 46.2696 41.7148 46.2855 41.7148 46.2855C42.1178 47.0868 42.8104 47.5972 43.8328 47.8456C44.0552 47.8989 44.2846 47.9381 44.5146 47.9622C44.7554 47.9876 45.0239 48.0005 45.3124 48.0005C45.7122 48.0005 45.9973 47.9759 46.0008 47.9756C46.887 47.8767 47.6438 47.6777 48.3142 47.3673C48.5892 47.2401 48.9026 47.0688 49.1435 46.763C49.1896 46.7044 49.1819 46.6199 49.1259 46.5707C48.445 45.9714 47.7517 45.536 47.0061 45.2396C45.9014 44.8016 44.8951 44.683 43.9087 44.8723C43.7613 44.9008 43.6174 44.9368 43.4775 44.9781C44.4002 44.428 45.2837 43.7814 46.118 43.0447C46.134 43.0302 46.1603 43.0175 46.1808 43.0139C46.3173 42.9912 46.4986 42.9634 46.6841 42.9501C46.7012 42.9501 46.723 42.9583 46.7255 42.9592C47.2282 43.5204 47.8758 43.7931 48.7055 43.7931C48.7478 43.7931 48.7903 43.7923 48.8326 43.7908C49.7346 43.7618 50.6415 43.5146 51.5284 43.0556C52.173 42.7202 52.8449 42.3297 53.3898 41.7474C53.5106 41.6179 53.6185 41.4714 53.7137 41.3422L53.723 41.3296C53.7651 41.2726 53.8077 41.2152 53.8515 41.1585C53.8753 41.1279 53.8854 41.0885 53.8791 41.0487C53.8724 41.0104 53.8502 40.9764 53.8122 40.9517C53.8026 40.9465 53.5719 40.8231 53.3613 40.7417C51.9509 40.1981 50.5269 40.1424 49.1685 40.579C48.7238 40.7216 48.3053 40.9356 47.8978 41.2314C48.6514 40.3576 49.3492 39.3997 49.9828 38.369C49.9896 38.3581 50.0076 38.3287 50.0134 38.3233C50.0688 38.2881 50.1255 38.2547 50.1821 38.2218C50.2834 38.1625 50.3884 38.1012 50.4869 38.0281C50.5701 37.9662 50.5935 37.9646 50.6775 38.0185C50.7964 38.0955 50.9347 38.1355 51.0552 38.167C51.7603 38.3471 52.471 38.2573 53.2572 37.8892C53.9754 37.5533 54.5275 37.0225 55.0174 36.499C55.73 35.7354 56.1957 35.0464 56.4829 34.3307C56.5433 34.1805 56.5863 34.0252 56.6311 33.8627C56.6495 33.7946 56.6684 33.7264 56.6885 33.6595C56.7104 33.5875 56.6721 33.5114 56.6008 33.4863L56.5418 33.4818C56.2512 33.4818 53.6589 33.5243 52.1426 34.9918C51.8128 35.3111 51.5171 35.6504 51.2471 36.0219C51.8469 34.7548 52.3556 33.4195 52.7655 32.0333L52.7715 32.013C52.7764 31.9961 52.7839 31.9704 52.7888 31.9634L53.1854 31.4202C53.2002 31.3985 53.202 31.3985 53.2252 31.3985C53.2355 31.3985 53.2469 31.3992 53.2598 31.3999L53.3446 31.405C53.6397 31.4233 53.8134 31.4207 53.9563 31.3984C54.5209 31.3095 55.0306 31.0258 55.5143 30.5311C56.6455 29.3739 57.4241 27.9302 57.8945 26.1179C57.945 25.9238 57.9591 25.7277 57.9742 25.5198C57.9809 25.4255 57.9883 25.3284 57.999 25.228C58.0036 25.1799 57.9847 25.1339 57.9483 25.1039Z" fill="#5237F9"/>
<path d="M19.5692 46.173C18.6285 45.9658 17.6929 45.6638 16.7084 45.2498C16.6966 45.2443 16.6674 45.2114 16.6583 45.1818C16.5601 44.8481 16.5273 44.512 16.5575 44.1541C16.7503 41.8692 15.3862 39.4617 13.3145 38.4295C13.2704 38.4072 13.2245 38.3879 13.1716 38.3663L13.1224 38.346C13.0758 38.3261 13.0189 38.3344 12.9813 38.3646C12.9406 38.3959 12.9204 38.4469 12.9287 38.4981L12.9854 38.8485C13.0357 39.1585 13.0849 39.4618 13.1322 39.7655L13.1441 39.8449C13.2771 40.7079 13.4146 41.6003 13.6826 42.4575C13.9243 43.231 14.2974 43.8413 14.8162 44.309C13.7201 43.6643 12.6987 42.8895 11.771 41.9984C11.7516 41.9797 11.7284 41.9301 11.7251 41.8892L11.7002 41.2778C11.7001 41.256 11.6998 41.1983 11.7122 41.1697C12.1691 40.108 12.2861 38.9128 12.0702 37.5163C11.862 36.1693 11.2855 34.9307 10.3564 33.8345C10.2476 33.7062 10.1517 33.6412 10.0712 33.6412C10.0515 33.6412 10.0338 33.6452 10.0198 33.6524C9.9771 33.6736 9.94817 33.7146 9.9425 33.762L9.91764 33.9753C9.89845 34.1337 9.87999 34.2891 9.86342 34.4449C9.83478 34.7192 9.80338 34.9932 9.77183 35.2672L9.76733 35.3068C9.68882 35.9911 9.60741 36.6987 9.56438 37.4072C9.51437 38.2338 9.5292 39.1991 10.019 40.092C10.0216 40.0965 10.0239 40.1013 10.0265 40.1058C9.34574 39.2566 8.72426 38.3428 8.1698 37.3745C8.12081 37.2883 8.11659 37.2128 8.12575 37.1031C8.16515 36.6396 8.38117 36.2628 8.60869 35.925C9.04815 35.2707 9.31419 34.4974 9.47134 33.4174C9.691 31.907 9.46916 30.3918 8.81236 28.9136C8.79433 28.8728 8.77325 28.8335 8.75072 28.7913L8.6994 28.6948C8.67483 28.6476 8.62235 28.6166 8.56696 28.6191C8.51172 28.622 8.46302 28.6569 8.44296 28.7077C8.28363 29.1085 8.12953 29.4946 7.97645 29.8779L7.87861 30.1228C7.5521 30.9408 7.1859 31.8958 6.97307 32.8811C6.82304 33.5764 6.81388 34.2475 6.94545 34.8864C6.43489 33.6743 6.01519 32.3935 5.69377 31.0653C5.69013 31.0506 5.68897 31.0123 5.72081 30.924C5.87113 30.5136 6.14487 30.1415 6.49173 29.8763C7.25103 29.2954 7.68177 28.488 8.00291 27.7748C8.66044 26.3164 8.83881 24.767 8.54806 23.0378C8.54501 23.0196 8.53949 23.0016 8.53295 22.9821L8.52771 22.9664C8.51506 22.9277 8.48628 22.8964 8.44819 22.88C8.41098 22.8645 8.36417 22.8674 8.33524 22.8816C8.30616 22.8922 8.26211 22.9083 8.23347 22.9502C8.06891 23.1694 7.90187 23.3907 7.73469 23.6118L7.70663 23.6491C7.28504 24.2075 6.84906 24.7847 6.43009 25.3596C5.94469 26.0239 5.60189 26.6696 5.38194 27.3337C5.27581 27.6545 5.20647 27.9632 5.17376 28.2631C5.03406 27.1855 4.95483 26.0854 4.93753 24.9761C4.93346 24.7113 4.96718 24.5009 5.14847 24.2705C5.34036 24.0248 5.51961 23.8876 5.76675 23.7972C6.78219 23.4271 7.43362 22.6451 7.88762 22.0052C8.62104 20.97 9.05121 19.7654 9.20269 18.3226C9.21883 18.1741 9.22798 18.0238 9.23743 17.8649L9.23976 17.8288C9.24427 17.7515 9.24906 17.671 9.25517 17.5858C9.25895 17.5292 9.22857 17.4762 9.17783 17.4505C9.12869 17.4258 9.06575 17.4331 9.023 17.4692L8.90249 17.5721C8.85713 17.6107 8.81832 17.6438 8.77805 17.676C8.58455 17.831 8.39033 17.9844 8.19567 18.1383L8.17532 18.1542C7.74806 18.4918 7.30612 18.8408 6.8841 19.2013C6.0652 19.8979 5.53793 20.5913 5.22464 21.3838C5.17289 21.5145 5.12753 21.6437 5.08857 21.7716C5.21737 20.5123 5.42657 19.2722 5.71383 18.0691C5.74872 17.9219 5.7682 17.8787 5.83987 17.8552C5.88494 17.84 5.92695 17.8107 5.95762 17.7744C6.16595 17.5382 6.44027 17.5008 6.70602 17.4954C7.5928 17.4747 8.29613 17.0334 8.86702 16.6045C10.2668 15.5529 11.2307 12.8848 11.2307 12.7943C11.2307 12.7472 11.2071 12.7032 11.1671 12.6767C11.1277 12.6508 11.0745 12.6471 11.0344 12.665C10.7428 12.7884 10.4512 12.9086 10.1492 13.0331C9.48486 13.3079 8.79796 13.5919 8.13825 13.9023C7.47432 14.2157 6.94966 14.6347 6.5746 15.1504C6.93207 14.1372 7.34654 13.1439 7.81058 12.1893C7.86393 12.0864 8.11456 11.9771 8.47392 11.9771C8.5908 11.9771 8.70405 11.9895 8.80189 12.013C9.64623 12.2149 10.4834 12.0925 11.4101 11.6306C12.3581 11.1579 13.1445 10.385 13.8144 9.26716C13.8272 9.24555 13.8524 9.17958 13.8659 9.1426C13.8829 9.09736 13.8761 9.04747 13.8479 9.00963C13.8217 8.97367 13.7798 8.9522 13.7265 8.9522H13.7253L13.3907 8.97323C13.1855 8.98614 12.9864 8.99875 12.7872 9.0089L12.5745 9.01963C11.9395 9.05153 11.2827 9.08431 10.6402 9.237C9.90732 9.41275 9.36929 9.68261 8.95671 10.0828C9.44503 9.27209 9.96794 8.50065 10.5188 7.77808C10.5336 7.75894 10.6047 7.72965 10.663 7.71993C10.6921 7.71312 10.7979 7.69093 10.9386 7.69093C11.1253 7.69093 11.2887 7.72878 11.4272 7.80476C12.3075 8.23413 13.296 8.26603 14.3693 7.89829C15.2497 7.59827 15.9953 7.04101 16.649 6.19519C16.6702 6.16792 16.6894 6.1382 16.7068 6.10688C16.7267 6.07077 16.728 6.03104 16.7106 5.99479C16.66 5.88893 16.4411 5.83919 16.3489 5.82266C16.1227 5.78322 15.8664 5.73827 15.6123 5.7039C15.4958 5.68766 15.3792 5.67069 15.2624 5.65344L15.2474 5.65112C14.8514 5.59283 14.442 5.5325 14.0296 5.51177C13.276 5.47334 12.6068 5.62676 12.0592 5.96636C12.4274 5.57543 12.8036 5.2045 13.1857 4.85605C13.3065 4.74613 13.4431 4.63534 13.6294 4.49628C13.6438 4.48526 13.6804 4.47236 13.7253 4.46975C15.0452 4.41827 16.1435 3.83708 17.0826 2.69327C17.5942 2.07061 17.9864 1.28525 18.2819 0.292239L18.2921 0.258163C18.3237 0.153757 18.3411 0.0963344 18.2686 0.0290511C18.2126 -0.0228614 18.114 -0.00749021 17.8579 0.0937247C17.6253 0.182904 17.3912 0.269473 17.1509 0.358363C16.6681 0.536866 16.1688 0.72146 15.6869 0.92998C14.8815 1.27916 14.2383 1.80843 13.7756 2.50287C13.4232 3.03128 13.284 3.56215 13.3495 4.12303C13.3491 4.12927 13.3427 4.14595 13.3427 4.14595C12.502 4.86997 11.6983 5.68505 10.8732 6.65515C11.4234 5.81599 11.7821 4.84981 11.9621 3.72978C12.1435 2.60061 12.155 1.59556 11.9974 0.657367C11.9874 0.598639 11.9738 0.539911 11.9565 0.466393L11.9308 0.353142C11.9192 0.304565 11.8825 0.265268 11.8344 0.250187C11.7863 0.235976 11.7324 0.248592 11.6965 0.282669C11.6389 0.336756 11.5825 0.387799 11.5274 0.437391L11.4886 0.472338C11.3476 0.599074 11.2144 0.718705 11.0939 0.853997C9.92288 2.17168 9.2399 3.56345 9.006 5.10894C8.89944 5.80744 8.94363 6.40211 9.14119 6.92646C9.20661 7.10017 9.30867 7.25533 9.41028 7.40933C9.4568 7.47966 9.50333 7.55028 9.54592 7.62278C9.57732 7.67484 9.57994 7.68832 9.57979 7.68586C9.56046 7.89249 9.53269 8.12276 9.49518 8.39915C9.49358 8.40263 9.48835 8.41075 9.47163 8.43279L9.45811 8.4515C8.81773 9.33937 8.22693 10.2754 7.69529 11.2442C7.90434 10.5206 8.0708 9.60474 8.05902 8.54053C8.04478 7.26403 7.7501 6.12558 7.15784 5.05964C7.13444 5.01816 7.09199 4.99119 7.03253 4.98713C6.98935 4.98713 6.94777 5.00845 6.92059 5.04484C6.90285 5.0695 6.88483 5.0927 6.86767 5.11474C6.82944 5.16404 6.79368 5.21073 6.76169 5.26062C6.2901 5.99827 6.03714 6.81161 5.86924 7.4379C5.56235 8.5865 5.42134 9.54557 5.42541 10.4564C5.42773 11.2306 5.56918 11.8257 5.87069 12.3293C5.96446 12.486 6.0825 12.6232 6.20113 12.7612C6.26408 12.8345 6.32877 12.9097 6.38735 12.9869C6.42835 13.0405 6.44812 13.0952 6.44928 13.1257C6.45699 13.3092 6.45292 13.4959 6.44899 13.6762L6.44623 13.801C6.44579 13.8224 6.44085 13.8471 6.43344 13.8659C6.05488 14.7808 5.72212 15.7316 5.43834 16.7081C5.48007 16.3756 5.50362 16.0536 5.50958 15.7396C5.54389 13.9568 4.99568 12.3648 3.87978 11.0071L3.64718 10.7245C3.62028 10.6913 3.58045 10.6724 3.538 10.6724L3.51474 10.6745C3.46502 10.6827 3.42315 10.7171 3.40585 10.7639C3.38463 10.8203 3.36384 10.8735 3.34363 10.925C3.30467 11.0245 3.26789 11.1188 3.23678 11.2146C2.99735 11.9627 2.87989 12.78 2.85604 13.864L2.85561 13.8852C2.83773 14.6739 2.81316 15.7543 3.13793 16.7882C3.45761 17.806 4.02137 18.3204 4.13069 18.4128L4.14232 18.4232C4.43991 18.6881 4.63369 18.9304 4.67382 19.0878C4.68995 19.1513 4.70638 19.2149 4.72557 19.2779C4.81047 19.5579 4.75741 19.8247 4.70013 20.1128C4.67164 20.2583 4.64198 20.4085 4.63166 20.5626C4.59066 21.1795 4.54036 21.8068 4.49166 22.4134L4.4873 22.4695C4.4748 22.6242 4.46229 22.7789 4.44994 22.9336C4.32579 21.5456 3.86495 20.2839 3.07207 19.1681C2.58652 18.4854 2.00764 17.9013 1.35112 17.4316C1.32277 17.4113 1.29297 17.3932 1.25314 17.3696C1.2338 17.3584 1.21142 17.3451 1.18423 17.3281C1.14323 17.3036 1.09061 17.3014 1.0483 17.322C1.00498 17.343 0.975181 17.3858 0.970238 17.4342C0.96137 17.522 0.951048 17.6069 0.940145 17.6951C0.918193 17.8756 0.897405 18.0462 0.896533 18.2213C0.886792 20.0371 1.27189 21.7386 2.04151 23.278C2.25594 23.7075 2.53927 24.0791 2.88396 24.3827C3.22573 24.6821 3.59455 24.8588 4.01076 24.9223C4.01992 24.9239 4.04172 24.9371 4.04507 24.9397C4.0676 24.9848 4.09101 25.03 4.11441 25.0754C4.19757 25.2356 4.28348 25.4014 4.32622 25.5675C4.36184 25.7081 4.36184 25.8616 4.36184 26.0243C4.36184 26.0839 4.36184 26.1439 4.36373 26.2028C4.40371 27.6094 4.45619 28.0992 4.68181 29.356C4.54414 28.9823 4.37129 28.6076 4.14814 28.2471C3.24449 26.7882 2.09646 25.798 0.638492 25.2201C0.545742 25.1828 0.452702 25.156 0.344834 25.1247L0.323318 25.1183C0.27956 25.1056 0.233186 25.0919 0.183613 25.0768C0.138837 25.0622 0.0878105 25.0722 0.0513214 25.1024C0.0149776 25.1324 -0.00406658 25.1783 0.000730798 25.2262C0.0114886 25.326 0.0189027 25.423 0.0257353 25.5177C0.040709 25.7253 0.0548104 25.9214 0.105256 26.1154C0.57569 27.9278 1.35432 29.3714 2.48548 30.5287C2.96915 31.0234 3.47883 31.3071 4.04361 31.396C4.18608 31.4181 4.36024 31.4209 4.65506 31.4026L4.73996 31.3976C4.7529 31.3968 4.76424 31.3961 4.77456 31.3961C4.79782 31.3961 4.79971 31.3961 4.81585 31.4199L5.21083 31.9609C5.21592 31.968 5.22333 31.9937 5.22842 32.0114L5.23424 32.0308C5.6442 33.4171 6.15286 34.7523 6.75268 36.0195C6.48272 35.6479 6.18688 35.3085 5.85717 34.9894C4.34091 33.5219 1.74858 33.4794 1.45797 33.4794L1.42177 33.4797L1.39895 33.4839C1.32772 33.5091 1.28919 33.5851 1.31114 33.6566C1.33135 33.724 1.35025 33.7922 1.37191 33.8722C1.41334 34.0226 1.45637 34.1779 1.5167 34.3281C1.80396 35.0442 2.2696 35.733 2.98238 36.4966C3.47214 37.0201 4.02428 37.5509 4.74229 37.8866C5.52862 38.2549 6.23863 38.3448 6.94472 38.1645C7.0648 38.133 7.20291 38.0931 7.32168 38.0163C7.40629 37.9622 7.4294 37.9639 7.51256 38.0257C7.61112 38.0988 7.71594 38.1601 7.8177 38.2196C7.87396 38.2525 7.93066 38.2857 7.98357 38.319C7.992 38.3261 8.01003 38.3556 8.01672 38.3664C8.65026 39.3972 9.34821 40.3551 10.1018 41.2289C9.6942 40.9331 9.27567 40.719 8.83111 40.5765C7.47258 40.1399 6.04863 40.1954 4.63834 40.7393C4.42784 40.8207 4.19713 40.9439 4.18172 40.9526C4.14945 40.9738 4.1272 41.008 4.12023 41.0473C4.11412 41.0859 4.12415 41.1254 4.1477 41.1555C4.19175 41.2126 4.23435 41.2701 4.2765 41.3271L4.28581 41.3395C4.38103 41.4689 4.4889 41.6152 4.60985 41.7448C5.15457 42.3273 5.82635 42.7178 6.47123 43.0531C7.35802 43.512 8.26487 43.7593 9.16678 43.7883C9.20923 43.7897 9.25168 43.7906 9.29398 43.7906C10.1236 43.7906 10.7713 43.5178 11.2705 42.96C11.2766 42.9556 11.2983 42.9474 11.3102 42.9472C11.5009 42.9608 11.6822 42.9885 11.8177 43.011C11.8391 43.0148 11.8654 43.0276 11.8818 43.0423C12.7158 43.7788 13.5991 44.4253 14.5218 44.9754C14.382 44.9341 14.2379 44.8981 14.0905 44.8693C13.1044 44.6802 12.0981 44.7988 10.9931 45.2367C10.2476 45.5331 9.55435 45.9686 8.87356 46.5679C8.81744 46.6171 8.80959 46.7016 8.85582 46.7602C9.09671 47.066 9.41014 47.2373 9.68504 47.3643C10.3555 47.675 11.1123 47.874 11.9996 47.9729C12.0022 47.973 12.2873 47.9977 12.687 47.9977C12.9756 47.9977 13.2441 47.9848 13.4847 47.9594C13.7147 47.9353 13.9441 47.896 14.1667 47.8427C15.1889 47.5944 15.8817 47.084 16.2785 46.2915C16.2857 46.2847 16.3162 46.267 16.3549 46.2576C16.5393 46.2119 16.7054 46.1797 16.8632 46.1587C16.9004 46.1527 16.9468 46.1628 17.0053 46.1862C17.7112 46.4576 18.4583 46.6836 19.2243 46.8579C19.235 46.8605 19.2462 46.8618 19.2574 46.8618C19.3089 46.8618 19.3563 46.8336 19.3813 46.7874C19.4544 46.6517 19.5435 46.5215 19.646 46.4004C19.6781 46.3623 19.6877 46.3115 19.6719 46.2645C19.6568 46.219 19.6184 46.1845 19.5692 46.173Z" fill="#5237F9"/>
<path d="M35.8945 27.459L41.7357 21.7796C41.9337 21.5871 42.0052 21.2988 41.9196 21.0365C41.8341 20.7739 41.6068 20.5825 41.3329 20.5429L33.2612 19.3737L29.6508 12.0779C29.5284 11.8304 29.2758 11.6738 28.9991 11.6738C28.7225 11.6738 28.4696 11.8307 28.3474 12.0779L24.7383 19.3737L16.6653 20.5429C16.3916 20.5825 16.1641 20.774 16.0786 21.0365C15.993 21.2988 16.0643 21.5871 16.2625 21.7796L22.1037 27.459L20.7255 35.4777C20.6787 35.7496 20.7908 36.0245 21.0147 36.1867C21.2382 36.3489 21.5348 36.3704 21.7801 36.2419L28.9994 32.4565L36.2187 36.2419C36.325 36.2977 36.4412 36.3251 36.5567 36.3251C36.7075 36.3251 36.8574 36.2785 36.984 36.1867C37.2079 36.0247 37.3201 35.7496 37.2731 35.4777L35.8945 27.459Z" fill="#5237F9"/>
</g>
<defs>
<clipPath id="clip0_522_56">
<rect width="58" height="48" fill="white"/>
</clipPath>
</defs>
</svg>
