<svg width="41" height="55" viewBox="0 0 41 55" fill="none" xmlns="http://www.w3.org/2000/svg">
<g clip-path="url(#clip0_522_80)">
<path d="M41 20.3036C41 18.7124 40.398 17.1938 39.3049 16.0281C38.9638 15.6643 38.8325 15.178 38.9439 14.6937C39.3023 13.1428 39.057 11.5298 38.2537 10.1518C37.45 8.77377 36.1625 7.75661 34.6271 7.28874C34.1479 7.1423 33.7886 6.78646 33.6412 6.31187C33.1683 4.7916 32.1418 3.51597 30.75 2.72038C29.3586 1.92478 27.7296 1.68182 26.1641 2.0364C25.6752 2.14718 25.1842 2.01668 24.8168 1.67889C23.6399 0.596275 22.107 0 20.5 0C18.8934 0 17.3601 0.596275 16.1832 1.67889C15.8158 2.01668 15.3248 2.14718 14.8363 2.0364C13.2704 1.6814 11.6418 1.92436 10.25 2.72038C8.85865 3.51597 7.83166 4.79118 7.35926 6.31187C7.21139 6.78646 6.85212 7.1423 6.37294 7.28874C4.83754 7.75661 3.54998 8.77377 2.74627 10.1518C1.94298 11.5298 1.69767 13.1432 2.0561 14.6937C2.16795 15.178 2.03619 15.6643 1.69513 16.0281C0.602044 17.1938 0 18.7124 0 20.3036C0 21.8948 0.602044 23.4134 1.69513 24.579C2.03619 24.9429 2.16753 25.4292 2.0561 25.9134C1.69767 27.4639 1.94298 29.0773 2.74669 30.4554C3.54998 31.8334 4.83754 32.8505 6.37294 33.3188C6.85212 33.4649 7.21139 33.8207 7.35926 34.2953C7.83166 35.816 8.85865 37.0912 10.25 37.8872C10.5576 38.063 10.877 38.2099 11.2045 38.3316V53.3689C11.2045 53.9661 11.5337 54.5149 12.0625 54.8007C12.5917 55.0864 13.2361 55.0634 13.7428 54.7403L20.5 50.43L27.2581 54.7403C27.5288 54.9127 27.8389 55 28.1499 55C28.4206 55 28.6918 54.9337 28.9384 54.8007C29.4671 54.5149 29.7963 53.9661 29.7963 53.3689V38.3311C30.1234 38.2099 30.4428 38.0626 30.75 37.8872C32.1414 37.0916 33.1683 35.816 33.6412 34.2953C33.7886 33.8211 34.1479 33.4649 34.6271 33.3188C36.162 32.8505 37.45 31.8338 38.2537 30.4554C39.057 29.0773 39.3023 27.4643 38.9439 25.9134C38.832 25.4292 38.9638 24.9433 39.3049 24.579C40.398 23.4134 41 21.8948 41 20.3036ZM36.8916 22.3593C35.8129 23.5099 35.3799 25.1103 35.7337 26.6406C35.9057 27.3859 35.7879 28.1617 35.4015 28.8243C35.0151 29.4873 34.3957 29.9762 33.6577 30.2011C32.143 30.6635 30.9601 31.8351 30.4937 33.3352C30.2662 34.0662 29.7726 34.6796 29.1036 35.0619C28.4342 35.445 27.6512 35.5617 26.8984 35.3909C25.3532 35.0409 23.7373 35.4698 22.576 36.5381C22.01 37.0584 21.2728 37.345 20.5 37.345C19.7272 37.345 18.9904 37.0584 18.4244 36.5381C17.5292 35.7148 16.3645 35.2713 15.1702 35.2713C14.8147 35.2713 14.4563 35.3107 14.1016 35.3909C13.3492 35.5617 12.5658 35.4446 11.8968 35.0619C11.2278 34.6792 10.7338 34.0662 10.5067 33.3352C10.0403 31.8346 8.85738 30.6631 7.34231 30.2011C6.60427 29.9762 5.98527 29.4873 5.59888 28.8243C5.21249 28.1613 5.09471 27.3859 5.26672 26.6402C5.62007 25.1099 5.18707 23.5094 4.10839 22.3593C3.58303 21.7991 3.29366 21.069 3.29366 20.3036C3.29366 19.5382 3.58303 18.8081 4.10839 18.2479C5.18707 17.0973 5.62007 15.4969 5.26672 13.9665C5.09471 13.2209 5.21249 12.4454 5.59888 11.7824C5.98527 11.1198 6.60427 10.6306 7.34231 10.4057C8.85738 9.94366 10.0403 8.77209 10.5067 7.27154C10.7338 6.54057 11.2278 5.92751 11.8968 5.54482C12.5662 5.16212 13.3492 5.04547 14.1021 5.21584C15.6476 5.5658 17.2631 5.13695 18.4244 4.0686C18.99 3.54828 19.7272 3.26168 20.5 3.26168C21.2728 3.26168 22.01 3.54828 22.576 4.06902C23.7373 5.13737 25.3532 5.56622 26.8984 5.21626C27.6508 5.04547 28.4342 5.16254 29.1036 5.54523C29.7726 5.92793 30.2662 6.54099 30.4937 7.27196C30.9601 8.77209 32.143 9.94408 33.6577 10.4061C34.3957 10.631 35.0151 11.1198 35.4015 11.7828C35.7879 12.4454 35.9057 13.2213 35.7337 13.9665C35.3799 15.4969 35.8129 17.0973 36.8916 18.2479C37.4174 18.8085 37.7068 19.5386 37.7068 20.3036C37.7068 21.069 37.4174 21.7991 36.8916 22.3593ZM14.4978 50.3788V38.637C14.6109 38.6177 14.7236 38.5963 14.8363 38.5707C15.3248 38.46 15.8158 38.5905 16.1832 38.9283C16.9487 39.6324 17.8647 40.1288 18.8536 40.3915V47.6009L14.4978 50.3788ZM22.1468 40.3915C23.1357 40.1288 24.0517 39.6324 24.8168 38.9283C25.1842 38.5905 25.6752 38.46 26.1637 38.5707C26.2768 38.5963 26.3895 38.6177 26.5031 38.637V50.3788L22.1468 47.6005V40.3915Z" fill="#5237F9"/>
<path d="M20.5002 7.07422C13.1346 7.07422 7.14258 13.0093 7.14258 20.3043C7.14258 27.5994 13.1346 33.5344 20.5002 33.5344C27.8658 33.5344 33.8583 27.5994 33.8583 20.3043C33.8583 13.0093 27.8658 7.07422 20.5002 7.07422ZM20.5002 30.2723C14.9505 30.2723 10.4358 25.8009 10.4358 20.3043C10.4358 14.8078 14.9505 10.3363 20.5002 10.3363C26.05 10.3363 30.5647 14.8078 30.5647 20.3043C30.5647 25.8009 26.05 30.2723 20.5002 30.2723Z" fill="#5237F9"/>
<path d="M27.4562 18.1345C27.1376 17.1636 26.3961 16.4162 25.4217 16.0839L24.0015 15.5996L23.0978 14.4117C22.478 13.5968 21.5311 13.1289 20.5003 13.1289C19.4699 13.1289 18.523 13.5968 17.9027 14.4117L16.999 15.5996L15.5788 16.0839C14.6044 16.4162 13.863 17.1636 13.5443 18.1345C13.2262 19.1051 13.3825 20.1416 13.9735 20.9775L14.8349 22.196L14.8611 23.6831C14.8793 24.7036 15.3678 25.6331 16.2012 26.2332C17.035 26.8332 18.0785 27.0061 19.0644 26.7077L20.5003 26.2726L21.9365 26.7077C22.2534 26.8034 22.5763 26.8508 22.8962 26.8508C23.5711 26.8508 24.2337 26.6402 24.7993 26.2332C25.6331 25.6331 26.1216 24.7036 26.1394 23.6831L26.1657 22.196L27.027 20.9775C27.618 20.1416 27.7748 19.1051 27.4562 18.1345ZM22.8728 22.1268L22.8474 23.5724L21.451 23.1498C21.14 23.0554 20.8201 23.0084 20.5003 23.0084C20.1804 23.0084 19.8605 23.0554 19.5491 23.1498L18.1531 23.5724L18.1277 22.1268C18.1162 21.4827 17.9133 20.8629 17.54 20.335L16.7024 19.1504L18.0832 18.6796C18.6984 18.4698 19.2301 18.0871 19.6216 17.5723L20.5003 16.4175L21.379 17.5723C21.7704 18.0871 22.3026 18.4698 22.9178 18.6796L24.2981 19.1504L23.4605 20.335C23.0877 20.8629 22.8843 21.4827 22.8728 22.1268Z" fill="#5237F9"/>
</g>
<defs>
<clipPath id="clip0_522_80">
<rect width="41" height="55" fill="white"/>
</clipPath>
</defs>
</svg>
