<svg width="223" height="30" viewBox="0 0 223 30" fill="none" xmlns="http://www.w3.org/2000/svg">
<path d="M0 7.3982H20.5413L0 22.9478V29.9952H39.0761V22.6245H18.8309L39.0761 6.96178V0.0113288H0V7.3982ZM56.9037 18.228H76.8858V11.0997H56.9037V7.38204H81.2111V0.0113288H44.2402V29.9952H82.7242V22.6245H56.9037V18.228Z" fill="white"/>
<path d="M113.315 23.0603H100.312V18.2328H113.315C113.315 18.2328 116.232 18.3836 116.232 20.7112C116.232 23.1034 113.315 23.0603 113.315 23.0603ZM100.312 7.39224H112.351C112.351 7.39224 114.478 7.52155 114.478 9.26724C114.478 11.0345 112.351 11.1638 112.351 11.1638H100.312V7.39224ZM124.521 13.556L124.499 13.319C125.485 12.8448 127.788 10.7974 127.634 7.43534V6.85345C127.415 3.10345 123.227 0.0215498 118.688 0.0215498H87.4182V30H118.732C118.732 30 129.257 29.806 129.257 20.8836V20.3017C129.257 17.3491 126.472 14.2241 124.521 13.556ZM159.123 11.0345H146.493V7.02586H159.123C159.123 7.02586 161.667 7.02586 161.667 8.94397C161.645 11.0991 159.123 11.0345 159.123 11.0345ZM174.802 8.66379V8.125C174.758 4.80603 171.798 1.18535 167.522 0.280173C166.25 0.0215524 164.32 0 164.32 0H134.016V30H146.405V18.3836H155.395L163.377 30H176.293L167.609 17.7802C167.609 17.7802 174.802 16.3578 174.802 8.66379ZM196.971 19.9569L201.05 10.1293L205.15 19.9569H196.971ZM209.558 0.0215498H192.52L179.736 30H192.783L194.033 26.875H208.089L209.361 30H223L209.558 0.0215498Z" fill="white"/>
</svg>
