<svg width="225" height="30" viewBox="0 0 225 30" fill="none" xmlns="http://www.w3.org/2000/svg">
<path d="M86.4167 4.23635V12.4398H76.8287V4.24084H71.5417V25.7726H76.8287V17.1114H86.4213V25.7726H91.713V4.23635L86.4167 4.23635ZM111.083 4.23635L105.551 12.7629L100.028 4.23635H93.787L102.917 18.3096V25.7681H108.199V18.3096L117.329 4.23635H111.083ZM134.329 4.23635V20.015C134.329 20.6163 133.866 21.0965 133.208 21.0965H124.736V4.24084H119.449V25.7726H135.069C136.458 25.7726 137.579 25.3687 138.394 24.5834C139.204 23.7936 139.616 22.712 139.616 21.3702V4.23635H134.329ZM160.139 4.23635L144.514 4.23635V25.7681H149.792V8.89454H158.282C158.963 8.89454 159.394 9.41511 159.394 9.97158V25.7681H164.681V8.63874C164.681 7.29245 164.264 6.20643 163.463 5.42109C162.639 4.63126 161.528 4.23635 160.139 4.23635ZM185.204 4.23635H169.579V25.7681H185.204C186.593 25.7681 187.704 25.3643 188.514 24.5789C189.333 23.7891 189.741 22.7076 189.741 21.3657V8.63874C189.741 7.29245 189.333 6.20643 188.514 5.42109C187.704 4.63126 186.588 4.23635 185.204 4.23635ZM184.458 10.012V19.9835C184.463 20.1291 184.438 20.2742 184.383 20.4099C184.329 20.5457 184.247 20.6693 184.141 20.7733C184.036 20.8774 183.91 20.9596 183.772 21.0152C183.633 21.0707 183.484 21.0984 183.333 21.0965H174.856V8.89903L183.296 8.89903C183.991 8.89903 184.454 9.36574 184.454 10.012M198.954 4.23635C197.565 4.23635 196.444 4.63126 195.634 5.42109C194.819 6.21541 194.417 7.29693 194.417 8.63874V25.7681L199.685 25.7681V19.1085H209.287V25.7681H214.569V4.23635L198.954 4.23635ZM209.287 8.89903V14.4458H199.685V9.98504C199.685 9.4555 200.111 8.89454 200.815 8.89454L209.287 8.89903ZM219.713 25.7681H225V4.23635H219.713V25.7681ZM30.213 30C46.9028 30 60.4352 23.282 60.4352 15.0022C60.4352 6.71354 46.9028 0 30.213 0C13.5278 0 0 6.70905 0 15.0022C0 23.282 13.5278 30 30.213 30ZM35.9074 22.6358C35.3981 23.7711 34.5324 26.19 32.5417 27.1548C31.9072 27.4356 31.2204 27.5883 30.5231 27.6036H30.2176C24.6435 27.6036 19.4491 26.8497 15.1065 25.5707L14.9398 25.5079C14.537 25.3777 14.3333 25.1982 14.3333 24.9738C14.3333 24.7853 14.4398 24.6372 14.5833 24.4981L14.8565 24.2648C15.8657 23.457 18.8843 21.3343 24.5741 19.2162C26.5694 18.4802 29.0694 17.5602 31.6852 17.0217C33.2176 16.712 38.9074 15.8684 35.9028 22.6402M51.1713 7.51683C51.2778 7.33732 51.4213 7.18474 51.6806 7.17128C51.8194 7.15782 52.0139 7.18923 52.3056 7.36874C55.8518 9.48242 57.9583 12.1301 57.9583 14.9978C57.9583 20.1631 51.1018 24.6103 41.2917 26.5535C40.662 26.6746 40.2407 26.6702 40.1018 26.5176C40 26.4278 39.9722 26.2573 40.1018 26.0509C40.1749 25.9254 40.2619 25.8081 40.3611 25.7008C45.7037 19.5976 49.7731 10.5909 50.9259 7.99701C51.0185 7.8175 51.1018 7.638 51.1713 7.51683ZM24.6157 7.32835C25.125 6.19746 25.9907 3.77861 27.9815 2.81825C28.5833 2.52655 29.3333 2.38743 29.9954 2.36948H30.2963C35.8796 2.36948 41.0648 3.11444 45.4167 4.40239C45.4491 4.41586 45.5509 4.44727 45.5833 4.46522C45.9815 4.59536 46.1852 4.77487 46.1852 4.99476C46.1852 5.18773 46.0787 5.33134 45.9398 5.46597C45.875 5.5288 45.787 5.6006 45.662 5.69933C44.662 6.51608 41.6389 8.63426 35.9491 10.7479C33.9444 11.4884 31.4491 12.4084 28.8426 12.9424C27.3056 13.2565 21.6111 14.1002 24.6157 7.32835ZM19.1435 3.43306C19.7731 3.31638 20.1898 3.31638 20.3426 3.46896C20.4352 3.56769 20.4583 3.72924 20.338 3.93119C20.2623 4.05611 20.1739 4.17337 20.0741 4.28123C14.7315 10.3889 10.662 19.3912 9.5 21.994C9.41667 22.1735 9.3287 22.353 9.25463 22.4697C9.15278 22.6492 9.00926 22.8063 8.75463 22.8197C8.61574 22.8332 8.41667 22.7928 8.12037 22.6178C4.57407 20.5086 2.47685 17.8609 2.47685 14.9933C2.47685 9.82349 9.3287 5.37622 19.1435 3.43755" fill="white"/>
</svg>
