<svg width="173" height="53" viewBox="0 0 173 53" fill="none" xmlns="http://www.w3.org/2000/svg">
<mask id="path-1-inside-1_2001_4721" fill="white">
<path d="M49.1502 24.3969C49.1502 24.5746 49.0111 24.7129 48.8323 24.7129C48.733 24.7129 48.6535 24.6734 48.5939 24.6142C46.8655 22.8561 44.5014 21.8487 42.0379 21.8289C36.3957 21.8289 32.4621 27.1229 32.4621 34.0564C32.4621 40.9898 36.3957 46.264 42.0379 46.264C44.5212 46.2443 46.8655 45.2369 48.5939 43.4788C48.7131 43.3405 48.9118 43.3405 49.0509 43.459C49.1105 43.5183 49.1502 43.6171 49.1502 43.6961V45.5924C49.1502 45.7702 49.2893 45.9085 49.4681 45.9085H59.183C59.3618 45.9085 59.5008 45.7702 59.5008 45.5924V22.4808C59.5008 22.303 59.3618 22.1647 59.183 22.1647H49.488C49.3092 22.1647 49.1701 22.303 49.1701 22.4808L49.1502 24.3969ZM46.2497 37.2959C44.4617 37.4935 42.8524 36.2095 42.6736 34.4317C42.475 32.6538 43.7663 31.0538 45.5543 30.876C47.3423 30.6785 48.9515 31.9625 49.1303 33.7403C49.1502 33.8588 49.1502 33.9773 49.1502 34.0761C49.2098 35.7354 47.9185 37.1577 46.2497 37.2564V37.2959ZM136.385 22.3623L133.386 29.1575C133.326 29.3155 133.147 29.4143 132.988 29.355C132.889 29.3155 132.829 29.2562 132.79 29.1575L130.406 22.3623C130.366 22.224 130.247 22.145 130.108 22.145H119.797C119.618 22.145 119.479 22.2832 119.479 22.461C119.479 22.5005 119.479 22.54 119.499 22.5795L127.505 42.2343C127.545 42.3133 127.545 42.4121 127.505 42.4911L123.075 52.5654C122.995 52.7235 123.075 52.921 123.234 52.9803C123.273 53 123.313 53 123.373 53H133.346C133.465 53 133.584 52.921 133.644 52.8025L146.935 22.5795C147.014 22.4215 146.935 22.224 146.776 22.1647C146.736 22.145 146.696 22.145 146.637 22.145H136.683C136.544 22.145 136.425 22.2437 136.385 22.3623ZM107.201 24.3969C107.201 24.5746 107.062 24.7129 106.883 24.7129C106.784 24.7129 106.704 24.6734 106.645 24.6142C104.916 22.8561 102.552 21.8487 100.089 21.8289C94.4466 21.8289 90.5129 27.1229 90.5129 34.0564C90.5129 40.9898 94.4466 46.2838 100.089 46.2838C102.572 46.264 104.916 45.2566 106.645 43.4788C106.764 43.3603 106.963 43.3405 107.102 43.459C107.161 43.5183 107.201 43.6171 107.201 43.6961V45.5727C107.201 45.7505 107.34 45.8887 107.519 45.8887H117.214C117.393 45.8887 117.532 45.7505 117.532 45.5727V22.461C117.532 22.2832 117.393 22.145 117.214 22.145H107.519C107.34 22.145 107.201 22.2832 107.201 22.461V24.3969ZM104.301 37.2959C102.513 37.4935 100.903 36.2095 100.724 34.4317C100.526 32.6538 101.817 31.0538 103.605 30.876C105.393 30.6785 107.002 31.9625 107.181 33.7403C107.201 33.8588 107.201 33.9773 107.201 34.0761C107.261 35.7552 105.969 37.1577 104.281 37.2564L104.301 37.2959ZM162.63 22.4808V24.5549C162.63 24.7327 162.49 24.871 162.312 24.871C162.212 24.871 162.133 24.8314 162.053 24.7524C160.385 22.8956 158.001 21.8289 155.497 21.8289C149.855 21.8289 145.921 27.1229 145.921 34.0564C145.921 40.9898 149.855 46.2838 155.497 46.2838C158.001 46.264 160.385 45.1974 162.053 43.3603C162.173 43.222 162.371 43.222 162.51 43.3208C162.59 43.38 162.63 43.4788 162.63 43.5776V45.6122C162.63 45.79 162.769 45.9282 162.947 45.9282H172.642C172.821 45.948 172.98 45.8295 173 45.6517C173 45.6319 173 45.6122 173 45.6122V22.5005C173 22.3227 172.861 22.1845 172.682 22.1845H162.967C162.788 22.1647 162.63 22.2832 162.61 22.461C162.63 22.4413 162.63 22.461 162.63 22.4808ZM159.709 37.2762C157.921 37.4737 156.312 36.1897 156.133 34.4119C155.934 32.6341 157.226 31.0341 159.014 30.8563C160.802 30.6587 162.411 31.9427 162.59 33.7205C162.61 33.8391 162.61 33.9378 162.61 34.0564C162.689 35.7354 161.418 37.1577 159.729 37.2762H159.709ZM79.2286 21.8289C76.9836 21.8092 74.838 22.7178 73.3083 24.3574C73.1891 24.4759 72.9904 24.4956 72.8513 24.3771C72.7917 24.3179 72.752 24.2388 72.752 24.1401V10.2533C72.752 10.0755 72.6129 9.93727 72.4341 9.93727H62.7193C62.5405 9.93727 62.4014 10.0755 62.4014 10.2533V45.5924C62.4014 45.7702 62.5405 45.9085 62.7193 45.9085H72.4341C72.6129 45.9085 72.752 45.7702 72.752 45.5924V43.9726C72.752 43.7949 72.8911 43.6566 73.0699 43.6566C73.1692 43.6566 73.2487 43.6961 73.3083 43.7553C74.838 45.3949 76.9836 46.3036 79.2286 46.2838C84.8708 46.2838 88.8044 40.9898 88.8044 34.0564C88.8044 27.1229 84.8708 21.8289 79.2286 21.8289ZM75.6724 37.2564C73.8844 37.454 72.2752 36.17 72.0964 34.3922C71.8977 32.6143 73.1891 31.0143 74.9771 30.8365C76.7651 30.639 78.3743 31.923 78.5531 33.7008C78.573 33.8193 78.573 33.9378 78.573 34.0366C78.6525 35.7156 77.3611 37.1577 75.6724 37.2564Z"/>
<path d="M13.7282 45.9489H33.0785C33.2573 45.9489 33.3964 45.8106 33.4163 45.6329C33.4163 45.5736 33.3964 45.5143 33.3765 45.4551L25.0921 30.7979C24.9927 30.6399 24.7941 30.6004 24.6351 30.6794C24.6153 30.6992 24.5755 30.7189 24.5557 30.7387C20.5028 35.361 16.8076 40.2796 13.4501 45.4353C13.3508 45.5933 13.4104 45.7909 13.5494 45.8897C13.609 45.9292 13.6686 45.9489 13.7282 45.9489Z"/>
<path d="M0.596005 38.6001C9.11887 25.227 19.8072 13.3551 32.2041 3.43879C32.2836 3.37953 32.3233 3.28076 32.3233 3.182V0.317731C32.3233 0.139949 32.1644 -0.0180793 31.9856 0.00167428C31.9061 0.00167428 31.8465 0.0214278 31.7869 0.0609349C24.9527 5.37464 18.6152 11.2809 12.834 17.7009C12.7148 17.8391 12.5161 17.8589 12.377 17.7404C12.2976 17.6811 12.2578 17.5823 12.2578 17.4836V10.9056C12.2578 10.7279 12.1188 10.5896 11.94 10.5896H0.317869C0.139068 10.5896 0 10.7279 0 10.9056V38.4223C0 38.6001 0.139068 38.7384 0.298002 38.7581C0.417203 38.7581 0.536404 38.6989 0.596005 38.6001ZM32.3432 18.491V15.4292C32.3432 15.2514 32.1843 15.1131 32.0055 15.1131C31.926 15.1131 31.8465 15.1526 31.7869 15.1922C21.9528 24.0022 13.4498 34.1951 6.59579 45.4546C6.49645 45.6126 6.55605 45.8101 6.71499 45.9089C6.75472 45.9287 6.81432 45.9484 6.87392 45.9484H9.51621C9.63541 45.9484 9.73474 45.8892 9.79434 45.7904C16.0325 35.8149 23.5819 26.7085 32.224 18.7083C32.3035 18.649 32.3432 18.57 32.3432 18.491ZM32.3432 10.7081V7.74507C32.3432 7.56728 32.1843 7.42901 32.0055 7.42901C31.926 7.42901 31.8664 7.44876 31.8068 7.50802C19.0722 18.0762 8.3242 30.7975 0.0397336 45.0793C0.0198668 45.1385 0 45.178 0 45.2373V45.5731C0 45.7509 0.139068 45.8892 0.317869 45.8892H2.72175C2.84096 45.8892 2.94029 45.8299 2.99989 45.7311C10.748 32.6148 20.6218 20.8614 32.224 10.9451C32.2836 10.9056 32.3432 10.8069 32.3432 10.7081Z"/>
</mask>
<path d="M49.1502 24.3969C49.1502 24.5746 49.0111 24.7129 48.8323 24.7129C48.733 24.7129 48.6535 24.6734 48.5939 24.6142C46.8655 22.8561 44.5014 21.8487 42.0379 21.8289C36.3957 21.8289 32.4621 27.1229 32.4621 34.0564C32.4621 40.9898 36.3957 46.264 42.0379 46.264C44.5212 46.2443 46.8655 45.2369 48.5939 43.4788C48.7131 43.3405 48.9118 43.3405 49.0509 43.459C49.1105 43.5183 49.1502 43.6171 49.1502 43.6961V45.5924C49.1502 45.7702 49.2893 45.9085 49.4681 45.9085H59.183C59.3618 45.9085 59.5008 45.7702 59.5008 45.5924V22.4808C59.5008 22.303 59.3618 22.1647 59.183 22.1647H49.488C49.3092 22.1647 49.1701 22.303 49.1701 22.4808L49.1502 24.3969ZM46.2497 37.2959C44.4617 37.4935 42.8524 36.2095 42.6736 34.4317C42.475 32.6538 43.7663 31.0538 45.5543 30.876C47.3423 30.6785 48.9515 31.9625 49.1303 33.7403C49.1502 33.8588 49.1502 33.9773 49.1502 34.0761C49.2098 35.7354 47.9185 37.1577 46.2497 37.2564V37.2959ZM136.385 22.3623L133.386 29.1575C133.326 29.3155 133.147 29.4143 132.988 29.355C132.889 29.3155 132.829 29.2562 132.79 29.1575L130.406 22.3623C130.366 22.224 130.247 22.145 130.108 22.145H119.797C119.618 22.145 119.479 22.2832 119.479 22.461C119.479 22.5005 119.479 22.54 119.499 22.5795L127.505 42.2343C127.545 42.3133 127.545 42.4121 127.505 42.4911L123.075 52.5654C122.995 52.7235 123.075 52.921 123.234 52.9803C123.273 53 123.313 53 123.373 53H133.346C133.465 53 133.584 52.921 133.644 52.8025L146.935 22.5795C147.014 22.4215 146.935 22.224 146.776 22.1647C146.736 22.145 146.696 22.145 146.637 22.145H136.683C136.544 22.145 136.425 22.2437 136.385 22.3623ZM107.201 24.3969C107.201 24.5746 107.062 24.7129 106.883 24.7129C106.784 24.7129 106.704 24.6734 106.645 24.6142C104.916 22.8561 102.552 21.8487 100.089 21.8289C94.4466 21.8289 90.5129 27.1229 90.5129 34.0564C90.5129 40.9898 94.4466 46.2838 100.089 46.2838C102.572 46.264 104.916 45.2566 106.645 43.4788C106.764 43.3603 106.963 43.3405 107.102 43.459C107.161 43.5183 107.201 43.6171 107.201 43.6961V45.5727C107.201 45.7505 107.34 45.8887 107.519 45.8887H117.214C117.393 45.8887 117.532 45.7505 117.532 45.5727V22.461C117.532 22.2832 117.393 22.145 117.214 22.145H107.519C107.34 22.145 107.201 22.2832 107.201 22.461V24.3969ZM104.301 37.2959C102.513 37.4935 100.903 36.2095 100.724 34.4317C100.526 32.6538 101.817 31.0538 103.605 30.876C105.393 30.6785 107.002 31.9625 107.181 33.7403C107.201 33.8588 107.201 33.9773 107.201 34.0761C107.261 35.7552 105.969 37.1577 104.281 37.2564L104.301 37.2959ZM162.63 22.4808V24.5549C162.63 24.7327 162.49 24.871 162.312 24.871C162.212 24.871 162.133 24.8314 162.053 24.7524C160.385 22.8956 158.001 21.8289 155.497 21.8289C149.855 21.8289 145.921 27.1229 145.921 34.0564C145.921 40.9898 149.855 46.2838 155.497 46.2838C158.001 46.264 160.385 45.1974 162.053 43.3603C162.173 43.222 162.371 43.222 162.51 43.3208C162.59 43.38 162.63 43.4788 162.63 43.5776V45.6122C162.63 45.79 162.769 45.9282 162.947 45.9282H172.642C172.821 45.948 172.98 45.8295 173 45.6517C173 45.6319 173 45.6122 173 45.6122V22.5005C173 22.3227 172.861 22.1845 172.682 22.1845H162.967C162.788 22.1647 162.63 22.2832 162.61 22.461C162.63 22.4413 162.63 22.461 162.63 22.4808ZM159.709 37.2762C157.921 37.4737 156.312 36.1897 156.133 34.4119C155.934 32.6341 157.226 31.0341 159.014 30.8563C160.802 30.6587 162.411 31.9427 162.59 33.7205C162.61 33.8391 162.61 33.9378 162.61 34.0564C162.689 35.7354 161.418 37.1577 159.729 37.2762H159.709ZM79.2286 21.8289C76.9836 21.8092 74.838 22.7178 73.3083 24.3574C73.1891 24.4759 72.9904 24.4956 72.8513 24.3771C72.7917 24.3179 72.752 24.2388 72.752 24.1401V10.2533C72.752 10.0755 72.6129 9.93727 72.4341 9.93727H62.7193C62.5405 9.93727 62.4014 10.0755 62.4014 10.2533V45.5924C62.4014 45.7702 62.5405 45.9085 62.7193 45.9085H72.4341C72.6129 45.9085 72.752 45.7702 72.752 45.5924V43.9726C72.752 43.7949 72.8911 43.6566 73.0699 43.6566C73.1692 43.6566 73.2487 43.6961 73.3083 43.7553C74.838 45.3949 76.9836 46.3036 79.2286 46.2838C84.8708 46.2838 88.8044 40.9898 88.8044 34.0564C88.8044 27.1229 84.8708 21.8289 79.2286 21.8289ZM75.6724 37.2564C73.8844 37.454 72.2752 36.17 72.0964 34.3922C71.8977 32.6143 73.1891 31.0143 74.9771 30.8365C76.7651 30.639 78.3743 31.923 78.5531 33.7008C78.573 33.8193 78.573 33.9378 78.573 34.0366C78.6525 35.7156 77.3611 37.1577 75.6724 37.2564Z" fill="white"/>
<path d="M13.7282 45.9489H33.0785C33.2573 45.9489 33.3964 45.8106 33.4163 45.6329C33.4163 45.5736 33.3964 45.5143 33.3765 45.4551L25.0921 30.7979C24.9927 30.6399 24.7941 30.6004 24.6351 30.6794C24.6153 30.6992 24.5755 30.7189 24.5557 30.7387C20.5028 35.361 16.8076 40.2796 13.4501 45.4353C13.3508 45.5933 13.4104 45.7909 13.5494 45.8897C13.609 45.9292 13.6686 45.9489 13.7282 45.9489Z" fill="white"/>
<path d="M0.596005 38.6001C9.11887 25.227 19.8072 13.3551 32.2041 3.43879C32.2836 3.37953 32.3233 3.28076 32.3233 3.182V0.317731C32.3233 0.139949 32.1644 -0.0180793 31.9856 0.00167428C31.9061 0.00167428 31.8465 0.0214278 31.7869 0.0609349C24.9527 5.37464 18.6152 11.2809 12.834 17.7009C12.7148 17.8391 12.5161 17.8589 12.377 17.7404C12.2976 17.6811 12.2578 17.5823 12.2578 17.4836V10.9056C12.2578 10.7279 12.1188 10.5896 11.94 10.5896H0.317869C0.139068 10.5896 0 10.7279 0 10.9056V38.4223C0 38.6001 0.139068 38.7384 0.298002 38.7581C0.417203 38.7581 0.536404 38.6989 0.596005 38.6001ZM32.3432 18.491V15.4292C32.3432 15.2514 32.1843 15.1131 32.0055 15.1131C31.926 15.1131 31.8465 15.1526 31.7869 15.1922C21.9528 24.0022 13.4498 34.1951 6.59579 45.4546C6.49645 45.6126 6.55605 45.8101 6.71499 45.9089C6.75472 45.9287 6.81432 45.9484 6.87392 45.9484H9.51621C9.63541 45.9484 9.73474 45.8892 9.79434 45.7904C16.0325 35.8149 23.5819 26.7085 32.224 18.7083C32.3035 18.649 32.3432 18.57 32.3432 18.491ZM32.3432 10.7081V7.74507C32.3432 7.56728 32.1843 7.42901 32.0055 7.42901C31.926 7.42901 31.8664 7.44876 31.8068 7.50802C19.0722 18.0762 8.3242 30.7975 0.0397336 45.0793C0.0198668 45.1385 0 45.178 0 45.2373V45.5731C0 45.7509 0.139068 45.8892 0.317869 45.8892H2.72175C2.84096 45.8892 2.94029 45.8299 2.99989 45.7311C10.748 32.6148 20.6218 20.8614 32.224 10.9451C32.2836 10.9056 32.3432 10.8069 32.3432 10.7081Z" fill="white"/>
<path d="M49.1502 24.3969C49.1502 24.5746 49.0111 24.7129 48.8323 24.7129C48.733 24.7129 48.6535 24.6734 48.5939 24.6142C46.8655 22.8561 44.5014 21.8487 42.0379 21.8289C36.3957 21.8289 32.4621 27.1229 32.4621 34.0564C32.4621 40.9898 36.3957 46.264 42.0379 46.264C44.5212 46.2443 46.8655 45.2369 48.5939 43.4788C48.7131 43.3405 48.9118 43.3405 49.0509 43.459C49.1105 43.5183 49.1502 43.6171 49.1502 43.6961V45.5924C49.1502 45.7702 49.2893 45.9085 49.4681 45.9085H59.183C59.3618 45.9085 59.5008 45.7702 59.5008 45.5924V22.4808C59.5008 22.303 59.3618 22.1647 59.183 22.1647H49.488C49.3092 22.1647 49.1701 22.303 49.1701 22.4808L49.1502 24.3969ZM46.2497 37.2959C44.4617 37.4935 42.8524 36.2095 42.6736 34.4317C42.475 32.6538 43.7663 31.0538 45.5543 30.876C47.3423 30.6785 48.9515 31.9625 49.1303 33.7403C49.1502 33.8588 49.1502 33.9773 49.1502 34.0761C49.2098 35.7354 47.9185 37.1577 46.2497 37.2564V37.2959ZM136.385 22.3623L133.386 29.1575C133.326 29.3155 133.147 29.4143 132.988 29.355C132.889 29.3155 132.829 29.2562 132.79 29.1575L130.406 22.3623C130.366 22.224 130.247 22.145 130.108 22.145H119.797C119.618 22.145 119.479 22.2832 119.479 22.461C119.479 22.5005 119.479 22.54 119.499 22.5795L127.505 42.2343C127.545 42.3133 127.545 42.4121 127.505 42.4911L123.075 52.5654C122.995 52.7235 123.075 52.921 123.234 52.9803C123.273 53 123.313 53 123.373 53H133.346C133.465 53 133.584 52.921 133.644 52.8025L146.935 22.5795C147.014 22.4215 146.935 22.224 146.776 22.1647C146.736 22.145 146.696 22.145 146.637 22.145H136.683C136.544 22.145 136.425 22.2437 136.385 22.3623ZM107.201 24.3969C107.201 24.5746 107.062 24.7129 106.883 24.7129C106.784 24.7129 106.704 24.6734 106.645 24.6142C104.916 22.8561 102.552 21.8487 100.089 21.8289C94.4466 21.8289 90.5129 27.1229 90.5129 34.0564C90.5129 40.9898 94.4466 46.2838 100.089 46.2838C102.572 46.264 104.916 45.2566 106.645 43.4788C106.764 43.3603 106.963 43.3405 107.102 43.459C107.161 43.5183 107.201 43.6171 107.201 43.6961V45.5727C107.201 45.7505 107.34 45.8887 107.519 45.8887H117.214C117.393 45.8887 117.532 45.7505 117.532 45.5727V22.461C117.532 22.2832 117.393 22.145 117.214 22.145H107.519C107.34 22.145 107.201 22.2832 107.201 22.461V24.3969ZM104.301 37.2959C102.513 37.4935 100.903 36.2095 100.724 34.4317C100.526 32.6538 101.817 31.0538 103.605 30.876C105.393 30.6785 107.002 31.9625 107.181 33.7403C107.201 33.8588 107.201 33.9773 107.201 34.0761C107.261 35.7552 105.969 37.1577 104.281 37.2564L104.301 37.2959ZM162.63 22.4808V24.5549C162.63 24.7327 162.49 24.871 162.312 24.871C162.212 24.871 162.133 24.8314 162.053 24.7524C160.385 22.8956 158.001 21.8289 155.497 21.8289C149.855 21.8289 145.921 27.1229 145.921 34.0564C145.921 40.9898 149.855 46.2838 155.497 46.2838C158.001 46.264 160.385 45.1974 162.053 43.3603C162.173 43.222 162.371 43.222 162.51 43.3208C162.59 43.38 162.63 43.4788 162.63 43.5776V45.6122C162.63 45.79 162.769 45.9282 162.947 45.9282H172.642C172.821 45.948 172.98 45.8295 173 45.6517C173 45.6319 173 45.6122 173 45.6122V22.5005C173 22.3227 172.861 22.1845 172.682 22.1845H162.967C162.788 22.1647 162.63 22.2832 162.61 22.461C162.63 22.4413 162.63 22.461 162.63 22.4808ZM159.709 37.2762C157.921 37.4737 156.312 36.1897 156.133 34.4119C155.934 32.6341 157.226 31.0341 159.014 30.8563C160.802 30.6587 162.411 31.9427 162.59 33.7205C162.61 33.8391 162.61 33.9378 162.61 34.0564C162.689 35.7354 161.418 37.1577 159.729 37.2762H159.709ZM79.2286 21.8289C76.9836 21.8092 74.838 22.7178 73.3083 24.3574C73.1891 24.4759 72.9904 24.4956 72.8513 24.3771C72.7917 24.3179 72.752 24.2388 72.752 24.1401V10.2533C72.752 10.0755 72.6129 9.93727 72.4341 9.93727H62.7193C62.5405 9.93727 62.4014 10.0755 62.4014 10.2533V45.5924C62.4014 45.7702 62.5405 45.9085 62.7193 45.9085H72.4341C72.6129 45.9085 72.752 45.7702 72.752 45.5924V43.9726C72.752 43.7949 72.8911 43.6566 73.0699 43.6566C73.1692 43.6566 73.2487 43.6961 73.3083 43.7553C74.838 45.3949 76.9836 46.3036 79.2286 46.2838C84.8708 46.2838 88.8044 40.9898 88.8044 34.0564C88.8044 27.1229 84.8708 21.8289 79.2286 21.8289ZM75.6724 37.2564C73.8844 37.454 72.2752 36.17 72.0964 34.3922C71.8977 32.6143 73.1891 31.0143 74.9771 30.8365C76.7651 30.639 78.3743 31.923 78.5531 33.7008C78.573 33.8193 78.573 33.9378 78.573 34.0366C78.6525 35.7156 77.3611 37.1577 75.6724 37.2564Z" stroke="black" stroke-width="2" mask="url(#path-1-inside-1_2001_4721)"/>
<path d="M13.7282 45.9489H33.0785C33.2573 45.9489 33.3964 45.8106 33.4163 45.6329C33.4163 45.5736 33.3964 45.5143 33.3765 45.4551L25.0921 30.7979C24.9927 30.6399 24.7941 30.6004 24.6351 30.6794C24.6153 30.6992 24.5755 30.7189 24.5557 30.7387C20.5028 35.361 16.8076 40.2796 13.4501 45.4353C13.3508 45.5933 13.4104 45.7909 13.5494 45.8897C13.609 45.9292 13.6686 45.9489 13.7282 45.9489Z" stroke="black" stroke-width="2" mask="url(#path-1-inside-1_2001_4721)"/>
<path d="M0.596005 38.6001C9.11887 25.227 19.8072 13.3551 32.2041 3.43879C32.2836 3.37953 32.3233 3.28076 32.3233 3.182V0.317731C32.3233 0.139949 32.1644 -0.0180793 31.9856 0.00167428C31.9061 0.00167428 31.8465 0.0214278 31.7869 0.0609349C24.9527 5.37464 18.6152 11.2809 12.834 17.7009C12.7148 17.8391 12.5161 17.8589 12.377 17.7404C12.2976 17.6811 12.2578 17.5823 12.2578 17.4836V10.9056C12.2578 10.7279 12.1188 10.5896 11.94 10.5896H0.317869C0.139068 10.5896 0 10.7279 0 10.9056V38.4223C0 38.6001 0.139068 38.7384 0.298002 38.7581C0.417203 38.7581 0.536404 38.6989 0.596005 38.6001ZM32.3432 18.491V15.4292C32.3432 15.2514 32.1843 15.1131 32.0055 15.1131C31.926 15.1131 31.8465 15.1526 31.7869 15.1922C21.9528 24.0022 13.4498 34.1951 6.59579 45.4546C6.49645 45.6126 6.55605 45.8101 6.71499 45.9089C6.75472 45.9287 6.81432 45.9484 6.87392 45.9484H9.51621C9.63541 45.9484 9.73474 45.8892 9.79434 45.7904C16.0325 35.8149 23.5819 26.7085 32.224 18.7083C32.3035 18.649 32.3432 18.57 32.3432 18.491ZM32.3432 10.7081V7.74507C32.3432 7.56728 32.1843 7.42901 32.0055 7.42901C31.926 7.42901 31.8664 7.44876 31.8068 7.50802C19.0722 18.0762 8.3242 30.7975 0.0397336 45.0793C0.0198668 45.1385 0 45.178 0 45.2373V45.5731C0 45.7509 0.139068 45.8892 0.317869 45.8892H2.72175C2.84096 45.8892 2.94029 45.8299 2.99989 45.7311C10.748 32.6148 20.6218 20.8614 32.224 10.9451C32.2836 10.9056 32.3432 10.8069 32.3432 10.7081Z" stroke="black" stroke-width="2" mask="url(#path-1-inside-1_2001_4721)"/>
</svg>
