<svg width="181" height="48" viewBox="0 0 181 48" fill="none" xmlns="http://www.w3.org/2000/svg">
<path d="M74.5684 32.8912H70.4649V27.1318H74.1762C77.0015 27.1318 78.1563 27.8906 78.1563 29.8634C78.1563 31.8868 77.1904 32.8912 74.5684 32.8912ZM75.8467 20.3608H61.4879V47.5028H70.4649V39.4021H77.1468C82.2817 39.4021 87.0389 36.013 87.0389 30.1163C87.0316 23.1574 81.7442 20.3608 75.8467 20.3608ZM90.4525 47.5028H99.7854V20.3897H90.4525V47.5028ZM155.608 20.3969V27.6449H163.619V47.5028H172.93V27.616H180.912V20.3897M114.769 20.3969H105.414V47.5101H123.55V40.4716H114.762M139.361 40.2043C135.446 40.2043 133.246 37.6606 133.246 33.9463C133.246 30.1091 135.744 27.7172 139.361 27.7172C143.232 27.7172 145.513 30.2681 145.513 33.9607C145.513 37.834 143.109 40.2115 139.361 40.2043ZM139.492 19.9128C131.343 19.9128 124.305 25.3036 124.305 33.9174C124.305 42.271 130.675 48.0014 139.492 48.0014C147.888 48.0014 154.555 42.6757 154.555 33.9968C154.548 25.6721 148.186 19.9128 139.492 19.9128ZM12.7027 47.4884H37.6219V29.8995C29.0516 38.9252 21.1568 43.0514 12.7027 46.4044" fill="white"/>
<path d="M12.7027 45.3307C27.8242 38.9933 34.4916 28.4645 33.1334 23.4639C32.3199 20.4505 29.5382 18.7162 22.9072 20.4794C20.002 21.2743 16.3342 23.2616 12.7027 25.6679" fill="white"/>
<path d="M1.26254 32.2077C7.45782 24.3527 23.0005 9.228 36.4079 9.228C44.7094 9.228 44.3535 15.103 43.2423 19.605C47.2878 15.1464 48.4571 10.2252 48.4571 7.91282C48.4498 4.67543 46.1257 0 39.7779 0C24.838 0 6.54995 21.3538 1.26254 30.9359C-0.161 33.4506 -0.662143 34.6791 1.26254 32.2077Z" fill="white"/>
</svg>
