<svg width="192" height="37" viewBox="0 0 192 37" fill="none" xmlns="http://www.w3.org/2000/svg">
<path fill-rule="evenodd" clip-rule="evenodd" d="M186.774 27.4971C186.89 28.7569 187.946 30.3605 189.778 30.3605H190.848C191.264 30.3605 191.604 30.036 191.604 29.6397V7.17473H191.599C191.578 6.79625 191.25 6.49314 190.848 6.49314H187.53C187.128 6.49314 186.8 6.79625 186.779 7.17473H186.774V9.00012C184.741 6.6097 181.535 5.61754 178.321 5.61754C171.014 5.61754 165.091 11.2715 165.091 18.2464C165.091 25.2218 171.014 30.8758 178.321 30.8758C181.535 30.8758 185.039 29.686 186.774 27.4943V27.4971ZM178.333 26.4559C173.686 26.4559 169.919 22.7807 169.919 18.2464C169.919 13.7129 173.686 10.0376 178.333 10.0376C182.982 10.0376 186.748 13.7129 186.748 18.2464C186.748 22.7807 182.982 26.4559 178.333 26.4559Z" fill="white"/>
<path fill-rule="evenodd" clip-rule="evenodd" d="M160.894 16.645C160.894 10.0923 156.563 5.67166 149.657 5.67166C146.36 5.67166 143.658 7.49133 142.703 9.05445C142.497 7.83221 141.817 6.54745 139.709 6.54745H138.635C138.219 6.54745 137.88 6.87224 137.88 7.26854V27.5533C137.88 27.554 137.88 27.5554 137.88 27.5564V29.7354H137.884C137.905 30.1133 138.234 30.4167 138.635 30.4167H141.954C142.004 30.4167 142.054 30.4109 142.102 30.402C142.124 30.3979 142.145 30.3897 142.166 30.3839C142.191 30.3767 142.216 30.3711 142.24 30.3619C142.269 30.3502 142.296 30.3345 142.324 30.3199C142.337 30.312 142.351 30.3066 142.364 30.2983C142.397 30.2779 142.428 30.2534 142.457 30.2283C142.462 30.2237 142.468 30.2206 142.472 30.2163C142.505 30.1859 142.536 30.1523 142.562 30.1174C142.645 30.0086 142.696 29.8768 142.704 29.7354H142.709V16.4647C142.709 12.9455 145.698 10.0923 149.385 10.0923C153.072 10.0923 156.061 12.9455 156.061 16.4647L156.064 27.5573L156.065 27.5533C156.065 27.5632 156.067 27.5732 156.067 27.5838V29.7354H156.071C156.093 30.1133 156.421 30.4167 156.822 30.4167H160.141C160.192 30.4167 160.242 30.4109 160.29 30.402C160.309 30.3986 160.327 30.391 160.347 30.3859C160.374 30.3783 160.402 30.3719 160.428 30.3619C160.455 30.3512 160.48 30.3362 160.505 30.3224C160.521 30.314 160.537 30.3079 160.552 30.2983C160.583 30.2791 160.611 30.2558 160.639 30.233C160.646 30.2267 160.654 30.2221 160.66 30.2158C160.692 30.1869 160.72 30.1556 160.745 30.1228C160.747 30.1203 160.749 30.1184 160.751 30.1159C160.833 30.0081 160.883 29.8778 160.892 29.7372C160.892 29.7362 160.892 29.7354 160.892 29.7354H160.896L160.894 16.645Z" fill="white"/>
<path fill-rule="evenodd" clip-rule="evenodd" d="M126.334 27.497C126.45 28.7568 127.507 30.3604 129.337 30.3604H130.408C130.823 30.3604 131.163 30.0359 131.163 29.6396V7.17473H131.159C131.137 6.79625 130.809 6.49314 130.408 6.49314H127.089C126.688 6.49314 126.36 6.79625 126.338 7.17473H126.334V9.00012C124.3 6.6097 121.095 5.61754 117.88 5.61754C110.573 5.61754 104.65 11.2715 104.65 18.2465C104.65 25.2217 110.573 30.8759 117.88 30.8759C121.095 30.8759 124.598 29.6861 126.334 27.4942L126.334 27.497ZM117.893 26.4559C113.246 26.4559 109.479 22.7808 109.479 18.2465C109.479 13.7129 113.246 10.0376 117.893 10.0376C122.541 10.0376 126.307 13.7129 126.307 18.2465C126.307 22.7808 122.541 26.4559 117.893 26.4559Z" fill="white"/>
<path fill-rule="evenodd" clip-rule="evenodd" d="M85.0257 24.2796C87.241 25.7446 89.6592 26.4561 91.983 26.4561C94.1968 26.4561 96.4855 25.3606 96.4855 23.4538C96.4855 20.9082 91.4984 20.512 88.3651 19.4956C85.2311 18.4791 82.5319 16.3777 82.5319 12.9748C82.5319 7.76776 87.3926 5.61719 91.9293 5.61719C94.8037 5.61719 97.7694 6.52194 99.6922 7.81799C100.354 8.29693 99.9511 8.84679 99.9511 8.84679L98.1157 11.349C97.9094 11.6308 97.5486 11.8743 97.031 11.5693C96.5131 11.2644 94.697 10.0374 91.9293 10.0374C89.1612 10.0374 87.4939 11.2575 87.4939 12.7698C87.4939 14.5834 89.6609 15.1537 92.1991 15.7719C96.6224 16.9099 101.448 18.2779 101.448 23.4538C101.448 28.0416 96.9517 30.8769 91.983 30.8769C88.2177 30.8769 85.0119 29.8523 82.3232 27.969C81.7631 27.4339 82.1542 26.9371 82.1542 26.9371L83.9807 24.4476C84.3523 23.9821 84.8208 24.1445 85.0257 24.2796Z" fill="white"/>
<path fill-rule="evenodd" clip-rule="evenodd" d="M72.2679 27.497C72.3839 28.7568 73.4405 30.3604 75.2707 30.3604H76.3418C76.7569 30.3604 77.0972 30.0359 77.0972 29.6396V7.17473H77.0925C77.0707 6.79625 76.7429 6.49314 76.3418 6.49314H73.0232C72.6219 6.49314 72.2941 6.79625 72.2718 7.17473H72.2679V9.00012C70.2346 6.6097 67.029 5.61754 63.8143 5.61754C56.5075 5.61754 50.584 11.2715 50.584 18.2465C50.584 25.2217 56.5075 30.8759 63.8143 30.8759C67.029 30.8759 70.5322 29.6861 72.2674 27.4942L72.2679 27.497ZM63.8273 26.4559C59.1801 26.4559 55.4128 22.7808 55.4128 18.2465C55.4128 13.7129 59.1801 10.0376 63.8273 10.0376C68.4743 10.0376 72.2413 13.7129 72.2413 18.2465C72.2413 22.7808 68.4743 26.4559 63.8273 26.4559Z" fill="white"/>
<path fill-rule="evenodd" clip-rule="evenodd" d="M32.0355 19.1071C27.1184 19.1071 23.132 22.9091 23.132 27.5995C23.132 32.2896 27.1184 36.0916 32.0355 36.0916C36.9528 36.0916 40.9391 32.2896 40.9391 27.5995C40.9391 22.9091 36.9528 19.1071 32.0355 19.1071ZM8.90351 19.1079C3.98628 19.1079 0 22.9091 0 27.5995C0 32.2896 3.98628 36.0916 8.90351 36.0916C13.821 36.0916 17.8074 32.2896 17.8074 27.5995C17.8074 22.9091 13.821 19.1079 8.90351 19.1079ZM29.3729 8.49184C29.3729 13.1822 25.3868 16.9846 20.4695 16.9846C15.5521 16.9846 11.566 13.1822 11.566 8.49184C11.566 3.80242 15.5521 0 20.4695 0C25.3868 0 29.3729 3.80242 29.3729 8.49184Z" fill="white"/>
</svg>
