<svg width="100" height="100" viewBox="0 0 100 100" fill="none" xmlns="http://www.w3.org/2000/svg">
<rect width="100" height="100" rx="50" fill="#5237F9"/>
<path d="M26.2869 54.1954L33.9821 59.7114L33.9796 59.7149C33.0803 60.9547 33.3392 62.7082 34.5576 63.6248C34.9477 63.9182 35.3982 64.0911 35.8727 64.1464C35.3079 65.3334 35.6306 66.8006 36.7098 67.6115C37.483 68.1933 38.5288 68.3524 39.5072 67.8841C39.6638 68.4705 39.9963 69.0121 40.5128 69.4002C41.2452 69.9513 42.1873 70.1251 43.156 69.7306C43.3046 70.3746 43.6569 70.9433 44.1851 71.3406C45.0549 71.9942 46.2292 72.1028 47.2632 71.4464C47.9731 71.8246 48.7483 72 49.4939 72C50.3463 72 51.1541 71.7869 51.7606 71.4393C52.4829 71.0255 52.93 70.4196 53.046 69.7355C54.4753 70.2417 56.0351 69.8981 57.0972 68.8954C57.7803 68.3057 58.18 67.4432 58.1929 66.5287C58.1932 66.5122 58.1886 66.4965 58.1886 66.4801C59.7041 67.0696 61.2779 66.6828 62.3192 65.7215C63.1691 64.9973 63.6619 63.8923 63.5739 62.6999C65.0516 63.3022 66.6051 62.9661 67.7127 62.0043C68.66 61.1657 69.1656 59.9504 69.1005 58.67C69.0914 58.4982 69.0653 58.327 69.0361 58.1571L72.8476 56.4223L73.5494 58.1265L83 54.0601L73.1699 28.7804L63.2266 33.0596L64.0298 35.0101L51.3982 31.5282L45.3289 34.2665L33.0592 33.3602L34.0671 30.2591L24.3867 27L16 52.8048L25.6797 56.0637L26.2869 54.1954ZM35.0964 60.5543L36.0309 59.2673C36.4857 58.6402 37.3362 58.53 37.9311 58.9762C38.421 59.3446 38.6194 60.0026 38.3794 60.6048L37.0506 62.4359C36.5831 62.8173 35.8787 62.8627 35.3825 62.4889C34.7793 62.0354 34.6512 61.1674 35.0964 60.5543ZM37.534 66.4757C36.9315 66.0225 36.8035 65.1546 37.2487 64.541C37.3004 64.4698 40.3337 60.2877 40.2826 60.3605C40.7364 59.7348 41.5874 59.6223 42.1835 60.0694C42.7909 60.5263 42.9126 61.394 42.4687 62.0037C42.0627 62.5633 39.3747 66.2677 39.4348 66.1846C39.0031 66.7791 38.1228 66.9174 37.534 66.4757ZM41.337 68.2644C40.7419 67.8168 40.6121 66.9657 41.0379 66.3537L43.3339 63.1896C43.8007 62.5677 44.6409 62.4808 45.2185 62.9155C45.8216 63.369 45.9497 64.2366 45.5045 64.8497C45.4509 64.9226 43.1267 68.0929 43.2377 67.9734C42.8054 68.5692 41.9252 68.7058 41.337 68.2644ZM45.0099 70.2048C44.4597 69.7911 44.3103 69.0348 44.6254 68.4395L46.3335 66.0857C46.589 65.8095 46.935 65.6466 47.3152 65.6466C47.6066 65.6466 47.8851 65.7404 48.1209 65.9173C48.413 66.1369 48.6034 66.4591 48.657 66.8243C48.7112 67.1898 48.6224 67.5547 48.4063 67.8516L46.91 69.9138C46.4784 70.509 45.5967 70.6469 45.0099 70.2048ZM51.0797 70.2086C50.3887 70.6047 49.2717 70.7194 48.3027 70.3728L49.5231 68.6909C49.7754 68.3431 49.9308 67.9473 50.0053 67.5341L51.4767 68.8827C51.6069 69.0017 51.6835 69.1662 51.6922 69.3455C51.7139 69.7565 51.3711 70.0417 51.0797 70.2086ZM65.0414 33.8121L72.4028 30.6447L81.2111 53.2966L74.2908 56.274L67.9986 40.9934L65.7463 35.4832L65.7275 35.478L65.0414 33.8121ZM51.5107 33.0227L64.7098 36.661L66.6181 41.2951L72.2754 55.1354L68.3172 56.9372L51.3392 40.8169L46.6051 41.8529L45.0011 45.3061C44.4446 46.5052 43.0371 47.0694 41.8086 46.5214C40.742 46.0455 40.151 44.8599 40.4038 43.7022L41.7768 37.4136L51.5107 33.0227ZM42.6311 35.4836L40.5746 36.4115L39.0485 43.396C38.6528 45.2106 39.5791 47.069 41.2516 47.8152C43.1632 48.6681 45.3782 47.8003 46.2561 45.9096L47.5673 43.0874L50.9224 42.3529L67.633 58.2191C67.6738 58.3899 67.7051 58.5653 67.7141 58.7441C67.7575 59.5872 67.4247 60.387 66.8067 60.9342C65.8126 61.7988 64.3665 61.8098 63.3683 60.9601C50.0094 49.2752 54.6169 53.3053 53.6202 52.4335L52.7094 53.4991C53.6073 54.3022 49.4569 50.5896 61.4905 61.354C62.4456 62.2296 62.45 63.7675 61.4079 64.6567C60.4395 65.5515 58.9473 65.5801 57.939 64.7257C46.8173 54.9489 50.6531 58.3209 49.8233 57.5914L48.9126 58.657C49.661 59.3232 46.2012 56.244 56.2326 65.1715C56.604 65.5122 56.8127 65.9992 56.8052 66.5078C56.7984 67.0147 56.5776 67.4923 56.177 67.8389C55.2053 68.7535 53.7042 68.7952 52.683 67.9324L50.6592 66.2261L50.667 66.2171L48.2721 64.0949L48.0583 64.3451C47.8183 64.2763 47.5703 64.2343 47.3153 64.2343C47.2559 64.2343 47.1993 64.2515 47.1404 64.2554C47.2136 63.3235 46.8352 62.3749 46.0433 61.7796C45.5305 61.3937 44.9182 61.1782 44.1179 61.268C44.1455 60.2942 43.7043 59.4572 43.0074 58.9336C42.0019 58.177 40.6357 58.2056 39.6502 59.015C39.4613 58.5529 39.161 58.1453 38.7551 57.8405C37.5269 56.9163 35.8085 57.1961 34.9141 58.4281L34.8073 58.5752L26.7424 52.7943L32.6095 34.7435L42.6311 35.4836ZM17.7538 51.9076L25.2691 28.7849L32.3133 31.1564L24.7974 54.2788L17.7538 51.9076Z" fill="white"/>
</svg>
